%TF.GenerationSoftware,KiCad,Pcbnew,(7.0.0)*%
%TF.CreationDate,2023-03-05T15:20:25+10:30*%
%TF.ProjectId,SoundRAM,536f756e-6452-4414-9d2e-6b696361645f,rev?*%
%TF.SameCoordinates,Original*%
%TF.FileFunction,Soldermask,Top*%
%TF.FilePolarity,Negative*%
%FSLAX46Y46*%
G04 Gerber Fmt 4.6, Leading zero omitted, Abs format (unit mm)*
G04 Created by KiCad (PCBNEW (7.0.0)) date 2023-03-05 15:20:25*
%MOMM*%
%LPD*%
G01*
G04 APERTURE LIST*
G04 Aperture macros list*
%AMRoundRect*
0 Rectangle with rounded corners*
0 $1 Rounding radius*
0 $2 $3 $4 $5 $6 $7 $8 $9 X,Y pos of 4 corners*
0 Add a 4 corners polygon primitive as box body*
4,1,4,$2,$3,$4,$5,$6,$7,$8,$9,$2,$3,0*
0 Add four circle primitives for the rounded corners*
1,1,$1+$1,$2,$3*
1,1,$1+$1,$4,$5*
1,1,$1+$1,$6,$7*
1,1,$1+$1,$8,$9*
0 Add four rect primitives between the rounded corners*
20,1,$1+$1,$2,$3,$4,$5,0*
20,1,$1+$1,$4,$5,$6,$7,0*
20,1,$1+$1,$6,$7,$8,$9,0*
20,1,$1+$1,$8,$9,$2,$3,0*%
G04 Aperture macros list end*
%ADD10R,1.600000X1.600000*%
%ADD11C,1.600000*%
%ADD12O,1.600000X1.600000*%
%ADD13R,1.700000X1.700000*%
%ADD14O,1.700000X1.700000*%
%ADD15C,4.400000*%
%ADD16RoundRect,0.250000X-0.600000X-0.600000X0.600000X-0.600000X0.600000X0.600000X-0.600000X0.600000X0*%
%ADD17C,1.700000*%
%ADD18O,2.200000X1.200000*%
%ADD19O,1.200000X2.200000*%
G04 APERTURE END LIST*
D10*
%TO.C,C5*%
X144084099Y-103123999D03*
D11*
X142084100Y-103124000D03*
%TD*%
D10*
%TO.C,C6*%
X129860099Y-81787999D03*
D11*
X127860100Y-81788000D03*
%TD*%
D10*
%TO.C,U5*%
X118658999Y-102352599D03*
D12*
X121198999Y-102352599D03*
X123738999Y-102352599D03*
X126278999Y-102352599D03*
X128818999Y-102352599D03*
X131358999Y-102352599D03*
X133898999Y-102352599D03*
X136438999Y-102352599D03*
X136438999Y-94732599D03*
X133898999Y-94732599D03*
X131358999Y-94732599D03*
X128818999Y-94732599D03*
X126278999Y-94732599D03*
X123738999Y-94732599D03*
X121198999Y-94732599D03*
X118658999Y-94732599D03*
%TD*%
D10*
%TO.C,U2*%
X154899999Y-103799999D03*
D12*
X157439999Y-103799999D03*
X159979999Y-103799999D03*
X162519999Y-103799999D03*
X165059999Y-103799999D03*
X167599999Y-103799999D03*
X170139999Y-103799999D03*
X172679999Y-103799999D03*
X172679999Y-96179999D03*
X170139999Y-96179999D03*
X167599999Y-96179999D03*
X165059999Y-96179999D03*
X162519999Y-96179999D03*
X159979999Y-96179999D03*
X157439999Y-96179999D03*
X154899999Y-96179999D03*
%TD*%
D11*
%TO.C,C4*%
X146530000Y-77720000D03*
X151530000Y-77720000D03*
%TD*%
D13*
%TO.C,J2*%
X154919999Y-113679999D03*
D14*
X154919999Y-111139999D03*
X154919999Y-108599999D03*
X157459999Y-113679999D03*
X157459999Y-111139999D03*
X157459999Y-108599999D03*
X159999999Y-113679999D03*
X159999999Y-111139999D03*
X159999999Y-108599999D03*
X162539999Y-113679999D03*
X162539999Y-111139999D03*
X162539999Y-108599999D03*
X165079999Y-113679999D03*
X165079999Y-111139999D03*
X165079999Y-108599999D03*
X167619999Y-113679999D03*
X167619999Y-111139999D03*
X167619999Y-108599999D03*
X170159999Y-113679999D03*
X170159999Y-111139999D03*
X170159999Y-108599999D03*
X172699999Y-113679999D03*
X172699999Y-111139999D03*
X172699999Y-108599999D03*
%TD*%
D10*
%TO.C,C1*%
X144084099Y-95122999D03*
D11*
X142084100Y-95123000D03*
%TD*%
D15*
%TO.C,H4*%
X184023000Y-119507000D03*
%TD*%
D13*
%TO.C,J3*%
X147700999Y-81660999D03*
D14*
X150240999Y-81660999D03*
%TD*%
D10*
%TO.C,X1*%
X119999999Y-59299999D03*
D11*
X120000000Y-74540000D03*
X127620000Y-74540000D03*
X127620000Y-59300000D03*
%TD*%
D16*
%TO.C,J1*%
X179915400Y-62052800D03*
D17*
X179915400Y-64592800D03*
X179915400Y-67132800D03*
X179915400Y-69672800D03*
X179915400Y-72212800D03*
X179915400Y-74752800D03*
X179915400Y-77292800D03*
X179915400Y-79832800D03*
X179915400Y-82372800D03*
X179915400Y-84912800D03*
X179915400Y-87452800D03*
X179915400Y-89992800D03*
X179915400Y-92532800D03*
X179915400Y-95072800D03*
X179915400Y-97612800D03*
X179915400Y-100152800D03*
X179915400Y-102692800D03*
X179915400Y-105232800D03*
X179915400Y-107772800D03*
X179915400Y-110312800D03*
X182455400Y-110312800D03*
X182455400Y-107772800D03*
X182455400Y-105232800D03*
X182455400Y-102692800D03*
X182455400Y-100152800D03*
X182455400Y-97612800D03*
X182455400Y-95072800D03*
X182455400Y-92532800D03*
X182455400Y-89992800D03*
X182455400Y-87452800D03*
X182455400Y-84912800D03*
X182455400Y-82372800D03*
X182455400Y-79832800D03*
X182455400Y-77292800D03*
X182455400Y-74752800D03*
X182455400Y-72212800D03*
X182455400Y-69672800D03*
X182455400Y-67132800D03*
X182455400Y-64592800D03*
X182455400Y-62052800D03*
%TD*%
D15*
%TO.C,H2*%
X116967000Y-53340000D03*
%TD*%
D10*
%TO.C,U3*%
X157299999Y-57992199D03*
D12*
X157299999Y-60532199D03*
X157299999Y-63072199D03*
X157299999Y-65612199D03*
X157299999Y-68152199D03*
X157299999Y-70692199D03*
X157299999Y-73232199D03*
X157299999Y-75772199D03*
X157299999Y-78312199D03*
X157299999Y-80852199D03*
X157299999Y-83392199D03*
X157299999Y-85932199D03*
X157299999Y-88472199D03*
X157299999Y-91012199D03*
X172536199Y-90995999D03*
X164919999Y-91012199D03*
X172536199Y-88455999D03*
X164919999Y-88472199D03*
X164919999Y-85932199D03*
X172536199Y-85915999D03*
X164919999Y-83392199D03*
X172536199Y-83375999D03*
X164919999Y-80852199D03*
X172536199Y-80835999D03*
X164919999Y-78312199D03*
X172536199Y-78295999D03*
X164919999Y-75772199D03*
X172536199Y-75755999D03*
X172536199Y-73215999D03*
X164919999Y-73232199D03*
X164919999Y-70692199D03*
X172536199Y-70675999D03*
X164919999Y-68152199D03*
X172536199Y-68135999D03*
X172536199Y-65595999D03*
X164919999Y-65612199D03*
X172536199Y-63055999D03*
X164919999Y-63072199D03*
X172536199Y-60515999D03*
X164919999Y-60532199D03*
X172536199Y-57975999D03*
X164919999Y-57992199D03*
%TD*%
D10*
%TO.C,C2*%
X144031599Y-112452599D03*
D11*
X142031600Y-112452600D03*
%TD*%
D15*
%TO.C,H3*%
X183896000Y-53467000D03*
%TD*%
D10*
%TO.C,U4*%
X118658999Y-114499999D03*
D12*
X121198999Y-114499999D03*
X123738999Y-114499999D03*
X126278999Y-114499999D03*
X128818999Y-114499999D03*
X131358999Y-114499999D03*
X133898999Y-114499999D03*
X136438999Y-114499999D03*
X136438999Y-106879999D03*
X133898999Y-106879999D03*
X131358999Y-106879999D03*
X128818999Y-106879999D03*
X126278999Y-106879999D03*
X123738999Y-106879999D03*
X121198999Y-106879999D03*
X118658999Y-106879999D03*
%TD*%
D10*
%TO.C,U6*%
X133199999Y-57899999D03*
D12*
X133199999Y-60439999D03*
X133199999Y-62979999D03*
X133199999Y-65519999D03*
X133199999Y-68059999D03*
X133199999Y-70599999D03*
X133199999Y-73139999D03*
X140819999Y-73139999D03*
X140819999Y-70599999D03*
X140819999Y-68059999D03*
X140819999Y-65519999D03*
X140819999Y-62979999D03*
X140819999Y-60439999D03*
X140819999Y-57899999D03*
%TD*%
D13*
%TO.C,J6*%
X131230999Y-120141999D03*
D14*
X133770999Y-120141999D03*
X136230999Y-120141999D03*
%TD*%
D18*
%TO.C,J7*%
X122409999Y-80470999D03*
X122409999Y-82970999D03*
D19*
X117409999Y-85470999D03*
D18*
X122409999Y-90470999D03*
X122409999Y-87970999D03*
%TD*%
D11*
%TO.C,R3*%
X147828000Y-95123000D03*
D12*
X147827999Y-105282999D03*
%TD*%
D10*
%TO.C,U1*%
X145299999Y-58042999D03*
D12*
X145299999Y-60582999D03*
X145299999Y-63122999D03*
X145299999Y-65662999D03*
X145299999Y-68202999D03*
X145299999Y-70742999D03*
X145299999Y-73282999D03*
X152919999Y-73282999D03*
X152919999Y-70742999D03*
X152919999Y-68202999D03*
X152919999Y-65662999D03*
X152919999Y-63122999D03*
X152919999Y-60582999D03*
X152919999Y-58042999D03*
%TD*%
D11*
%TO.C,R4*%
X147828000Y-108585000D03*
D12*
X147827999Y-118744999D03*
%TD*%
D11*
%TO.C,R1*%
X159258000Y-53086000D03*
D12*
X169417999Y-53085999D03*
%TD*%
D13*
%TO.C,J5*%
X147700999Y-87883999D03*
D14*
X150240999Y-87883999D03*
%TD*%
D13*
%TO.C,J4*%
X138533999Y-78739999D03*
D14*
X141073999Y-78739999D03*
X138533999Y-81279999D03*
X141073999Y-81279999D03*
X138533999Y-83819999D03*
X141073999Y-83819999D03*
X138533999Y-86359999D03*
X141073999Y-86359999D03*
X138533999Y-88899999D03*
X141073999Y-88899999D03*
%TD*%
D11*
%TO.C,R2*%
X154940000Y-53086000D03*
D12*
X144779999Y-53085999D03*
%TD*%
D10*
%TO.C,C7*%
X129860099Y-89026999D03*
D11*
X127860100Y-89027000D03*
%TD*%
D15*
%TO.C,H1*%
X116713000Y-119507000D03*
%TD*%
D11*
%TO.C,C3*%
X151130000Y-102500000D03*
X151130000Y-97500000D03*
%TD*%
M02*
