%TF.GenerationSoftware,KiCad,Pcbnew,(7.0.0)*%
%TF.CreationDate,2023-03-05T15:20:25+10:30*%
%TF.ProjectId,SoundRAM,536f756e-6452-4414-9d2e-6b696361645f,rev?*%
%TF.SameCoordinates,Original*%
%TF.FileFunction,Legend,Top*%
%TF.FilePolarity,Positive*%
%FSLAX46Y46*%
G04 Gerber Fmt 4.6, Leading zero omitted, Abs format (unit mm)*
G04 Created by KiCad (PCBNEW (7.0.0)) date 2023-03-05 15:20:25*
%MOMM*%
%LPD*%
G01*
G04 APERTURE LIST*
%ADD10C,0.150000*%
%ADD11C,0.100000*%
%ADD12C,0.300000*%
%ADD13C,0.120000*%
G04 APERTURE END LIST*
D10*
X120634095Y-55916380D02*
X120634095Y-54916380D01*
X121062666Y-55916380D02*
X121062666Y-55392571D01*
X121062666Y-55392571D02*
X121015047Y-55297333D01*
X121015047Y-55297333D02*
X120919809Y-55249714D01*
X120919809Y-55249714D02*
X120776952Y-55249714D01*
X120776952Y-55249714D02*
X120681714Y-55297333D01*
X120681714Y-55297333D02*
X120634095Y-55344952D01*
X121396000Y-55249714D02*
X121776952Y-55249714D01*
X121538857Y-54916380D02*
X121538857Y-55773523D01*
X121538857Y-55773523D02*
X121586476Y-55868761D01*
X121586476Y-55868761D02*
X121681714Y-55916380D01*
X121681714Y-55916380D02*
X121776952Y-55916380D01*
X121967429Y-55249714D02*
X122348381Y-55249714D01*
X122110286Y-54916380D02*
X122110286Y-55773523D01*
X122110286Y-55773523D02*
X122157905Y-55868761D01*
X122157905Y-55868761D02*
X122253143Y-55916380D01*
X122253143Y-55916380D02*
X122348381Y-55916380D01*
X122681715Y-55249714D02*
X122681715Y-56249714D01*
X122681715Y-55297333D02*
X122776953Y-55249714D01*
X122776953Y-55249714D02*
X122967429Y-55249714D01*
X122967429Y-55249714D02*
X123062667Y-55297333D01*
X123062667Y-55297333D02*
X123110286Y-55344952D01*
X123110286Y-55344952D02*
X123157905Y-55440190D01*
X123157905Y-55440190D02*
X123157905Y-55725904D01*
X123157905Y-55725904D02*
X123110286Y-55821142D01*
X123110286Y-55821142D02*
X123062667Y-55868761D01*
X123062667Y-55868761D02*
X122967429Y-55916380D01*
X122967429Y-55916380D02*
X122776953Y-55916380D01*
X122776953Y-55916380D02*
X122681715Y-55868761D01*
X123538858Y-55868761D02*
X123634096Y-55916380D01*
X123634096Y-55916380D02*
X123824572Y-55916380D01*
X123824572Y-55916380D02*
X123919810Y-55868761D01*
X123919810Y-55868761D02*
X123967429Y-55773523D01*
X123967429Y-55773523D02*
X123967429Y-55725904D01*
X123967429Y-55725904D02*
X123919810Y-55630666D01*
X123919810Y-55630666D02*
X123824572Y-55583047D01*
X123824572Y-55583047D02*
X123681715Y-55583047D01*
X123681715Y-55583047D02*
X123586477Y-55535428D01*
X123586477Y-55535428D02*
X123538858Y-55440190D01*
X123538858Y-55440190D02*
X123538858Y-55392571D01*
X123538858Y-55392571D02*
X123586477Y-55297333D01*
X123586477Y-55297333D02*
X123681715Y-55249714D01*
X123681715Y-55249714D02*
X123824572Y-55249714D01*
X123824572Y-55249714D02*
X123919810Y-55297333D01*
X124396001Y-55821142D02*
X124443620Y-55868761D01*
X124443620Y-55868761D02*
X124396001Y-55916380D01*
X124396001Y-55916380D02*
X124348382Y-55868761D01*
X124348382Y-55868761D02*
X124396001Y-55821142D01*
X124396001Y-55821142D02*
X124396001Y-55916380D01*
X124396001Y-55297333D02*
X124443620Y-55344952D01*
X124443620Y-55344952D02*
X124396001Y-55392571D01*
X124396001Y-55392571D02*
X124348382Y-55344952D01*
X124348382Y-55344952D02*
X124396001Y-55297333D01*
X124396001Y-55297333D02*
X124396001Y-55392571D01*
X125586476Y-54868761D02*
X124729334Y-56154476D01*
X126634095Y-54868761D02*
X125776953Y-56154476D01*
X127396000Y-55249714D02*
X127396000Y-56059238D01*
X127396000Y-56059238D02*
X127348381Y-56154476D01*
X127348381Y-56154476D02*
X127300762Y-56202095D01*
X127300762Y-56202095D02*
X127205524Y-56249714D01*
X127205524Y-56249714D02*
X127062667Y-56249714D01*
X127062667Y-56249714D02*
X126967429Y-56202095D01*
X127396000Y-55868761D02*
X127300762Y-55916380D01*
X127300762Y-55916380D02*
X127110286Y-55916380D01*
X127110286Y-55916380D02*
X127015048Y-55868761D01*
X127015048Y-55868761D02*
X126967429Y-55821142D01*
X126967429Y-55821142D02*
X126919810Y-55725904D01*
X126919810Y-55725904D02*
X126919810Y-55440190D01*
X126919810Y-55440190D02*
X126967429Y-55344952D01*
X126967429Y-55344952D02*
X127015048Y-55297333D01*
X127015048Y-55297333D02*
X127110286Y-55249714D01*
X127110286Y-55249714D02*
X127300762Y-55249714D01*
X127300762Y-55249714D02*
X127396000Y-55297333D01*
X127872191Y-55916380D02*
X127872191Y-55249714D01*
X127872191Y-54916380D02*
X127824572Y-54964000D01*
X127824572Y-54964000D02*
X127872191Y-55011619D01*
X127872191Y-55011619D02*
X127919810Y-54964000D01*
X127919810Y-54964000D02*
X127872191Y-54916380D01*
X127872191Y-54916380D02*
X127872191Y-55011619D01*
X128205524Y-55249714D02*
X128586476Y-55249714D01*
X128348381Y-54916380D02*
X128348381Y-55773523D01*
X128348381Y-55773523D02*
X128396000Y-55868761D01*
X128396000Y-55868761D02*
X128491238Y-55916380D01*
X128491238Y-55916380D02*
X128586476Y-55916380D01*
X128919810Y-55916380D02*
X128919810Y-54916380D01*
X129348381Y-55916380D02*
X129348381Y-55392571D01*
X129348381Y-55392571D02*
X129300762Y-55297333D01*
X129300762Y-55297333D02*
X129205524Y-55249714D01*
X129205524Y-55249714D02*
X129062667Y-55249714D01*
X129062667Y-55249714D02*
X128967429Y-55297333D01*
X128967429Y-55297333D02*
X128919810Y-55344952D01*
X130253143Y-55249714D02*
X130253143Y-55916380D01*
X129824572Y-55249714D02*
X129824572Y-55773523D01*
X129824572Y-55773523D02*
X129872191Y-55868761D01*
X129872191Y-55868761D02*
X129967429Y-55916380D01*
X129967429Y-55916380D02*
X130110286Y-55916380D01*
X130110286Y-55916380D02*
X130205524Y-55868761D01*
X130205524Y-55868761D02*
X130253143Y-55821142D01*
X130729334Y-55916380D02*
X130729334Y-54916380D01*
X130729334Y-55297333D02*
X130824572Y-55249714D01*
X130824572Y-55249714D02*
X131015048Y-55249714D01*
X131015048Y-55249714D02*
X131110286Y-55297333D01*
X131110286Y-55297333D02*
X131157905Y-55344952D01*
X131157905Y-55344952D02*
X131205524Y-55440190D01*
X131205524Y-55440190D02*
X131205524Y-55725904D01*
X131205524Y-55725904D02*
X131157905Y-55821142D01*
X131157905Y-55821142D02*
X131110286Y-55868761D01*
X131110286Y-55868761D02*
X131015048Y-55916380D01*
X131015048Y-55916380D02*
X130824572Y-55916380D01*
X130824572Y-55916380D02*
X130729334Y-55868761D01*
X131634096Y-55821142D02*
X131681715Y-55868761D01*
X131681715Y-55868761D02*
X131634096Y-55916380D01*
X131634096Y-55916380D02*
X131586477Y-55868761D01*
X131586477Y-55868761D02*
X131634096Y-55821142D01*
X131634096Y-55821142D02*
X131634096Y-55916380D01*
X132538857Y-55868761D02*
X132443619Y-55916380D01*
X132443619Y-55916380D02*
X132253143Y-55916380D01*
X132253143Y-55916380D02*
X132157905Y-55868761D01*
X132157905Y-55868761D02*
X132110286Y-55821142D01*
X132110286Y-55821142D02*
X132062667Y-55725904D01*
X132062667Y-55725904D02*
X132062667Y-55440190D01*
X132062667Y-55440190D02*
X132110286Y-55344952D01*
X132110286Y-55344952D02*
X132157905Y-55297333D01*
X132157905Y-55297333D02*
X132253143Y-55249714D01*
X132253143Y-55249714D02*
X132443619Y-55249714D01*
X132443619Y-55249714D02*
X132538857Y-55297333D01*
X133110286Y-55916380D02*
X133015048Y-55868761D01*
X133015048Y-55868761D02*
X132967429Y-55821142D01*
X132967429Y-55821142D02*
X132919810Y-55725904D01*
X132919810Y-55725904D02*
X132919810Y-55440190D01*
X132919810Y-55440190D02*
X132967429Y-55344952D01*
X132967429Y-55344952D02*
X133015048Y-55297333D01*
X133015048Y-55297333D02*
X133110286Y-55249714D01*
X133110286Y-55249714D02*
X133253143Y-55249714D01*
X133253143Y-55249714D02*
X133348381Y-55297333D01*
X133348381Y-55297333D02*
X133396000Y-55344952D01*
X133396000Y-55344952D02*
X133443619Y-55440190D01*
X133443619Y-55440190D02*
X133443619Y-55725904D01*
X133443619Y-55725904D02*
X133396000Y-55821142D01*
X133396000Y-55821142D02*
X133348381Y-55868761D01*
X133348381Y-55868761D02*
X133253143Y-55916380D01*
X133253143Y-55916380D02*
X133110286Y-55916380D01*
X133872191Y-55916380D02*
X133872191Y-55249714D01*
X133872191Y-55344952D02*
X133919810Y-55297333D01*
X133919810Y-55297333D02*
X134015048Y-55249714D01*
X134015048Y-55249714D02*
X134157905Y-55249714D01*
X134157905Y-55249714D02*
X134253143Y-55297333D01*
X134253143Y-55297333D02*
X134300762Y-55392571D01*
X134300762Y-55392571D02*
X134300762Y-55916380D01*
X134300762Y-55392571D02*
X134348381Y-55297333D01*
X134348381Y-55297333D02*
X134443619Y-55249714D01*
X134443619Y-55249714D02*
X134586476Y-55249714D01*
X134586476Y-55249714D02*
X134681715Y-55297333D01*
X134681715Y-55297333D02*
X134729334Y-55392571D01*
X134729334Y-55392571D02*
X134729334Y-55916380D01*
X135919809Y-54868761D02*
X135062667Y-56154476D01*
X136776952Y-55916380D02*
X136205524Y-55916380D01*
X136491238Y-55916380D02*
X136491238Y-54916380D01*
X136491238Y-54916380D02*
X136396000Y-55059238D01*
X136396000Y-55059238D02*
X136300762Y-55154476D01*
X136300762Y-55154476D02*
X136205524Y-55202095D01*
X137253143Y-55916380D02*
X137443619Y-55916380D01*
X137443619Y-55916380D02*
X137538857Y-55868761D01*
X137538857Y-55868761D02*
X137586476Y-55821142D01*
X137586476Y-55821142D02*
X137681714Y-55678285D01*
X137681714Y-55678285D02*
X137729333Y-55487809D01*
X137729333Y-55487809D02*
X137729333Y-55106857D01*
X137729333Y-55106857D02*
X137681714Y-55011619D01*
X137681714Y-55011619D02*
X137634095Y-54964000D01*
X137634095Y-54964000D02*
X137538857Y-54916380D01*
X137538857Y-54916380D02*
X137348381Y-54916380D01*
X137348381Y-54916380D02*
X137253143Y-54964000D01*
X137253143Y-54964000D02*
X137205524Y-55011619D01*
X137205524Y-55011619D02*
X137157905Y-55106857D01*
X137157905Y-55106857D02*
X137157905Y-55344952D01*
X137157905Y-55344952D02*
X137205524Y-55440190D01*
X137205524Y-55440190D02*
X137253143Y-55487809D01*
X137253143Y-55487809D02*
X137348381Y-55535428D01*
X137348381Y-55535428D02*
X137538857Y-55535428D01*
X137538857Y-55535428D02*
X137634095Y-55487809D01*
X137634095Y-55487809D02*
X137681714Y-55440190D01*
X137681714Y-55440190D02*
X137729333Y-55344952D01*
X138062667Y-54916380D02*
X138729333Y-54916380D01*
X138729333Y-54916380D02*
X138300762Y-55916380D01*
X139634095Y-55916380D02*
X139062667Y-55916380D01*
X139348381Y-55916380D02*
X139348381Y-54916380D01*
X139348381Y-54916380D02*
X139253143Y-55059238D01*
X139253143Y-55059238D02*
X139157905Y-55154476D01*
X139157905Y-55154476D02*
X139062667Y-55202095D01*
X140062667Y-55916380D02*
X140062667Y-54916380D01*
X140062667Y-54916380D02*
X140396000Y-55630666D01*
X140396000Y-55630666D02*
X140729333Y-54916380D01*
X140729333Y-54916380D02*
X140729333Y-55916380D01*
X141586476Y-55868761D02*
X141491238Y-55916380D01*
X141491238Y-55916380D02*
X141300762Y-55916380D01*
X141300762Y-55916380D02*
X141205524Y-55868761D01*
X141205524Y-55868761D02*
X141157905Y-55773523D01*
X141157905Y-55773523D02*
X141157905Y-55392571D01*
X141157905Y-55392571D02*
X141205524Y-55297333D01*
X141205524Y-55297333D02*
X141300762Y-55249714D01*
X141300762Y-55249714D02*
X141491238Y-55249714D01*
X141491238Y-55249714D02*
X141586476Y-55297333D01*
X141586476Y-55297333D02*
X141634095Y-55392571D01*
X141634095Y-55392571D02*
X141634095Y-55487809D01*
X141634095Y-55487809D02*
X141157905Y-55583047D01*
X142062667Y-55916380D02*
X142062667Y-55249714D01*
X142062667Y-55440190D02*
X142110286Y-55344952D01*
X142110286Y-55344952D02*
X142157905Y-55297333D01*
X142157905Y-55297333D02*
X142253143Y-55249714D01*
X142253143Y-55249714D02*
X142348381Y-55249714D01*
X142824572Y-55916380D02*
X142729334Y-55868761D01*
X142729334Y-55868761D02*
X142681715Y-55773523D01*
X142681715Y-55773523D02*
X142681715Y-54916380D01*
X143205525Y-55916380D02*
X143205525Y-55249714D01*
X143205525Y-54916380D02*
X143157906Y-54964000D01*
X143157906Y-54964000D02*
X143205525Y-55011619D01*
X143205525Y-55011619D02*
X143253144Y-54964000D01*
X143253144Y-54964000D02*
X143205525Y-54916380D01*
X143205525Y-54916380D02*
X143205525Y-55011619D01*
X143681715Y-55249714D02*
X143681715Y-55916380D01*
X143681715Y-55344952D02*
X143729334Y-55297333D01*
X143729334Y-55297333D02*
X143824572Y-55249714D01*
X143824572Y-55249714D02*
X143967429Y-55249714D01*
X143967429Y-55249714D02*
X144062667Y-55297333D01*
X144062667Y-55297333D02*
X144110286Y-55392571D01*
X144110286Y-55392571D02*
X144110286Y-55916380D01*
X145300762Y-54868761D02*
X144443620Y-56154476D01*
X145586477Y-55868761D02*
X145729334Y-55916380D01*
X145729334Y-55916380D02*
X145967429Y-55916380D01*
X145967429Y-55916380D02*
X146062667Y-55868761D01*
X146062667Y-55868761D02*
X146110286Y-55821142D01*
X146110286Y-55821142D02*
X146157905Y-55725904D01*
X146157905Y-55725904D02*
X146157905Y-55630666D01*
X146157905Y-55630666D02*
X146110286Y-55535428D01*
X146110286Y-55535428D02*
X146062667Y-55487809D01*
X146062667Y-55487809D02*
X145967429Y-55440190D01*
X145967429Y-55440190D02*
X145776953Y-55392571D01*
X145776953Y-55392571D02*
X145681715Y-55344952D01*
X145681715Y-55344952D02*
X145634096Y-55297333D01*
X145634096Y-55297333D02*
X145586477Y-55202095D01*
X145586477Y-55202095D02*
X145586477Y-55106857D01*
X145586477Y-55106857D02*
X145634096Y-55011619D01*
X145634096Y-55011619D02*
X145681715Y-54964000D01*
X145681715Y-54964000D02*
X145776953Y-54916380D01*
X145776953Y-54916380D02*
X146015048Y-54916380D01*
X146015048Y-54916380D02*
X146157905Y-54964000D01*
X146729334Y-55916380D02*
X146634096Y-55868761D01*
X146634096Y-55868761D02*
X146586477Y-55821142D01*
X146586477Y-55821142D02*
X146538858Y-55725904D01*
X146538858Y-55725904D02*
X146538858Y-55440190D01*
X146538858Y-55440190D02*
X146586477Y-55344952D01*
X146586477Y-55344952D02*
X146634096Y-55297333D01*
X146634096Y-55297333D02*
X146729334Y-55249714D01*
X146729334Y-55249714D02*
X146872191Y-55249714D01*
X146872191Y-55249714D02*
X146967429Y-55297333D01*
X146967429Y-55297333D02*
X147015048Y-55344952D01*
X147015048Y-55344952D02*
X147062667Y-55440190D01*
X147062667Y-55440190D02*
X147062667Y-55725904D01*
X147062667Y-55725904D02*
X147015048Y-55821142D01*
X147015048Y-55821142D02*
X146967429Y-55868761D01*
X146967429Y-55868761D02*
X146872191Y-55916380D01*
X146872191Y-55916380D02*
X146729334Y-55916380D01*
X147919810Y-55249714D02*
X147919810Y-55916380D01*
X147491239Y-55249714D02*
X147491239Y-55773523D01*
X147491239Y-55773523D02*
X147538858Y-55868761D01*
X147538858Y-55868761D02*
X147634096Y-55916380D01*
X147634096Y-55916380D02*
X147776953Y-55916380D01*
X147776953Y-55916380D02*
X147872191Y-55868761D01*
X147872191Y-55868761D02*
X147919810Y-55821142D01*
X148396001Y-55249714D02*
X148396001Y-55916380D01*
X148396001Y-55344952D02*
X148443620Y-55297333D01*
X148443620Y-55297333D02*
X148538858Y-55249714D01*
X148538858Y-55249714D02*
X148681715Y-55249714D01*
X148681715Y-55249714D02*
X148776953Y-55297333D01*
X148776953Y-55297333D02*
X148824572Y-55392571D01*
X148824572Y-55392571D02*
X148824572Y-55916380D01*
X149729334Y-55916380D02*
X149729334Y-54916380D01*
X149729334Y-55868761D02*
X149634096Y-55916380D01*
X149634096Y-55916380D02*
X149443620Y-55916380D01*
X149443620Y-55916380D02*
X149348382Y-55868761D01*
X149348382Y-55868761D02*
X149300763Y-55821142D01*
X149300763Y-55821142D02*
X149253144Y-55725904D01*
X149253144Y-55725904D02*
X149253144Y-55440190D01*
X149253144Y-55440190D02*
X149300763Y-55344952D01*
X149300763Y-55344952D02*
X149348382Y-55297333D01*
X149348382Y-55297333D02*
X149443620Y-55249714D01*
X149443620Y-55249714D02*
X149634096Y-55249714D01*
X149634096Y-55249714D02*
X149729334Y-55297333D01*
X150776953Y-55916380D02*
X150443620Y-55440190D01*
X150205525Y-55916380D02*
X150205525Y-54916380D01*
X150205525Y-54916380D02*
X150586477Y-54916380D01*
X150586477Y-54916380D02*
X150681715Y-54964000D01*
X150681715Y-54964000D02*
X150729334Y-55011619D01*
X150729334Y-55011619D02*
X150776953Y-55106857D01*
X150776953Y-55106857D02*
X150776953Y-55249714D01*
X150776953Y-55249714D02*
X150729334Y-55344952D01*
X150729334Y-55344952D02*
X150681715Y-55392571D01*
X150681715Y-55392571D02*
X150586477Y-55440190D01*
X150586477Y-55440190D02*
X150205525Y-55440190D01*
X151157906Y-55630666D02*
X151634096Y-55630666D01*
X151062668Y-55916380D02*
X151396001Y-54916380D01*
X151396001Y-54916380D02*
X151729334Y-55916380D01*
X152062668Y-55916380D02*
X152062668Y-54916380D01*
X152062668Y-54916380D02*
X152396001Y-55630666D01*
X152396001Y-55630666D02*
X152729334Y-54916380D01*
X152729334Y-54916380D02*
X152729334Y-55916380D01*
X175387000Y-112268000D02*
X175387000Y-111506000D01*
X175387000Y-115062000D02*
X175387000Y-114300000D01*
X152146000Y-107315000D02*
X152146000Y-108077000D01*
X175387000Y-111506000D02*
X174625000Y-111506000D01*
X186944000Y-50419000D02*
X113792000Y-50419000D01*
X113792000Y-122428000D02*
X186944000Y-122428000D01*
X152908000Y-107315000D02*
X152146000Y-107315000D01*
X174625000Y-115062000D02*
X175387000Y-115062000D01*
X152908000Y-111506000D02*
X152146000Y-111506000D01*
X186944000Y-122428000D02*
X186944000Y-50419000D01*
X175387000Y-110871000D02*
X175387000Y-110109000D01*
X175387000Y-112395000D02*
X175387000Y-111506000D01*
X113792000Y-122428000D02*
X113792000Y-91948000D01*
X175387000Y-108204000D02*
X175387000Y-107315000D01*
X175387000Y-111506000D02*
X174625000Y-111506000D01*
D11*
X161417000Y-109855000D02*
X163703000Y-109855000D01*
X163703000Y-109855000D02*
X163703000Y-114808000D01*
X163703000Y-114808000D02*
X161417000Y-114808000D01*
X161417000Y-114808000D02*
X161417000Y-109855000D01*
D10*
X152146000Y-111506000D02*
X152146000Y-112268000D01*
X152146000Y-110871000D02*
X152908000Y-110871000D01*
X152146000Y-115062000D02*
X152908000Y-115062000D01*
X175387000Y-107315000D02*
X174625000Y-107315000D01*
X113792000Y-50419000D02*
X113792000Y-78994000D01*
X152146000Y-114173000D02*
X152146000Y-115062000D01*
X174625000Y-110871000D02*
X175387000Y-110871000D01*
X152146000Y-110871000D02*
X152908000Y-110871000D01*
X152146000Y-110109000D02*
X152146000Y-110871000D01*
D11*
X158750000Y-107442000D02*
X161163000Y-107442000D01*
X161163000Y-107442000D02*
X161163000Y-112395000D01*
X161163000Y-112395000D02*
X158750000Y-112395000D01*
X158750000Y-112395000D02*
X158750000Y-107442000D01*
D10*
X152146000Y-109982000D02*
X152146000Y-110871000D01*
X132550238Y-81647380D02*
X132550238Y-80647380D01*
X133026428Y-81647380D02*
X133026428Y-80647380D01*
X133026428Y-80647380D02*
X133597856Y-81647380D01*
X133597856Y-81647380D02*
X133597856Y-80647380D01*
X133931190Y-80647380D02*
X134502618Y-80647380D01*
X134216904Y-81647380D02*
X134216904Y-80647380D01*
X135550237Y-80599761D02*
X134693095Y-81885476D01*
X135835952Y-80742619D02*
X135883571Y-80695000D01*
X135883571Y-80695000D02*
X135978809Y-80647380D01*
X135978809Y-80647380D02*
X136216904Y-80647380D01*
X136216904Y-80647380D02*
X136312142Y-80695000D01*
X136312142Y-80695000D02*
X136359761Y-80742619D01*
X136359761Y-80742619D02*
X136407380Y-80837857D01*
X136407380Y-80837857D02*
X136407380Y-80933095D01*
X136407380Y-80933095D02*
X136359761Y-81075952D01*
X136359761Y-81075952D02*
X135788333Y-81647380D01*
X135788333Y-81647380D02*
X136407380Y-81647380D01*
X152605226Y-108706094D02*
X152605226Y-109301332D01*
X152605226Y-109301332D02*
X151355226Y-109301332D01*
X154747618Y-116032714D02*
X154747618Y-116699380D01*
X154509523Y-115651761D02*
X154271428Y-116366047D01*
X154271428Y-116366047D02*
X154890475Y-116366047D01*
X155461904Y-115699380D02*
X155557142Y-115699380D01*
X155557142Y-115699380D02*
X155652380Y-115747000D01*
X155652380Y-115747000D02*
X155699999Y-115794619D01*
X155699999Y-115794619D02*
X155747618Y-115889857D01*
X155747618Y-115889857D02*
X155795237Y-116080333D01*
X155795237Y-116080333D02*
X155795237Y-116318428D01*
X155795237Y-116318428D02*
X155747618Y-116508904D01*
X155747618Y-116508904D02*
X155699999Y-116604142D01*
X155699999Y-116604142D02*
X155652380Y-116651761D01*
X155652380Y-116651761D02*
X155557142Y-116699380D01*
X155557142Y-116699380D02*
X155461904Y-116699380D01*
X155461904Y-116699380D02*
X155366666Y-116651761D01*
X155366666Y-116651761D02*
X155319047Y-116604142D01*
X155319047Y-116604142D02*
X155271428Y-116508904D01*
X155271428Y-116508904D02*
X155223809Y-116318428D01*
X155223809Y-116318428D02*
X155223809Y-116080333D01*
X155223809Y-116080333D02*
X155271428Y-115889857D01*
X155271428Y-115889857D02*
X155319047Y-115794619D01*
X155319047Y-115794619D02*
X155366666Y-115747000D01*
X155366666Y-115747000D02*
X155461904Y-115699380D01*
X157252380Y-116032714D02*
X157252380Y-116699380D01*
X157014285Y-115651761D02*
X156776190Y-116366047D01*
X156776190Y-116366047D02*
X157395237Y-116366047D01*
X157919047Y-116127952D02*
X157823809Y-116080333D01*
X157823809Y-116080333D02*
X157776190Y-116032714D01*
X157776190Y-116032714D02*
X157728571Y-115937476D01*
X157728571Y-115937476D02*
X157728571Y-115889857D01*
X157728571Y-115889857D02*
X157776190Y-115794619D01*
X157776190Y-115794619D02*
X157823809Y-115747000D01*
X157823809Y-115747000D02*
X157919047Y-115699380D01*
X157919047Y-115699380D02*
X158109523Y-115699380D01*
X158109523Y-115699380D02*
X158204761Y-115747000D01*
X158204761Y-115747000D02*
X158252380Y-115794619D01*
X158252380Y-115794619D02*
X158299999Y-115889857D01*
X158299999Y-115889857D02*
X158299999Y-115937476D01*
X158299999Y-115937476D02*
X158252380Y-116032714D01*
X158252380Y-116032714D02*
X158204761Y-116080333D01*
X158204761Y-116080333D02*
X158109523Y-116127952D01*
X158109523Y-116127952D02*
X157919047Y-116127952D01*
X157919047Y-116127952D02*
X157823809Y-116175571D01*
X157823809Y-116175571D02*
X157776190Y-116223190D01*
X157776190Y-116223190D02*
X157728571Y-116318428D01*
X157728571Y-116318428D02*
X157728571Y-116508904D01*
X157728571Y-116508904D02*
X157776190Y-116604142D01*
X157776190Y-116604142D02*
X157823809Y-116651761D01*
X157823809Y-116651761D02*
X157919047Y-116699380D01*
X157919047Y-116699380D02*
X158109523Y-116699380D01*
X158109523Y-116699380D02*
X158204761Y-116651761D01*
X158204761Y-116651761D02*
X158252380Y-116604142D01*
X158252380Y-116604142D02*
X158299999Y-116508904D01*
X158299999Y-116508904D02*
X158299999Y-116318428D01*
X158299999Y-116318428D02*
X158252380Y-116223190D01*
X158252380Y-116223190D02*
X158204761Y-116175571D01*
X158204761Y-116175571D02*
X158109523Y-116127952D01*
X159804761Y-115699380D02*
X159328571Y-115699380D01*
X159328571Y-115699380D02*
X159280952Y-116175571D01*
X159280952Y-116175571D02*
X159328571Y-116127952D01*
X159328571Y-116127952D02*
X159423809Y-116080333D01*
X159423809Y-116080333D02*
X159661904Y-116080333D01*
X159661904Y-116080333D02*
X159757142Y-116127952D01*
X159757142Y-116127952D02*
X159804761Y-116175571D01*
X159804761Y-116175571D02*
X159852380Y-116270809D01*
X159852380Y-116270809D02*
X159852380Y-116508904D01*
X159852380Y-116508904D02*
X159804761Y-116604142D01*
X159804761Y-116604142D02*
X159757142Y-116651761D01*
X159757142Y-116651761D02*
X159661904Y-116699380D01*
X159661904Y-116699380D02*
X159423809Y-116699380D01*
X159423809Y-116699380D02*
X159328571Y-116651761D01*
X159328571Y-116651761D02*
X159280952Y-116604142D01*
X160471428Y-115699380D02*
X160566666Y-115699380D01*
X160566666Y-115699380D02*
X160661904Y-115747000D01*
X160661904Y-115747000D02*
X160709523Y-115794619D01*
X160709523Y-115794619D02*
X160757142Y-115889857D01*
X160757142Y-115889857D02*
X160804761Y-116080333D01*
X160804761Y-116080333D02*
X160804761Y-116318428D01*
X160804761Y-116318428D02*
X160757142Y-116508904D01*
X160757142Y-116508904D02*
X160709523Y-116604142D01*
X160709523Y-116604142D02*
X160661904Y-116651761D01*
X160661904Y-116651761D02*
X160566666Y-116699380D01*
X160566666Y-116699380D02*
X160471428Y-116699380D01*
X160471428Y-116699380D02*
X160376190Y-116651761D01*
X160376190Y-116651761D02*
X160328571Y-116604142D01*
X160328571Y-116604142D02*
X160280952Y-116508904D01*
X160280952Y-116508904D02*
X160233333Y-116318428D01*
X160233333Y-116318428D02*
X160233333Y-116080333D01*
X160233333Y-116080333D02*
X160280952Y-115889857D01*
X160280952Y-115889857D02*
X160328571Y-115794619D01*
X160328571Y-115794619D02*
X160376190Y-115747000D01*
X160376190Y-115747000D02*
X160471428Y-115699380D01*
X162309523Y-115699380D02*
X161833333Y-115699380D01*
X161833333Y-115699380D02*
X161785714Y-116175571D01*
X161785714Y-116175571D02*
X161833333Y-116127952D01*
X161833333Y-116127952D02*
X161928571Y-116080333D01*
X161928571Y-116080333D02*
X162166666Y-116080333D01*
X162166666Y-116080333D02*
X162261904Y-116127952D01*
X162261904Y-116127952D02*
X162309523Y-116175571D01*
X162309523Y-116175571D02*
X162357142Y-116270809D01*
X162357142Y-116270809D02*
X162357142Y-116508904D01*
X162357142Y-116508904D02*
X162309523Y-116604142D01*
X162309523Y-116604142D02*
X162261904Y-116651761D01*
X162261904Y-116651761D02*
X162166666Y-116699380D01*
X162166666Y-116699380D02*
X161928571Y-116699380D01*
X161928571Y-116699380D02*
X161833333Y-116651761D01*
X161833333Y-116651761D02*
X161785714Y-116604142D01*
X162928571Y-116127952D02*
X162833333Y-116080333D01*
X162833333Y-116080333D02*
X162785714Y-116032714D01*
X162785714Y-116032714D02*
X162738095Y-115937476D01*
X162738095Y-115937476D02*
X162738095Y-115889857D01*
X162738095Y-115889857D02*
X162785714Y-115794619D01*
X162785714Y-115794619D02*
X162833333Y-115747000D01*
X162833333Y-115747000D02*
X162928571Y-115699380D01*
X162928571Y-115699380D02*
X163119047Y-115699380D01*
X163119047Y-115699380D02*
X163214285Y-115747000D01*
X163214285Y-115747000D02*
X163261904Y-115794619D01*
X163261904Y-115794619D02*
X163309523Y-115889857D01*
X163309523Y-115889857D02*
X163309523Y-115937476D01*
X163309523Y-115937476D02*
X163261904Y-116032714D01*
X163261904Y-116032714D02*
X163214285Y-116080333D01*
X163214285Y-116080333D02*
X163119047Y-116127952D01*
X163119047Y-116127952D02*
X162928571Y-116127952D01*
X162928571Y-116127952D02*
X162833333Y-116175571D01*
X162833333Y-116175571D02*
X162785714Y-116223190D01*
X162785714Y-116223190D02*
X162738095Y-116318428D01*
X162738095Y-116318428D02*
X162738095Y-116508904D01*
X162738095Y-116508904D02*
X162785714Y-116604142D01*
X162785714Y-116604142D02*
X162833333Y-116651761D01*
X162833333Y-116651761D02*
X162928571Y-116699380D01*
X162928571Y-116699380D02*
X163119047Y-116699380D01*
X163119047Y-116699380D02*
X163214285Y-116651761D01*
X163214285Y-116651761D02*
X163261904Y-116604142D01*
X163261904Y-116604142D02*
X163309523Y-116508904D01*
X163309523Y-116508904D02*
X163309523Y-116318428D01*
X163309523Y-116318428D02*
X163261904Y-116223190D01*
X163261904Y-116223190D02*
X163214285Y-116175571D01*
X163214285Y-116175571D02*
X163119047Y-116127952D01*
X164766666Y-115699380D02*
X164576190Y-115699380D01*
X164576190Y-115699380D02*
X164480952Y-115747000D01*
X164480952Y-115747000D02*
X164433333Y-115794619D01*
X164433333Y-115794619D02*
X164338095Y-115937476D01*
X164338095Y-115937476D02*
X164290476Y-116127952D01*
X164290476Y-116127952D02*
X164290476Y-116508904D01*
X164290476Y-116508904D02*
X164338095Y-116604142D01*
X164338095Y-116604142D02*
X164385714Y-116651761D01*
X164385714Y-116651761D02*
X164480952Y-116699380D01*
X164480952Y-116699380D02*
X164671428Y-116699380D01*
X164671428Y-116699380D02*
X164766666Y-116651761D01*
X164766666Y-116651761D02*
X164814285Y-116604142D01*
X164814285Y-116604142D02*
X164861904Y-116508904D01*
X164861904Y-116508904D02*
X164861904Y-116270809D01*
X164861904Y-116270809D02*
X164814285Y-116175571D01*
X164814285Y-116175571D02*
X164766666Y-116127952D01*
X164766666Y-116127952D02*
X164671428Y-116080333D01*
X164671428Y-116080333D02*
X164480952Y-116080333D01*
X164480952Y-116080333D02*
X164385714Y-116127952D01*
X164385714Y-116127952D02*
X164338095Y-116175571D01*
X164338095Y-116175571D02*
X164290476Y-116270809D01*
X165480952Y-115699380D02*
X165576190Y-115699380D01*
X165576190Y-115699380D02*
X165671428Y-115747000D01*
X165671428Y-115747000D02*
X165719047Y-115794619D01*
X165719047Y-115794619D02*
X165766666Y-115889857D01*
X165766666Y-115889857D02*
X165814285Y-116080333D01*
X165814285Y-116080333D02*
X165814285Y-116318428D01*
X165814285Y-116318428D02*
X165766666Y-116508904D01*
X165766666Y-116508904D02*
X165719047Y-116604142D01*
X165719047Y-116604142D02*
X165671428Y-116651761D01*
X165671428Y-116651761D02*
X165576190Y-116699380D01*
X165576190Y-116699380D02*
X165480952Y-116699380D01*
X165480952Y-116699380D02*
X165385714Y-116651761D01*
X165385714Y-116651761D02*
X165338095Y-116604142D01*
X165338095Y-116604142D02*
X165290476Y-116508904D01*
X165290476Y-116508904D02*
X165242857Y-116318428D01*
X165242857Y-116318428D02*
X165242857Y-116080333D01*
X165242857Y-116080333D02*
X165290476Y-115889857D01*
X165290476Y-115889857D02*
X165338095Y-115794619D01*
X165338095Y-115794619D02*
X165385714Y-115747000D01*
X165385714Y-115747000D02*
X165480952Y-115699380D01*
X167271428Y-115699380D02*
X167080952Y-115699380D01*
X167080952Y-115699380D02*
X166985714Y-115747000D01*
X166985714Y-115747000D02*
X166938095Y-115794619D01*
X166938095Y-115794619D02*
X166842857Y-115937476D01*
X166842857Y-115937476D02*
X166795238Y-116127952D01*
X166795238Y-116127952D02*
X166795238Y-116508904D01*
X166795238Y-116508904D02*
X166842857Y-116604142D01*
X166842857Y-116604142D02*
X166890476Y-116651761D01*
X166890476Y-116651761D02*
X166985714Y-116699380D01*
X166985714Y-116699380D02*
X167176190Y-116699380D01*
X167176190Y-116699380D02*
X167271428Y-116651761D01*
X167271428Y-116651761D02*
X167319047Y-116604142D01*
X167319047Y-116604142D02*
X167366666Y-116508904D01*
X167366666Y-116508904D02*
X167366666Y-116270809D01*
X167366666Y-116270809D02*
X167319047Y-116175571D01*
X167319047Y-116175571D02*
X167271428Y-116127952D01*
X167271428Y-116127952D02*
X167176190Y-116080333D01*
X167176190Y-116080333D02*
X166985714Y-116080333D01*
X166985714Y-116080333D02*
X166890476Y-116127952D01*
X166890476Y-116127952D02*
X166842857Y-116175571D01*
X166842857Y-116175571D02*
X166795238Y-116270809D01*
X167938095Y-116127952D02*
X167842857Y-116080333D01*
X167842857Y-116080333D02*
X167795238Y-116032714D01*
X167795238Y-116032714D02*
X167747619Y-115937476D01*
X167747619Y-115937476D02*
X167747619Y-115889857D01*
X167747619Y-115889857D02*
X167795238Y-115794619D01*
X167795238Y-115794619D02*
X167842857Y-115747000D01*
X167842857Y-115747000D02*
X167938095Y-115699380D01*
X167938095Y-115699380D02*
X168128571Y-115699380D01*
X168128571Y-115699380D02*
X168223809Y-115747000D01*
X168223809Y-115747000D02*
X168271428Y-115794619D01*
X168271428Y-115794619D02*
X168319047Y-115889857D01*
X168319047Y-115889857D02*
X168319047Y-115937476D01*
X168319047Y-115937476D02*
X168271428Y-116032714D01*
X168271428Y-116032714D02*
X168223809Y-116080333D01*
X168223809Y-116080333D02*
X168128571Y-116127952D01*
X168128571Y-116127952D02*
X167938095Y-116127952D01*
X167938095Y-116127952D02*
X167842857Y-116175571D01*
X167842857Y-116175571D02*
X167795238Y-116223190D01*
X167795238Y-116223190D02*
X167747619Y-116318428D01*
X167747619Y-116318428D02*
X167747619Y-116508904D01*
X167747619Y-116508904D02*
X167795238Y-116604142D01*
X167795238Y-116604142D02*
X167842857Y-116651761D01*
X167842857Y-116651761D02*
X167938095Y-116699380D01*
X167938095Y-116699380D02*
X168128571Y-116699380D01*
X168128571Y-116699380D02*
X168223809Y-116651761D01*
X168223809Y-116651761D02*
X168271428Y-116604142D01*
X168271428Y-116604142D02*
X168319047Y-116508904D01*
X168319047Y-116508904D02*
X168319047Y-116318428D01*
X168319047Y-116318428D02*
X168271428Y-116223190D01*
X168271428Y-116223190D02*
X168223809Y-116175571D01*
X168223809Y-116175571D02*
X168128571Y-116127952D01*
X169252381Y-115699380D02*
X169919047Y-115699380D01*
X169919047Y-115699380D02*
X169490476Y-116699380D01*
X170490476Y-115699380D02*
X170585714Y-115699380D01*
X170585714Y-115699380D02*
X170680952Y-115747000D01*
X170680952Y-115747000D02*
X170728571Y-115794619D01*
X170728571Y-115794619D02*
X170776190Y-115889857D01*
X170776190Y-115889857D02*
X170823809Y-116080333D01*
X170823809Y-116080333D02*
X170823809Y-116318428D01*
X170823809Y-116318428D02*
X170776190Y-116508904D01*
X170776190Y-116508904D02*
X170728571Y-116604142D01*
X170728571Y-116604142D02*
X170680952Y-116651761D01*
X170680952Y-116651761D02*
X170585714Y-116699380D01*
X170585714Y-116699380D02*
X170490476Y-116699380D01*
X170490476Y-116699380D02*
X170395238Y-116651761D01*
X170395238Y-116651761D02*
X170347619Y-116604142D01*
X170347619Y-116604142D02*
X170300000Y-116508904D01*
X170300000Y-116508904D02*
X170252381Y-116318428D01*
X170252381Y-116318428D02*
X170252381Y-116080333D01*
X170252381Y-116080333D02*
X170300000Y-115889857D01*
X170300000Y-115889857D02*
X170347619Y-115794619D01*
X170347619Y-115794619D02*
X170395238Y-115747000D01*
X170395238Y-115747000D02*
X170490476Y-115699380D01*
X171757143Y-115699380D02*
X172423809Y-115699380D01*
X172423809Y-115699380D02*
X171995238Y-116699380D01*
X172947619Y-116127952D02*
X172852381Y-116080333D01*
X172852381Y-116080333D02*
X172804762Y-116032714D01*
X172804762Y-116032714D02*
X172757143Y-115937476D01*
X172757143Y-115937476D02*
X172757143Y-115889857D01*
X172757143Y-115889857D02*
X172804762Y-115794619D01*
X172804762Y-115794619D02*
X172852381Y-115747000D01*
X172852381Y-115747000D02*
X172947619Y-115699380D01*
X172947619Y-115699380D02*
X173138095Y-115699380D01*
X173138095Y-115699380D02*
X173233333Y-115747000D01*
X173233333Y-115747000D02*
X173280952Y-115794619D01*
X173280952Y-115794619D02*
X173328571Y-115889857D01*
X173328571Y-115889857D02*
X173328571Y-115937476D01*
X173328571Y-115937476D02*
X173280952Y-116032714D01*
X173280952Y-116032714D02*
X173233333Y-116080333D01*
X173233333Y-116080333D02*
X173138095Y-116127952D01*
X173138095Y-116127952D02*
X172947619Y-116127952D01*
X172947619Y-116127952D02*
X172852381Y-116175571D01*
X172852381Y-116175571D02*
X172804762Y-116223190D01*
X172804762Y-116223190D02*
X172757143Y-116318428D01*
X172757143Y-116318428D02*
X172757143Y-116508904D01*
X172757143Y-116508904D02*
X172804762Y-116604142D01*
X172804762Y-116604142D02*
X172852381Y-116651761D01*
X172852381Y-116651761D02*
X172947619Y-116699380D01*
X172947619Y-116699380D02*
X173138095Y-116699380D01*
X173138095Y-116699380D02*
X173233333Y-116651761D01*
X173233333Y-116651761D02*
X173280952Y-116604142D01*
X173280952Y-116604142D02*
X173328571Y-116508904D01*
X173328571Y-116508904D02*
X173328571Y-116318428D01*
X173328571Y-116318428D02*
X173280952Y-116223190D01*
X173280952Y-116223190D02*
X173233333Y-116175571D01*
X173233333Y-116175571D02*
X173138095Y-116127952D01*
X135813857Y-118013000D02*
X135756715Y-117984428D01*
X135756715Y-117984428D02*
X135671000Y-117984428D01*
X135671000Y-117984428D02*
X135585286Y-118013000D01*
X135585286Y-118013000D02*
X135528143Y-118070142D01*
X135528143Y-118070142D02*
X135499572Y-118127285D01*
X135499572Y-118127285D02*
X135471000Y-118241571D01*
X135471000Y-118241571D02*
X135471000Y-118327285D01*
X135471000Y-118327285D02*
X135499572Y-118441571D01*
X135499572Y-118441571D02*
X135528143Y-118498714D01*
X135528143Y-118498714D02*
X135585286Y-118555857D01*
X135585286Y-118555857D02*
X135671000Y-118584428D01*
X135671000Y-118584428D02*
X135728143Y-118584428D01*
X135728143Y-118584428D02*
X135813857Y-118555857D01*
X135813857Y-118555857D02*
X135842429Y-118527285D01*
X135842429Y-118527285D02*
X135842429Y-118327285D01*
X135842429Y-118327285D02*
X135728143Y-118327285D01*
X136099572Y-118584428D02*
X136099572Y-117984428D01*
X136099572Y-117984428D02*
X136442429Y-118584428D01*
X136442429Y-118584428D02*
X136442429Y-117984428D01*
X136728143Y-118584428D02*
X136728143Y-117984428D01*
X136728143Y-117984428D02*
X136871000Y-117984428D01*
X136871000Y-117984428D02*
X136956714Y-118013000D01*
X136956714Y-118013000D02*
X137013857Y-118070142D01*
X137013857Y-118070142D02*
X137042428Y-118127285D01*
X137042428Y-118127285D02*
X137071000Y-118241571D01*
X137071000Y-118241571D02*
X137071000Y-118327285D01*
X137071000Y-118327285D02*
X137042428Y-118441571D01*
X137042428Y-118441571D02*
X137013857Y-118498714D01*
X137013857Y-118498714D02*
X136956714Y-118555857D01*
X136956714Y-118555857D02*
X136871000Y-118584428D01*
X136871000Y-118584428D02*
X136728143Y-118584428D01*
X132650238Y-84197380D02*
X132650238Y-83197380D01*
X133126428Y-84197380D02*
X133126428Y-83197380D01*
X133126428Y-83197380D02*
X133697856Y-84197380D01*
X133697856Y-84197380D02*
X133697856Y-83197380D01*
X134031190Y-83197380D02*
X134602618Y-83197380D01*
X134316904Y-84197380D02*
X134316904Y-83197380D01*
X135650237Y-83149761D02*
X134793095Y-84435476D01*
X136412142Y-83530714D02*
X136412142Y-84197380D01*
X136174047Y-83149761D02*
X135935952Y-83864047D01*
X135935952Y-83864047D02*
X136554999Y-83864047D01*
X133377381Y-85727380D02*
X134044047Y-86727380D01*
X134044047Y-85727380D02*
X133377381Y-86727380D01*
X134282143Y-85727380D02*
X134853571Y-85727380D01*
X134567857Y-86727380D02*
X134567857Y-85727380D01*
X135139286Y-86441666D02*
X135615476Y-86441666D01*
X135044048Y-86727380D02*
X135377381Y-85727380D01*
X135377381Y-85727380D02*
X135710714Y-86727380D01*
X136520238Y-86727380D02*
X136044048Y-86727380D01*
X136044048Y-86727380D02*
X136044048Y-85727380D01*
X134183571Y-88743571D02*
X134516904Y-88743571D01*
X134659761Y-89267380D02*
X134183571Y-89267380D01*
X134183571Y-89267380D02*
X134183571Y-88267380D01*
X134183571Y-88267380D02*
X134659761Y-88267380D01*
X134993095Y-88267380D02*
X135659761Y-89267380D01*
X135659761Y-88267380D02*
X134993095Y-89267380D01*
X135897857Y-88267380D02*
X136469285Y-88267380D01*
X136183571Y-89267380D02*
X136183571Y-88267380D01*
X115618773Y-97488524D02*
X115618773Y-96893286D01*
X115618773Y-96893286D02*
X116868773Y-96893286D01*
X116273535Y-97905191D02*
X116273535Y-98321857D01*
X115618773Y-98500429D02*
X115618773Y-97905191D01*
X115618773Y-97905191D02*
X116868773Y-97905191D01*
X116868773Y-97905191D02*
X116868773Y-98500429D01*
X116273535Y-99452809D02*
X116273535Y-99036143D01*
X115618773Y-99036143D02*
X116868773Y-99036143D01*
X116868773Y-99036143D02*
X116868773Y-99631381D01*
X116868773Y-99929000D02*
X116868773Y-100643286D01*
X115618773Y-100286143D02*
X116868773Y-100286143D01*
X115618773Y-108823333D02*
X116214011Y-108406667D01*
X115618773Y-108109048D02*
X116868773Y-108109048D01*
X116868773Y-108109048D02*
X116868773Y-108585238D01*
X116868773Y-108585238D02*
X116809250Y-108704286D01*
X116809250Y-108704286D02*
X116749726Y-108763809D01*
X116749726Y-108763809D02*
X116630678Y-108823333D01*
X116630678Y-108823333D02*
X116452107Y-108823333D01*
X116452107Y-108823333D02*
X116333059Y-108763809D01*
X116333059Y-108763809D02*
X116273535Y-108704286D01*
X116273535Y-108704286D02*
X116214011Y-108585238D01*
X116214011Y-108585238D02*
X116214011Y-108109048D01*
X115618773Y-109359048D02*
X116868773Y-109359048D01*
X116809250Y-110609047D02*
X116868773Y-110490000D01*
X116868773Y-110490000D02*
X116868773Y-110311428D01*
X116868773Y-110311428D02*
X116809250Y-110132857D01*
X116809250Y-110132857D02*
X116690202Y-110013809D01*
X116690202Y-110013809D02*
X116571154Y-109954286D01*
X116571154Y-109954286D02*
X116333059Y-109894762D01*
X116333059Y-109894762D02*
X116154488Y-109894762D01*
X116154488Y-109894762D02*
X115916392Y-109954286D01*
X115916392Y-109954286D02*
X115797345Y-110013809D01*
X115797345Y-110013809D02*
X115678297Y-110132857D01*
X115678297Y-110132857D02*
X115618773Y-110311428D01*
X115618773Y-110311428D02*
X115618773Y-110430476D01*
X115618773Y-110430476D02*
X115678297Y-110609047D01*
X115678297Y-110609047D02*
X115737821Y-110668571D01*
X115737821Y-110668571D02*
X116154488Y-110668571D01*
X116154488Y-110668571D02*
X116154488Y-110430476D01*
X115618773Y-111204286D02*
X116868773Y-111204286D01*
X116273535Y-111204286D02*
X116273535Y-111918571D01*
X115618773Y-111918571D02*
X116868773Y-111918571D01*
X116868773Y-112335238D02*
X116868773Y-113049524D01*
X115618773Y-112692381D02*
X116868773Y-112692381D01*
D12*
X122852286Y-53819642D02*
X123066572Y-53891071D01*
X123066572Y-53891071D02*
X123423714Y-53891071D01*
X123423714Y-53891071D02*
X123566572Y-53819642D01*
X123566572Y-53819642D02*
X123638000Y-53748214D01*
X123638000Y-53748214D02*
X123709429Y-53605357D01*
X123709429Y-53605357D02*
X123709429Y-53462500D01*
X123709429Y-53462500D02*
X123638000Y-53319642D01*
X123638000Y-53319642D02*
X123566572Y-53248214D01*
X123566572Y-53248214D02*
X123423714Y-53176785D01*
X123423714Y-53176785D02*
X123138000Y-53105357D01*
X123138000Y-53105357D02*
X122995143Y-53033928D01*
X122995143Y-53033928D02*
X122923714Y-52962500D01*
X122923714Y-52962500D02*
X122852286Y-52819642D01*
X122852286Y-52819642D02*
X122852286Y-52676785D01*
X122852286Y-52676785D02*
X122923714Y-52533928D01*
X122923714Y-52533928D02*
X122995143Y-52462500D01*
X122995143Y-52462500D02*
X123138000Y-52391071D01*
X123138000Y-52391071D02*
X123495143Y-52391071D01*
X123495143Y-52391071D02*
X123709429Y-52462500D01*
X124566571Y-53891071D02*
X124423714Y-53819642D01*
X124423714Y-53819642D02*
X124352285Y-53748214D01*
X124352285Y-53748214D02*
X124280857Y-53605357D01*
X124280857Y-53605357D02*
X124280857Y-53176785D01*
X124280857Y-53176785D02*
X124352285Y-53033928D01*
X124352285Y-53033928D02*
X124423714Y-52962500D01*
X124423714Y-52962500D02*
X124566571Y-52891071D01*
X124566571Y-52891071D02*
X124780857Y-52891071D01*
X124780857Y-52891071D02*
X124923714Y-52962500D01*
X124923714Y-52962500D02*
X124995143Y-53033928D01*
X124995143Y-53033928D02*
X125066571Y-53176785D01*
X125066571Y-53176785D02*
X125066571Y-53605357D01*
X125066571Y-53605357D02*
X124995143Y-53748214D01*
X124995143Y-53748214D02*
X124923714Y-53819642D01*
X124923714Y-53819642D02*
X124780857Y-53891071D01*
X124780857Y-53891071D02*
X124566571Y-53891071D01*
X126352286Y-52891071D02*
X126352286Y-53891071D01*
X125709428Y-52891071D02*
X125709428Y-53676785D01*
X125709428Y-53676785D02*
X125780857Y-53819642D01*
X125780857Y-53819642D02*
X125923714Y-53891071D01*
X125923714Y-53891071D02*
X126138000Y-53891071D01*
X126138000Y-53891071D02*
X126280857Y-53819642D01*
X126280857Y-53819642D02*
X126352286Y-53748214D01*
X127066571Y-52891071D02*
X127066571Y-53891071D01*
X127066571Y-53033928D02*
X127138000Y-52962500D01*
X127138000Y-52962500D02*
X127280857Y-52891071D01*
X127280857Y-52891071D02*
X127495143Y-52891071D01*
X127495143Y-52891071D02*
X127638000Y-52962500D01*
X127638000Y-52962500D02*
X127709429Y-53105357D01*
X127709429Y-53105357D02*
X127709429Y-53891071D01*
X129066572Y-53891071D02*
X129066572Y-52391071D01*
X129066572Y-53819642D02*
X128923714Y-53891071D01*
X128923714Y-53891071D02*
X128638000Y-53891071D01*
X128638000Y-53891071D02*
X128495143Y-53819642D01*
X128495143Y-53819642D02*
X128423714Y-53748214D01*
X128423714Y-53748214D02*
X128352286Y-53605357D01*
X128352286Y-53605357D02*
X128352286Y-53176785D01*
X128352286Y-53176785D02*
X128423714Y-53033928D01*
X128423714Y-53033928D02*
X128495143Y-52962500D01*
X128495143Y-52962500D02*
X128638000Y-52891071D01*
X128638000Y-52891071D02*
X128923714Y-52891071D01*
X128923714Y-52891071D02*
X129066572Y-52962500D01*
X130638000Y-53891071D02*
X130138000Y-53176785D01*
X129780857Y-53891071D02*
X129780857Y-52391071D01*
X129780857Y-52391071D02*
X130352286Y-52391071D01*
X130352286Y-52391071D02*
X130495143Y-52462500D01*
X130495143Y-52462500D02*
X130566572Y-52533928D01*
X130566572Y-52533928D02*
X130638000Y-52676785D01*
X130638000Y-52676785D02*
X130638000Y-52891071D01*
X130638000Y-52891071D02*
X130566572Y-53033928D01*
X130566572Y-53033928D02*
X130495143Y-53105357D01*
X130495143Y-53105357D02*
X130352286Y-53176785D01*
X130352286Y-53176785D02*
X129780857Y-53176785D01*
X131209429Y-53462500D02*
X131923715Y-53462500D01*
X131066572Y-53891071D02*
X131566572Y-52391071D01*
X131566572Y-52391071D02*
X132066572Y-53891071D01*
X132566571Y-53891071D02*
X132566571Y-52391071D01*
X132566571Y-52391071D02*
X133066571Y-53462500D01*
X133066571Y-53462500D02*
X133566571Y-52391071D01*
X133566571Y-52391071D02*
X133566571Y-53891071D01*
X134966572Y-52391071D02*
X135466572Y-53891071D01*
X135466572Y-53891071D02*
X135966572Y-52391071D01*
X137038000Y-53819642D02*
X136895143Y-53891071D01*
X136895143Y-53891071D02*
X136609429Y-53891071D01*
X136609429Y-53891071D02*
X136466571Y-53819642D01*
X136466571Y-53819642D02*
X136395143Y-53676785D01*
X136395143Y-53676785D02*
X136395143Y-53105357D01*
X136395143Y-53105357D02*
X136466571Y-52962500D01*
X136466571Y-52962500D02*
X136609429Y-52891071D01*
X136609429Y-52891071D02*
X136895143Y-52891071D01*
X136895143Y-52891071D02*
X137038000Y-52962500D01*
X137038000Y-52962500D02*
X137109429Y-53105357D01*
X137109429Y-53105357D02*
X137109429Y-53248214D01*
X137109429Y-53248214D02*
X136395143Y-53391071D01*
X137752285Y-53891071D02*
X137752285Y-52891071D01*
X137752285Y-53176785D02*
X137823714Y-53033928D01*
X137823714Y-53033928D02*
X137895143Y-52962500D01*
X137895143Y-52962500D02*
X138038000Y-52891071D01*
X138038000Y-52891071D02*
X138180857Y-52891071D01*
X138680856Y-53748214D02*
X138752285Y-53819642D01*
X138752285Y-53819642D02*
X138680856Y-53891071D01*
X138680856Y-53891071D02*
X138609428Y-53819642D01*
X138609428Y-53819642D02*
X138680856Y-53748214D01*
X138680856Y-53748214D02*
X138680856Y-53891071D01*
X140180857Y-53891071D02*
X139323714Y-53891071D01*
X139752285Y-53891071D02*
X139752285Y-52391071D01*
X139752285Y-52391071D02*
X139609428Y-52605357D01*
X139609428Y-52605357D02*
X139466571Y-52748214D01*
X139466571Y-52748214D02*
X139323714Y-52819642D01*
X140823713Y-53748214D02*
X140895142Y-53819642D01*
X140895142Y-53819642D02*
X140823713Y-53891071D01*
X140823713Y-53891071D02*
X140752285Y-53819642D01*
X140752285Y-53819642D02*
X140823713Y-53748214D01*
X140823713Y-53748214D02*
X140823713Y-53891071D01*
X142323714Y-53891071D02*
X141466571Y-53891071D01*
X141895142Y-53891071D02*
X141895142Y-52391071D01*
X141895142Y-52391071D02*
X141752285Y-52605357D01*
X141752285Y-52605357D02*
X141609428Y-52748214D01*
X141609428Y-52748214D02*
X141466571Y-52819642D01*
D10*
X130176715Y-118584428D02*
X130176715Y-117984428D01*
X130176715Y-117984428D02*
X130376715Y-118413000D01*
X130376715Y-118413000D02*
X130576715Y-117984428D01*
X130576715Y-117984428D02*
X130576715Y-118584428D01*
X130948143Y-118584428D02*
X130891000Y-118555857D01*
X130891000Y-118555857D02*
X130862429Y-118527285D01*
X130862429Y-118527285D02*
X130833857Y-118470142D01*
X130833857Y-118470142D02*
X130833857Y-118298714D01*
X130833857Y-118298714D02*
X130862429Y-118241571D01*
X130862429Y-118241571D02*
X130891000Y-118213000D01*
X130891000Y-118213000D02*
X130948143Y-118184428D01*
X130948143Y-118184428D02*
X131033857Y-118184428D01*
X131033857Y-118184428D02*
X131091000Y-118213000D01*
X131091000Y-118213000D02*
X131119572Y-118241571D01*
X131119572Y-118241571D02*
X131148143Y-118298714D01*
X131148143Y-118298714D02*
X131148143Y-118470142D01*
X131148143Y-118470142D02*
X131119572Y-118527285D01*
X131119572Y-118527285D02*
X131091000Y-118555857D01*
X131091000Y-118555857D02*
X131033857Y-118584428D01*
X131033857Y-118584428D02*
X130948143Y-118584428D01*
X131405286Y-118184428D02*
X131405286Y-118584428D01*
X131405286Y-118241571D02*
X131433857Y-118213000D01*
X131433857Y-118213000D02*
X131491000Y-118184428D01*
X131491000Y-118184428D02*
X131576714Y-118184428D01*
X131576714Y-118184428D02*
X131633857Y-118213000D01*
X131633857Y-118213000D02*
X131662429Y-118270142D01*
X131662429Y-118270142D02*
X131662429Y-118584428D01*
X132033857Y-118584428D02*
X131976714Y-118555857D01*
X131976714Y-118555857D02*
X131948143Y-118527285D01*
X131948143Y-118527285D02*
X131919571Y-118470142D01*
X131919571Y-118470142D02*
X131919571Y-118298714D01*
X131919571Y-118298714D02*
X131948143Y-118241571D01*
X131948143Y-118241571D02*
X131976714Y-118213000D01*
X131976714Y-118213000D02*
X132033857Y-118184428D01*
X132033857Y-118184428D02*
X132119571Y-118184428D01*
X132119571Y-118184428D02*
X132176714Y-118213000D01*
X132176714Y-118213000D02*
X132205286Y-118241571D01*
X132205286Y-118241571D02*
X132233857Y-118298714D01*
X132233857Y-118298714D02*
X132233857Y-118470142D01*
X132233857Y-118470142D02*
X132205286Y-118527285D01*
X132205286Y-118527285D02*
X132176714Y-118555857D01*
X132176714Y-118555857D02*
X132119571Y-118584428D01*
X132119571Y-118584428D02*
X132033857Y-118584428D01*
X134477238Y-79107380D02*
X134477238Y-78107380D01*
X134953428Y-79107380D02*
X134953428Y-78107380D01*
X134953428Y-78107380D02*
X135524856Y-79107380D01*
X135524856Y-79107380D02*
X135524856Y-78107380D01*
X135858190Y-78107380D02*
X136429618Y-78107380D01*
X136143904Y-79107380D02*
X136143904Y-78107380D01*
X152605226Y-112897095D02*
X152009988Y-113313761D01*
X152605226Y-113611380D02*
X151355226Y-113611380D01*
X151355226Y-113611380D02*
X151355226Y-113135190D01*
X151355226Y-113135190D02*
X151414750Y-113016142D01*
X151414750Y-113016142D02*
X151474273Y-112956619D01*
X151474273Y-112956619D02*
X151593321Y-112897095D01*
X151593321Y-112897095D02*
X151771892Y-112897095D01*
X151771892Y-112897095D02*
X151890940Y-112956619D01*
X151890940Y-112956619D02*
X151950464Y-113016142D01*
X151950464Y-113016142D02*
X152009988Y-113135190D01*
X152009988Y-113135190D02*
X152009988Y-113611380D01*
X151795000Y-88468142D02*
X151766428Y-88525285D01*
X151766428Y-88525285D02*
X151766428Y-88610999D01*
X151766428Y-88610999D02*
X151795000Y-88696713D01*
X151795000Y-88696713D02*
X151852142Y-88753856D01*
X151852142Y-88753856D02*
X151909285Y-88782427D01*
X151909285Y-88782427D02*
X152023571Y-88810999D01*
X152023571Y-88810999D02*
X152109285Y-88810999D01*
X152109285Y-88810999D02*
X152223571Y-88782427D01*
X152223571Y-88782427D02*
X152280714Y-88753856D01*
X152280714Y-88753856D02*
X152337857Y-88696713D01*
X152337857Y-88696713D02*
X152366428Y-88610999D01*
X152366428Y-88610999D02*
X152366428Y-88553856D01*
X152366428Y-88553856D02*
X152337857Y-88468142D01*
X152337857Y-88468142D02*
X152309285Y-88439570D01*
X152309285Y-88439570D02*
X152109285Y-88439570D01*
X152109285Y-88439570D02*
X152109285Y-88553856D01*
X152366428Y-88182427D02*
X151766428Y-88182427D01*
X151766428Y-88182427D02*
X152366428Y-87839570D01*
X152366428Y-87839570D02*
X151766428Y-87839570D01*
X152366428Y-87553856D02*
X151766428Y-87553856D01*
X151766428Y-87553856D02*
X151766428Y-87410999D01*
X151766428Y-87410999D02*
X151795000Y-87325285D01*
X151795000Y-87325285D02*
X151852142Y-87268142D01*
X151852142Y-87268142D02*
X151909285Y-87239571D01*
X151909285Y-87239571D02*
X152023571Y-87210999D01*
X152023571Y-87210999D02*
X152109285Y-87210999D01*
X152109285Y-87210999D02*
X152223571Y-87239571D01*
X152223571Y-87239571D02*
X152280714Y-87268142D01*
X152280714Y-87268142D02*
X152337857Y-87325285D01*
X152337857Y-87325285D02*
X152366428Y-87410999D01*
X152366428Y-87410999D02*
X152366428Y-87553856D01*
X132988143Y-118355857D02*
X133445286Y-118355857D01*
X133216714Y-118584428D02*
X133216714Y-118127285D01*
X134016714Y-117984428D02*
X133731000Y-117984428D01*
X133731000Y-117984428D02*
X133702428Y-118270142D01*
X133702428Y-118270142D02*
X133731000Y-118241571D01*
X133731000Y-118241571D02*
X133788143Y-118213000D01*
X133788143Y-118213000D02*
X133931000Y-118213000D01*
X133931000Y-118213000D02*
X133988143Y-118241571D01*
X133988143Y-118241571D02*
X134016714Y-118270142D01*
X134016714Y-118270142D02*
X134045285Y-118327285D01*
X134045285Y-118327285D02*
X134045285Y-118470142D01*
X134045285Y-118470142D02*
X134016714Y-118527285D01*
X134016714Y-118527285D02*
X133988143Y-118555857D01*
X133988143Y-118555857D02*
X133931000Y-118584428D01*
X133931000Y-118584428D02*
X133788143Y-118584428D01*
X133788143Y-118584428D02*
X133731000Y-118555857D01*
X133731000Y-118555857D02*
X133702428Y-118527285D01*
X134245286Y-118184428D02*
X134388143Y-118584428D01*
X134388143Y-118584428D02*
X134531000Y-118184428D01*
%TO.C,C5*%
X142200415Y-107682380D02*
X141628987Y-107682380D01*
X141914701Y-107682380D02*
X141914701Y-106682380D01*
X141914701Y-106682380D02*
X141819463Y-106825238D01*
X141819463Y-106825238D02*
X141724225Y-106920476D01*
X141724225Y-106920476D02*
X141628987Y-106968095D01*
X142819463Y-106682380D02*
X142914701Y-106682380D01*
X142914701Y-106682380D02*
X143009939Y-106730000D01*
X143009939Y-106730000D02*
X143057558Y-106777619D01*
X143057558Y-106777619D02*
X143105177Y-106872857D01*
X143105177Y-106872857D02*
X143152796Y-107063333D01*
X143152796Y-107063333D02*
X143152796Y-107301428D01*
X143152796Y-107301428D02*
X143105177Y-107491904D01*
X143105177Y-107491904D02*
X143057558Y-107587142D01*
X143057558Y-107587142D02*
X143009939Y-107634761D01*
X143009939Y-107634761D02*
X142914701Y-107682380D01*
X142914701Y-107682380D02*
X142819463Y-107682380D01*
X142819463Y-107682380D02*
X142724225Y-107634761D01*
X142724225Y-107634761D02*
X142676606Y-107587142D01*
X142676606Y-107587142D02*
X142628987Y-107491904D01*
X142628987Y-107491904D02*
X142581368Y-107301428D01*
X142581368Y-107301428D02*
X142581368Y-107063333D01*
X142581368Y-107063333D02*
X142628987Y-106872857D01*
X142628987Y-106872857D02*
X142676606Y-106777619D01*
X142676606Y-106777619D02*
X142724225Y-106730000D01*
X142724225Y-106730000D02*
X142819463Y-106682380D01*
X144009939Y-107015714D02*
X144009939Y-107682380D01*
X143581368Y-107015714D02*
X143581368Y-107539523D01*
X143581368Y-107539523D02*
X143628987Y-107634761D01*
X143628987Y-107634761D02*
X143724225Y-107682380D01*
X143724225Y-107682380D02*
X143867082Y-107682380D01*
X143867082Y-107682380D02*
X143962320Y-107634761D01*
X143962320Y-107634761D02*
X144009939Y-107587142D01*
X144343273Y-107015714D02*
X144724225Y-107015714D01*
X144486130Y-107682380D02*
X144486130Y-106825238D01*
X144486130Y-106825238D02*
X144533749Y-106730000D01*
X144533749Y-106730000D02*
X144628987Y-106682380D01*
X144628987Y-106682380D02*
X144724225Y-106682380D01*
%TO.C,U5*%
X139088761Y-102685456D02*
X139136380Y-102542599D01*
X139136380Y-102542599D02*
X139136380Y-102304504D01*
X139136380Y-102304504D02*
X139088761Y-102209266D01*
X139088761Y-102209266D02*
X139041142Y-102161647D01*
X139041142Y-102161647D02*
X138945904Y-102114028D01*
X138945904Y-102114028D02*
X138850666Y-102114028D01*
X138850666Y-102114028D02*
X138755428Y-102161647D01*
X138755428Y-102161647D02*
X138707809Y-102209266D01*
X138707809Y-102209266D02*
X138660190Y-102304504D01*
X138660190Y-102304504D02*
X138612571Y-102494980D01*
X138612571Y-102494980D02*
X138564952Y-102590218D01*
X138564952Y-102590218D02*
X138517333Y-102637837D01*
X138517333Y-102637837D02*
X138422095Y-102685456D01*
X138422095Y-102685456D02*
X138326857Y-102685456D01*
X138326857Y-102685456D02*
X138231619Y-102637837D01*
X138231619Y-102637837D02*
X138184000Y-102590218D01*
X138184000Y-102590218D02*
X138136380Y-102494980D01*
X138136380Y-102494980D02*
X138136380Y-102256885D01*
X138136380Y-102256885D02*
X138184000Y-102114028D01*
X139136380Y-101685456D02*
X138136380Y-101685456D01*
X138136380Y-101685456D02*
X139136380Y-101114028D01*
X139136380Y-101114028D02*
X138136380Y-101114028D01*
X138136380Y-100733075D02*
X138136380Y-100066409D01*
X138136380Y-100066409D02*
X139136380Y-100494980D01*
X138136380Y-99256885D02*
X138136380Y-99447361D01*
X138136380Y-99447361D02*
X138184000Y-99542599D01*
X138184000Y-99542599D02*
X138231619Y-99590218D01*
X138231619Y-99590218D02*
X138374476Y-99685456D01*
X138374476Y-99685456D02*
X138564952Y-99733075D01*
X138564952Y-99733075D02*
X138945904Y-99733075D01*
X138945904Y-99733075D02*
X139041142Y-99685456D01*
X139041142Y-99685456D02*
X139088761Y-99637837D01*
X139088761Y-99637837D02*
X139136380Y-99542599D01*
X139136380Y-99542599D02*
X139136380Y-99352123D01*
X139136380Y-99352123D02*
X139088761Y-99256885D01*
X139088761Y-99256885D02*
X139041142Y-99209266D01*
X139041142Y-99209266D02*
X138945904Y-99161647D01*
X138945904Y-99161647D02*
X138707809Y-99161647D01*
X138707809Y-99161647D02*
X138612571Y-99209266D01*
X138612571Y-99209266D02*
X138564952Y-99256885D01*
X138564952Y-99256885D02*
X138517333Y-99352123D01*
X138517333Y-99352123D02*
X138517333Y-99542599D01*
X138517333Y-99542599D02*
X138564952Y-99637837D01*
X138564952Y-99637837D02*
X138612571Y-99685456D01*
X138612571Y-99685456D02*
X138707809Y-99733075D01*
X138469714Y-98304504D02*
X139136380Y-98304504D01*
X138088761Y-98542599D02*
X138803047Y-98780694D01*
X138803047Y-98780694D02*
X138803047Y-98161647D01*
X138564952Y-97637837D02*
X138517333Y-97733075D01*
X138517333Y-97733075D02*
X138469714Y-97780694D01*
X138469714Y-97780694D02*
X138374476Y-97828313D01*
X138374476Y-97828313D02*
X138326857Y-97828313D01*
X138326857Y-97828313D02*
X138231619Y-97780694D01*
X138231619Y-97780694D02*
X138184000Y-97733075D01*
X138184000Y-97733075D02*
X138136380Y-97637837D01*
X138136380Y-97637837D02*
X138136380Y-97447361D01*
X138136380Y-97447361D02*
X138184000Y-97352123D01*
X138184000Y-97352123D02*
X138231619Y-97304504D01*
X138231619Y-97304504D02*
X138326857Y-97256885D01*
X138326857Y-97256885D02*
X138374476Y-97256885D01*
X138374476Y-97256885D02*
X138469714Y-97304504D01*
X138469714Y-97304504D02*
X138517333Y-97352123D01*
X138517333Y-97352123D02*
X138564952Y-97447361D01*
X138564952Y-97447361D02*
X138564952Y-97637837D01*
X138564952Y-97637837D02*
X138612571Y-97733075D01*
X138612571Y-97733075D02*
X138660190Y-97780694D01*
X138660190Y-97780694D02*
X138755428Y-97828313D01*
X138755428Y-97828313D02*
X138945904Y-97828313D01*
X138945904Y-97828313D02*
X139041142Y-97780694D01*
X139041142Y-97780694D02*
X139088761Y-97733075D01*
X139088761Y-97733075D02*
X139136380Y-97637837D01*
X139136380Y-97637837D02*
X139136380Y-97447361D01*
X139136380Y-97447361D02*
X139088761Y-97352123D01*
X139088761Y-97352123D02*
X139041142Y-97304504D01*
X139041142Y-97304504D02*
X138945904Y-97256885D01*
X138945904Y-97256885D02*
X138755428Y-97256885D01*
X138755428Y-97256885D02*
X138660190Y-97304504D01*
X138660190Y-97304504D02*
X138612571Y-97352123D01*
X138612571Y-97352123D02*
X138564952Y-97447361D01*
X139136380Y-96780694D02*
X139136380Y-96590218D01*
X139136380Y-96590218D02*
X139088761Y-96494980D01*
X139088761Y-96494980D02*
X139041142Y-96447361D01*
X139041142Y-96447361D02*
X138898285Y-96352123D01*
X138898285Y-96352123D02*
X138707809Y-96304504D01*
X138707809Y-96304504D02*
X138326857Y-96304504D01*
X138326857Y-96304504D02*
X138231619Y-96352123D01*
X138231619Y-96352123D02*
X138184000Y-96399742D01*
X138184000Y-96399742D02*
X138136380Y-96494980D01*
X138136380Y-96494980D02*
X138136380Y-96685456D01*
X138136380Y-96685456D02*
X138184000Y-96780694D01*
X138184000Y-96780694D02*
X138231619Y-96828313D01*
X138231619Y-96828313D02*
X138326857Y-96875932D01*
X138326857Y-96875932D02*
X138564952Y-96875932D01*
X138564952Y-96875932D02*
X138660190Y-96828313D01*
X138660190Y-96828313D02*
X138707809Y-96780694D01*
X138707809Y-96780694D02*
X138755428Y-96685456D01*
X138755428Y-96685456D02*
X138755428Y-96494980D01*
X138755428Y-96494980D02*
X138707809Y-96399742D01*
X138707809Y-96399742D02*
X138660190Y-96352123D01*
X138660190Y-96352123D02*
X138564952Y-96304504D01*
X138850666Y-95923551D02*
X138850666Y-95447361D01*
X139136380Y-96018789D02*
X138136380Y-95685456D01*
X138136380Y-95685456D02*
X139136380Y-95352123D01*
X139136380Y-95018789D02*
X138136380Y-95018789D01*
X138136380Y-95018789D02*
X139136380Y-94447361D01*
X139136380Y-94447361D02*
X138136380Y-94447361D01*
%TO.C,U2*%
X174377380Y-103251904D02*
X174377380Y-102585238D01*
X174377380Y-102585238D02*
X175377380Y-103013809D01*
X174710714Y-101775714D02*
X175377380Y-101775714D01*
X174329761Y-102013809D02*
X175044047Y-102251904D01*
X175044047Y-102251904D02*
X175044047Y-101632857D01*
X175377380Y-101251904D02*
X174377380Y-101251904D01*
X174853571Y-101251904D02*
X174853571Y-100680476D01*
X175377380Y-100680476D02*
X174377380Y-100680476D01*
X175282142Y-99632857D02*
X175329761Y-99680476D01*
X175329761Y-99680476D02*
X175377380Y-99823333D01*
X175377380Y-99823333D02*
X175377380Y-99918571D01*
X175377380Y-99918571D02*
X175329761Y-100061428D01*
X175329761Y-100061428D02*
X175234523Y-100156666D01*
X175234523Y-100156666D02*
X175139285Y-100204285D01*
X175139285Y-100204285D02*
X174948809Y-100251904D01*
X174948809Y-100251904D02*
X174805952Y-100251904D01*
X174805952Y-100251904D02*
X174615476Y-100204285D01*
X174615476Y-100204285D02*
X174520238Y-100156666D01*
X174520238Y-100156666D02*
X174425000Y-100061428D01*
X174425000Y-100061428D02*
X174377380Y-99918571D01*
X174377380Y-99918571D02*
X174377380Y-99823333D01*
X174377380Y-99823333D02*
X174425000Y-99680476D01*
X174425000Y-99680476D02*
X174472619Y-99632857D01*
X175377380Y-98680476D02*
X175377380Y-99251904D01*
X175377380Y-98966190D02*
X174377380Y-98966190D01*
X174377380Y-98966190D02*
X174520238Y-99061428D01*
X174520238Y-99061428D02*
X174615476Y-99156666D01*
X174615476Y-99156666D02*
X174663095Y-99251904D01*
X174377380Y-98347142D02*
X174377380Y-97728095D01*
X174377380Y-97728095D02*
X174758333Y-98061428D01*
X174758333Y-98061428D02*
X174758333Y-97918571D01*
X174758333Y-97918571D02*
X174805952Y-97823333D01*
X174805952Y-97823333D02*
X174853571Y-97775714D01*
X174853571Y-97775714D02*
X174948809Y-97728095D01*
X174948809Y-97728095D02*
X175186904Y-97728095D01*
X175186904Y-97728095D02*
X175282142Y-97775714D01*
X175282142Y-97775714D02*
X175329761Y-97823333D01*
X175329761Y-97823333D02*
X175377380Y-97918571D01*
X175377380Y-97918571D02*
X175377380Y-98204285D01*
X175377380Y-98204285D02*
X175329761Y-98299523D01*
X175329761Y-98299523D02*
X175282142Y-98347142D01*
X174805952Y-97156666D02*
X174758333Y-97251904D01*
X174758333Y-97251904D02*
X174710714Y-97299523D01*
X174710714Y-97299523D02*
X174615476Y-97347142D01*
X174615476Y-97347142D02*
X174567857Y-97347142D01*
X174567857Y-97347142D02*
X174472619Y-97299523D01*
X174472619Y-97299523D02*
X174425000Y-97251904D01*
X174425000Y-97251904D02*
X174377380Y-97156666D01*
X174377380Y-97156666D02*
X174377380Y-96966190D01*
X174377380Y-96966190D02*
X174425000Y-96870952D01*
X174425000Y-96870952D02*
X174472619Y-96823333D01*
X174472619Y-96823333D02*
X174567857Y-96775714D01*
X174567857Y-96775714D02*
X174615476Y-96775714D01*
X174615476Y-96775714D02*
X174710714Y-96823333D01*
X174710714Y-96823333D02*
X174758333Y-96870952D01*
X174758333Y-96870952D02*
X174805952Y-96966190D01*
X174805952Y-96966190D02*
X174805952Y-97156666D01*
X174805952Y-97156666D02*
X174853571Y-97251904D01*
X174853571Y-97251904D02*
X174901190Y-97299523D01*
X174901190Y-97299523D02*
X174996428Y-97347142D01*
X174996428Y-97347142D02*
X175186904Y-97347142D01*
X175186904Y-97347142D02*
X175282142Y-97299523D01*
X175282142Y-97299523D02*
X175329761Y-97251904D01*
X175329761Y-97251904D02*
X175377380Y-97156666D01*
X175377380Y-97156666D02*
X175377380Y-96966190D01*
X175377380Y-96966190D02*
X175329761Y-96870952D01*
X175329761Y-96870952D02*
X175282142Y-96823333D01*
X175282142Y-96823333D02*
X175186904Y-96775714D01*
X175186904Y-96775714D02*
X174996428Y-96775714D01*
X174996428Y-96775714D02*
X174901190Y-96823333D01*
X174901190Y-96823333D02*
X174853571Y-96870952D01*
X174853571Y-96870952D02*
X174805952Y-96966190D01*
%TO.C,C4*%
X147880952Y-78087380D02*
X147309524Y-78087380D01*
X147595238Y-78087380D02*
X147595238Y-77087380D01*
X147595238Y-77087380D02*
X147500000Y-77230238D01*
X147500000Y-77230238D02*
X147404762Y-77325476D01*
X147404762Y-77325476D02*
X147309524Y-77373095D01*
X148500000Y-77087380D02*
X148595238Y-77087380D01*
X148595238Y-77087380D02*
X148690476Y-77135000D01*
X148690476Y-77135000D02*
X148738095Y-77182619D01*
X148738095Y-77182619D02*
X148785714Y-77277857D01*
X148785714Y-77277857D02*
X148833333Y-77468333D01*
X148833333Y-77468333D02*
X148833333Y-77706428D01*
X148833333Y-77706428D02*
X148785714Y-77896904D01*
X148785714Y-77896904D02*
X148738095Y-77992142D01*
X148738095Y-77992142D02*
X148690476Y-78039761D01*
X148690476Y-78039761D02*
X148595238Y-78087380D01*
X148595238Y-78087380D02*
X148500000Y-78087380D01*
X148500000Y-78087380D02*
X148404762Y-78039761D01*
X148404762Y-78039761D02*
X148357143Y-77992142D01*
X148357143Y-77992142D02*
X148309524Y-77896904D01*
X148309524Y-77896904D02*
X148261905Y-77706428D01*
X148261905Y-77706428D02*
X148261905Y-77468333D01*
X148261905Y-77468333D02*
X148309524Y-77277857D01*
X148309524Y-77277857D02*
X148357143Y-77182619D01*
X148357143Y-77182619D02*
X148404762Y-77135000D01*
X148404762Y-77135000D02*
X148500000Y-77087380D01*
X149452381Y-77087380D02*
X149547619Y-77087380D01*
X149547619Y-77087380D02*
X149642857Y-77135000D01*
X149642857Y-77135000D02*
X149690476Y-77182619D01*
X149690476Y-77182619D02*
X149738095Y-77277857D01*
X149738095Y-77277857D02*
X149785714Y-77468333D01*
X149785714Y-77468333D02*
X149785714Y-77706428D01*
X149785714Y-77706428D02*
X149738095Y-77896904D01*
X149738095Y-77896904D02*
X149690476Y-77992142D01*
X149690476Y-77992142D02*
X149642857Y-78039761D01*
X149642857Y-78039761D02*
X149547619Y-78087380D01*
X149547619Y-78087380D02*
X149452381Y-78087380D01*
X149452381Y-78087380D02*
X149357143Y-78039761D01*
X149357143Y-78039761D02*
X149309524Y-77992142D01*
X149309524Y-77992142D02*
X149261905Y-77896904D01*
X149261905Y-77896904D02*
X149214286Y-77706428D01*
X149214286Y-77706428D02*
X149214286Y-77468333D01*
X149214286Y-77468333D02*
X149261905Y-77277857D01*
X149261905Y-77277857D02*
X149309524Y-77182619D01*
X149309524Y-77182619D02*
X149357143Y-77135000D01*
X149357143Y-77135000D02*
X149452381Y-77087380D01*
X150214286Y-77420714D02*
X150214286Y-78087380D01*
X150214286Y-77515952D02*
X150261905Y-77468333D01*
X150261905Y-77468333D02*
X150357143Y-77420714D01*
X150357143Y-77420714D02*
X150500000Y-77420714D01*
X150500000Y-77420714D02*
X150595238Y-77468333D01*
X150595238Y-77468333D02*
X150642857Y-77563571D01*
X150642857Y-77563571D02*
X150642857Y-78087380D01*
%TO.C,J2*%
X158849047Y-118985380D02*
X158849047Y-117985380D01*
X159515713Y-117985380D02*
X159706189Y-117985380D01*
X159706189Y-117985380D02*
X159801427Y-118033000D01*
X159801427Y-118033000D02*
X159896665Y-118128238D01*
X159896665Y-118128238D02*
X159944284Y-118318714D01*
X159944284Y-118318714D02*
X159944284Y-118652047D01*
X159944284Y-118652047D02*
X159896665Y-118842523D01*
X159896665Y-118842523D02*
X159801427Y-118937761D01*
X159801427Y-118937761D02*
X159706189Y-118985380D01*
X159706189Y-118985380D02*
X159515713Y-118985380D01*
X159515713Y-118985380D02*
X159420475Y-118937761D01*
X159420475Y-118937761D02*
X159325237Y-118842523D01*
X159325237Y-118842523D02*
X159277618Y-118652047D01*
X159277618Y-118652047D02*
X159277618Y-118318714D01*
X159277618Y-118318714D02*
X159325237Y-118128238D01*
X159325237Y-118128238D02*
X159420475Y-118033000D01*
X159420475Y-118033000D02*
X159515713Y-117985380D01*
X160972856Y-118985380D02*
X160972856Y-117985380D01*
X160972856Y-117985380D02*
X161353808Y-117985380D01*
X161353808Y-117985380D02*
X161449046Y-118033000D01*
X161449046Y-118033000D02*
X161496665Y-118080619D01*
X161496665Y-118080619D02*
X161544284Y-118175857D01*
X161544284Y-118175857D02*
X161544284Y-118318714D01*
X161544284Y-118318714D02*
X161496665Y-118413952D01*
X161496665Y-118413952D02*
X161449046Y-118461571D01*
X161449046Y-118461571D02*
X161353808Y-118509190D01*
X161353808Y-118509190D02*
X160972856Y-118509190D01*
X162115713Y-118985380D02*
X162020475Y-118937761D01*
X162020475Y-118937761D02*
X161972856Y-118890142D01*
X161972856Y-118890142D02*
X161925237Y-118794904D01*
X161925237Y-118794904D02*
X161925237Y-118509190D01*
X161925237Y-118509190D02*
X161972856Y-118413952D01*
X161972856Y-118413952D02*
X162020475Y-118366333D01*
X162020475Y-118366333D02*
X162115713Y-118318714D01*
X162115713Y-118318714D02*
X162258570Y-118318714D01*
X162258570Y-118318714D02*
X162353808Y-118366333D01*
X162353808Y-118366333D02*
X162401427Y-118413952D01*
X162401427Y-118413952D02*
X162449046Y-118509190D01*
X162449046Y-118509190D02*
X162449046Y-118794904D01*
X162449046Y-118794904D02*
X162401427Y-118890142D01*
X162401427Y-118890142D02*
X162353808Y-118937761D01*
X162353808Y-118937761D02*
X162258570Y-118985380D01*
X162258570Y-118985380D02*
X162115713Y-118985380D01*
X162877618Y-118985380D02*
X162877618Y-118318714D01*
X162877618Y-118509190D02*
X162925237Y-118413952D01*
X162925237Y-118413952D02*
X162972856Y-118366333D01*
X162972856Y-118366333D02*
X163068094Y-118318714D01*
X163068094Y-118318714D02*
X163163332Y-118318714D01*
X163353809Y-118318714D02*
X163734761Y-118318714D01*
X163496666Y-117985380D02*
X163496666Y-118842523D01*
X163496666Y-118842523D02*
X163544285Y-118937761D01*
X163544285Y-118937761D02*
X163639523Y-118985380D01*
X163639523Y-118985380D02*
X163734761Y-118985380D01*
X164620476Y-118937761D02*
X164763333Y-118985380D01*
X164763333Y-118985380D02*
X165001428Y-118985380D01*
X165001428Y-118985380D02*
X165096666Y-118937761D01*
X165096666Y-118937761D02*
X165144285Y-118890142D01*
X165144285Y-118890142D02*
X165191904Y-118794904D01*
X165191904Y-118794904D02*
X165191904Y-118699666D01*
X165191904Y-118699666D02*
X165144285Y-118604428D01*
X165144285Y-118604428D02*
X165096666Y-118556809D01*
X165096666Y-118556809D02*
X165001428Y-118509190D01*
X165001428Y-118509190D02*
X164810952Y-118461571D01*
X164810952Y-118461571D02*
X164715714Y-118413952D01*
X164715714Y-118413952D02*
X164668095Y-118366333D01*
X164668095Y-118366333D02*
X164620476Y-118271095D01*
X164620476Y-118271095D02*
X164620476Y-118175857D01*
X164620476Y-118175857D02*
X164668095Y-118080619D01*
X164668095Y-118080619D02*
X164715714Y-118033000D01*
X164715714Y-118033000D02*
X164810952Y-117985380D01*
X164810952Y-117985380D02*
X165049047Y-117985380D01*
X165049047Y-117985380D02*
X165191904Y-118033000D01*
X166001428Y-118937761D02*
X165906190Y-118985380D01*
X165906190Y-118985380D02*
X165715714Y-118985380D01*
X165715714Y-118985380D02*
X165620476Y-118937761D01*
X165620476Y-118937761D02*
X165572857Y-118842523D01*
X165572857Y-118842523D02*
X165572857Y-118461571D01*
X165572857Y-118461571D02*
X165620476Y-118366333D01*
X165620476Y-118366333D02*
X165715714Y-118318714D01*
X165715714Y-118318714D02*
X165906190Y-118318714D01*
X165906190Y-118318714D02*
X166001428Y-118366333D01*
X166001428Y-118366333D02*
X166049047Y-118461571D01*
X166049047Y-118461571D02*
X166049047Y-118556809D01*
X166049047Y-118556809D02*
X165572857Y-118652047D01*
X166620476Y-118985380D02*
X166525238Y-118937761D01*
X166525238Y-118937761D02*
X166477619Y-118842523D01*
X166477619Y-118842523D02*
X166477619Y-117985380D01*
X167382381Y-118937761D02*
X167287143Y-118985380D01*
X167287143Y-118985380D02*
X167096667Y-118985380D01*
X167096667Y-118985380D02*
X167001429Y-118937761D01*
X167001429Y-118937761D02*
X166953810Y-118842523D01*
X166953810Y-118842523D02*
X166953810Y-118461571D01*
X166953810Y-118461571D02*
X167001429Y-118366333D01*
X167001429Y-118366333D02*
X167096667Y-118318714D01*
X167096667Y-118318714D02*
X167287143Y-118318714D01*
X167287143Y-118318714D02*
X167382381Y-118366333D01*
X167382381Y-118366333D02*
X167430000Y-118461571D01*
X167430000Y-118461571D02*
X167430000Y-118556809D01*
X167430000Y-118556809D02*
X166953810Y-118652047D01*
X168287143Y-118937761D02*
X168191905Y-118985380D01*
X168191905Y-118985380D02*
X168001429Y-118985380D01*
X168001429Y-118985380D02*
X167906191Y-118937761D01*
X167906191Y-118937761D02*
X167858572Y-118890142D01*
X167858572Y-118890142D02*
X167810953Y-118794904D01*
X167810953Y-118794904D02*
X167810953Y-118509190D01*
X167810953Y-118509190D02*
X167858572Y-118413952D01*
X167858572Y-118413952D02*
X167906191Y-118366333D01*
X167906191Y-118366333D02*
X168001429Y-118318714D01*
X168001429Y-118318714D02*
X168191905Y-118318714D01*
X168191905Y-118318714D02*
X168287143Y-118366333D01*
X168572858Y-118318714D02*
X168953810Y-118318714D01*
X168715715Y-117985380D02*
X168715715Y-118842523D01*
X168715715Y-118842523D02*
X168763334Y-118937761D01*
X168763334Y-118937761D02*
X168858572Y-118985380D01*
X168858572Y-118985380D02*
X168953810Y-118985380D01*
%TO.C,C1*%
X141844815Y-99351180D02*
X141273387Y-99351180D01*
X141559101Y-99351180D02*
X141559101Y-98351180D01*
X141559101Y-98351180D02*
X141463863Y-98494038D01*
X141463863Y-98494038D02*
X141368625Y-98589276D01*
X141368625Y-98589276D02*
X141273387Y-98636895D01*
X142463863Y-98351180D02*
X142559101Y-98351180D01*
X142559101Y-98351180D02*
X142654339Y-98398800D01*
X142654339Y-98398800D02*
X142701958Y-98446419D01*
X142701958Y-98446419D02*
X142749577Y-98541657D01*
X142749577Y-98541657D02*
X142797196Y-98732133D01*
X142797196Y-98732133D02*
X142797196Y-98970228D01*
X142797196Y-98970228D02*
X142749577Y-99160704D01*
X142749577Y-99160704D02*
X142701958Y-99255942D01*
X142701958Y-99255942D02*
X142654339Y-99303561D01*
X142654339Y-99303561D02*
X142559101Y-99351180D01*
X142559101Y-99351180D02*
X142463863Y-99351180D01*
X142463863Y-99351180D02*
X142368625Y-99303561D01*
X142368625Y-99303561D02*
X142321006Y-99255942D01*
X142321006Y-99255942D02*
X142273387Y-99160704D01*
X142273387Y-99160704D02*
X142225768Y-98970228D01*
X142225768Y-98970228D02*
X142225768Y-98732133D01*
X142225768Y-98732133D02*
X142273387Y-98541657D01*
X142273387Y-98541657D02*
X142321006Y-98446419D01*
X142321006Y-98446419D02*
X142368625Y-98398800D01*
X142368625Y-98398800D02*
X142463863Y-98351180D01*
X143654339Y-98684514D02*
X143654339Y-99351180D01*
X143225768Y-98684514D02*
X143225768Y-99208323D01*
X143225768Y-99208323D02*
X143273387Y-99303561D01*
X143273387Y-99303561D02*
X143368625Y-99351180D01*
X143368625Y-99351180D02*
X143511482Y-99351180D01*
X143511482Y-99351180D02*
X143606720Y-99303561D01*
X143606720Y-99303561D02*
X143654339Y-99255942D01*
X143987673Y-98684514D02*
X144368625Y-98684514D01*
X144130530Y-99351180D02*
X144130530Y-98494038D01*
X144130530Y-98494038D02*
X144178149Y-98398800D01*
X144178149Y-98398800D02*
X144273387Y-98351180D01*
X144273387Y-98351180D02*
X144368625Y-98351180D01*
%TO.C,J3*%
X147470999Y-84644380D02*
X147137666Y-84168190D01*
X146899571Y-84644380D02*
X146899571Y-83644380D01*
X146899571Y-83644380D02*
X147280523Y-83644380D01*
X147280523Y-83644380D02*
X147375761Y-83692000D01*
X147375761Y-83692000D02*
X147423380Y-83739619D01*
X147423380Y-83739619D02*
X147470999Y-83834857D01*
X147470999Y-83834857D02*
X147470999Y-83977714D01*
X147470999Y-83977714D02*
X147423380Y-84072952D01*
X147423380Y-84072952D02*
X147375761Y-84120571D01*
X147375761Y-84120571D02*
X147280523Y-84168190D01*
X147280523Y-84168190D02*
X146899571Y-84168190D01*
X147899571Y-84120571D02*
X148232904Y-84120571D01*
X148375761Y-84644380D02*
X147899571Y-84644380D01*
X147899571Y-84644380D02*
X147899571Y-83644380D01*
X147899571Y-83644380D02*
X148375761Y-83644380D01*
X148756714Y-84358666D02*
X149232904Y-84358666D01*
X148661476Y-84644380D02*
X148994809Y-83644380D01*
X148994809Y-83644380D02*
X149328142Y-84644380D01*
X149661476Y-84644380D02*
X149661476Y-83644380D01*
X149661476Y-83644380D02*
X149899571Y-83644380D01*
X149899571Y-83644380D02*
X150042428Y-83692000D01*
X150042428Y-83692000D02*
X150137666Y-83787238D01*
X150137666Y-83787238D02*
X150185285Y-83882476D01*
X150185285Y-83882476D02*
X150232904Y-84072952D01*
X150232904Y-84072952D02*
X150232904Y-84215809D01*
X150232904Y-84215809D02*
X150185285Y-84406285D01*
X150185285Y-84406285D02*
X150137666Y-84501523D01*
X150137666Y-84501523D02*
X150042428Y-84596761D01*
X150042428Y-84596761D02*
X149899571Y-84644380D01*
X149899571Y-84644380D02*
X149661476Y-84644380D01*
X150851952Y-84168190D02*
X150851952Y-84644380D01*
X150518619Y-83644380D02*
X150851952Y-84168190D01*
X150851952Y-84168190D02*
X151185285Y-83644380D01*
%TO.C,X1*%
X124342619Y-63572381D02*
X123342619Y-64239047D01*
X124342619Y-64239047D02*
X123342619Y-63572381D01*
X124342619Y-64477143D02*
X124342619Y-65048571D01*
X123342619Y-64762857D02*
X124342619Y-64762857D01*
X123628333Y-65334286D02*
X123628333Y-65810476D01*
X123342619Y-65239048D02*
X124342619Y-65572381D01*
X124342619Y-65572381D02*
X123342619Y-65905714D01*
X123342619Y-66715238D02*
X123342619Y-66239048D01*
X123342619Y-66239048D02*
X124342619Y-66239048D01*
X124342619Y-67839048D02*
X124342619Y-68029524D01*
X124342619Y-68029524D02*
X124295000Y-68124762D01*
X124295000Y-68124762D02*
X124199761Y-68220000D01*
X124199761Y-68220000D02*
X124009285Y-68267619D01*
X124009285Y-68267619D02*
X123675952Y-68267619D01*
X123675952Y-68267619D02*
X123485476Y-68220000D01*
X123485476Y-68220000D02*
X123390238Y-68124762D01*
X123390238Y-68124762D02*
X123342619Y-68029524D01*
X123342619Y-68029524D02*
X123342619Y-67839048D01*
X123342619Y-67839048D02*
X123390238Y-67743810D01*
X123390238Y-67743810D02*
X123485476Y-67648572D01*
X123485476Y-67648572D02*
X123675952Y-67600953D01*
X123675952Y-67600953D02*
X124009285Y-67600953D01*
X124009285Y-67600953D02*
X124199761Y-67648572D01*
X124199761Y-67648572D02*
X124295000Y-67743810D01*
X124295000Y-67743810D02*
X124342619Y-67839048D01*
X123390238Y-68648572D02*
X123342619Y-68791429D01*
X123342619Y-68791429D02*
X123342619Y-69029524D01*
X123342619Y-69029524D02*
X123390238Y-69124762D01*
X123390238Y-69124762D02*
X123437857Y-69172381D01*
X123437857Y-69172381D02*
X123533095Y-69220000D01*
X123533095Y-69220000D02*
X123628333Y-69220000D01*
X123628333Y-69220000D02*
X123723571Y-69172381D01*
X123723571Y-69172381D02*
X123771190Y-69124762D01*
X123771190Y-69124762D02*
X123818809Y-69029524D01*
X123818809Y-69029524D02*
X123866428Y-68839048D01*
X123866428Y-68839048D02*
X123914047Y-68743810D01*
X123914047Y-68743810D02*
X123961666Y-68696191D01*
X123961666Y-68696191D02*
X124056904Y-68648572D01*
X124056904Y-68648572D02*
X124152142Y-68648572D01*
X124152142Y-68648572D02*
X124247380Y-68696191D01*
X124247380Y-68696191D02*
X124295000Y-68743810D01*
X124295000Y-68743810D02*
X124342619Y-68839048D01*
X124342619Y-68839048D02*
X124342619Y-69077143D01*
X124342619Y-69077143D02*
X124295000Y-69220000D01*
X123437857Y-70220000D02*
X123390238Y-70172381D01*
X123390238Y-70172381D02*
X123342619Y-70029524D01*
X123342619Y-70029524D02*
X123342619Y-69934286D01*
X123342619Y-69934286D02*
X123390238Y-69791429D01*
X123390238Y-69791429D02*
X123485476Y-69696191D01*
X123485476Y-69696191D02*
X123580714Y-69648572D01*
X123580714Y-69648572D02*
X123771190Y-69600953D01*
X123771190Y-69600953D02*
X123914047Y-69600953D01*
X123914047Y-69600953D02*
X124104523Y-69648572D01*
X124104523Y-69648572D02*
X124199761Y-69696191D01*
X124199761Y-69696191D02*
X124295000Y-69791429D01*
X124295000Y-69791429D02*
X124342619Y-69934286D01*
X124342619Y-69934286D02*
X124342619Y-70029524D01*
X124342619Y-70029524D02*
X124295000Y-70172381D01*
X124295000Y-70172381D02*
X124247380Y-70220000D01*
%TO.C,J1*%
X176174714Y-117239142D02*
X176127095Y-117286761D01*
X176127095Y-117286761D02*
X175984238Y-117334380D01*
X175984238Y-117334380D02*
X175889000Y-117334380D01*
X175889000Y-117334380D02*
X175746143Y-117286761D01*
X175746143Y-117286761D02*
X175650905Y-117191523D01*
X175650905Y-117191523D02*
X175603286Y-117096285D01*
X175603286Y-117096285D02*
X175555667Y-116905809D01*
X175555667Y-116905809D02*
X175555667Y-116762952D01*
X175555667Y-116762952D02*
X175603286Y-116572476D01*
X175603286Y-116572476D02*
X175650905Y-116477238D01*
X175650905Y-116477238D02*
X175746143Y-116382000D01*
X175746143Y-116382000D02*
X175889000Y-116334380D01*
X175889000Y-116334380D02*
X175984238Y-116334380D01*
X175984238Y-116334380D02*
X176127095Y-116382000D01*
X176127095Y-116382000D02*
X176174714Y-116429619D01*
X176603286Y-117334380D02*
X176603286Y-116334380D01*
X176603286Y-116334380D02*
X176984238Y-116334380D01*
X176984238Y-116334380D02*
X177079476Y-116382000D01*
X177079476Y-116382000D02*
X177127095Y-116429619D01*
X177127095Y-116429619D02*
X177174714Y-116524857D01*
X177174714Y-116524857D02*
X177174714Y-116667714D01*
X177174714Y-116667714D02*
X177127095Y-116762952D01*
X177127095Y-116762952D02*
X177079476Y-116810571D01*
X177079476Y-116810571D02*
X176984238Y-116858190D01*
X176984238Y-116858190D02*
X176603286Y-116858190D01*
X177603286Y-116334380D02*
X177603286Y-117143904D01*
X177603286Y-117143904D02*
X177650905Y-117239142D01*
X177650905Y-117239142D02*
X177698524Y-117286761D01*
X177698524Y-117286761D02*
X177793762Y-117334380D01*
X177793762Y-117334380D02*
X177984238Y-117334380D01*
X177984238Y-117334380D02*
X178079476Y-117286761D01*
X178079476Y-117286761D02*
X178127095Y-117239142D01*
X178127095Y-117239142D02*
X178174714Y-117143904D01*
X178174714Y-117143904D02*
X178174714Y-116334380D01*
X179584238Y-116810571D02*
X179727095Y-116858190D01*
X179727095Y-116858190D02*
X179774714Y-116905809D01*
X179774714Y-116905809D02*
X179822333Y-117001047D01*
X179822333Y-117001047D02*
X179822333Y-117143904D01*
X179822333Y-117143904D02*
X179774714Y-117239142D01*
X179774714Y-117239142D02*
X179727095Y-117286761D01*
X179727095Y-117286761D02*
X179631857Y-117334380D01*
X179631857Y-117334380D02*
X179250905Y-117334380D01*
X179250905Y-117334380D02*
X179250905Y-116334380D01*
X179250905Y-116334380D02*
X179584238Y-116334380D01*
X179584238Y-116334380D02*
X179679476Y-116382000D01*
X179679476Y-116382000D02*
X179727095Y-116429619D01*
X179727095Y-116429619D02*
X179774714Y-116524857D01*
X179774714Y-116524857D02*
X179774714Y-116620095D01*
X179774714Y-116620095D02*
X179727095Y-116715333D01*
X179727095Y-116715333D02*
X179679476Y-116762952D01*
X179679476Y-116762952D02*
X179584238Y-116810571D01*
X179584238Y-116810571D02*
X179250905Y-116810571D01*
X180250905Y-116334380D02*
X180250905Y-117143904D01*
X180250905Y-117143904D02*
X180298524Y-117239142D01*
X180298524Y-117239142D02*
X180346143Y-117286761D01*
X180346143Y-117286761D02*
X180441381Y-117334380D01*
X180441381Y-117334380D02*
X180631857Y-117334380D01*
X180631857Y-117334380D02*
X180727095Y-117286761D01*
X180727095Y-117286761D02*
X180774714Y-117239142D01*
X180774714Y-117239142D02*
X180822333Y-117143904D01*
X180822333Y-117143904D02*
X180822333Y-116334380D01*
X181250905Y-117286761D02*
X181393762Y-117334380D01*
X181393762Y-117334380D02*
X181631857Y-117334380D01*
X181631857Y-117334380D02*
X181727095Y-117286761D01*
X181727095Y-117286761D02*
X181774714Y-117239142D01*
X181774714Y-117239142D02*
X181822333Y-117143904D01*
X181822333Y-117143904D02*
X181822333Y-117048666D01*
X181822333Y-117048666D02*
X181774714Y-116953428D01*
X181774714Y-116953428D02*
X181727095Y-116905809D01*
X181727095Y-116905809D02*
X181631857Y-116858190D01*
X181631857Y-116858190D02*
X181441381Y-116810571D01*
X181441381Y-116810571D02*
X181346143Y-116762952D01*
X181346143Y-116762952D02*
X181298524Y-116715333D01*
X181298524Y-116715333D02*
X181250905Y-116620095D01*
X181250905Y-116620095D02*
X181250905Y-116524857D01*
X181250905Y-116524857D02*
X181298524Y-116429619D01*
X181298524Y-116429619D02*
X181346143Y-116382000D01*
X181346143Y-116382000D02*
X181441381Y-116334380D01*
X181441381Y-116334380D02*
X181679476Y-116334380D01*
X181679476Y-116334380D02*
X181822333Y-116382000D01*
%TO.C,U3*%
X164183495Y-54997380D02*
X164183495Y-55806904D01*
X164183495Y-55806904D02*
X164231114Y-55902142D01*
X164231114Y-55902142D02*
X164278733Y-55949761D01*
X164278733Y-55949761D02*
X164373971Y-55997380D01*
X164373971Y-55997380D02*
X164564447Y-55997380D01*
X164564447Y-55997380D02*
X164659685Y-55949761D01*
X164659685Y-55949761D02*
X164707304Y-55902142D01*
X164707304Y-55902142D02*
X164754923Y-55806904D01*
X164754923Y-55806904D02*
X164754923Y-54997380D01*
X165135876Y-54997380D02*
X165754923Y-54997380D01*
X165754923Y-54997380D02*
X165421590Y-55378333D01*
X165421590Y-55378333D02*
X165564447Y-55378333D01*
X165564447Y-55378333D02*
X165659685Y-55425952D01*
X165659685Y-55425952D02*
X165707304Y-55473571D01*
X165707304Y-55473571D02*
X165754923Y-55568809D01*
X165754923Y-55568809D02*
X165754923Y-55806904D01*
X165754923Y-55806904D02*
X165707304Y-55902142D01*
X165707304Y-55902142D02*
X165659685Y-55949761D01*
X165659685Y-55949761D02*
X165564447Y-55997380D01*
X165564447Y-55997380D02*
X165278733Y-55997380D01*
X165278733Y-55997380D02*
X165183495Y-55949761D01*
X165183495Y-55949761D02*
X165135876Y-55902142D01*
X159063495Y-68093304D02*
X159863495Y-68093304D01*
X159863495Y-68093304D02*
X159063495Y-68550447D01*
X159063495Y-68550447D02*
X159863495Y-68550447D01*
X159063495Y-69274256D02*
X159482542Y-69274256D01*
X159482542Y-69274256D02*
X159558733Y-69236161D01*
X159558733Y-69236161D02*
X159596828Y-69159970D01*
X159596828Y-69159970D02*
X159596828Y-69007589D01*
X159596828Y-69007589D02*
X159558733Y-68931399D01*
X159101590Y-69274256D02*
X159063495Y-69198065D01*
X159063495Y-69198065D02*
X159063495Y-69007589D01*
X159063495Y-69007589D02*
X159101590Y-68931399D01*
X159101590Y-68931399D02*
X159177780Y-68893303D01*
X159177780Y-68893303D02*
X159253971Y-68893303D01*
X159253971Y-68893303D02*
X159330161Y-68931399D01*
X159330161Y-68931399D02*
X159368257Y-69007589D01*
X159368257Y-69007589D02*
X159368257Y-69198065D01*
X159368257Y-69198065D02*
X159406352Y-69274256D01*
X159063495Y-69655209D02*
X159596828Y-69655209D01*
X159444447Y-69655209D02*
X159520638Y-69693304D01*
X159520638Y-69693304D02*
X159558733Y-69731399D01*
X159558733Y-69731399D02*
X159596828Y-69807590D01*
X159596828Y-69807590D02*
X159596828Y-69883780D01*
X159063495Y-70150447D02*
X159596828Y-70150447D01*
X159444447Y-70150447D02*
X159520638Y-70188542D01*
X159520638Y-70188542D02*
X159558733Y-70226637D01*
X159558733Y-70226637D02*
X159596828Y-70302828D01*
X159596828Y-70302828D02*
X159596828Y-70379018D01*
X159063495Y-70759970D02*
X159101590Y-70683780D01*
X159101590Y-70683780D02*
X159139685Y-70645685D01*
X159139685Y-70645685D02*
X159215876Y-70607589D01*
X159215876Y-70607589D02*
X159444447Y-70607589D01*
X159444447Y-70607589D02*
X159520638Y-70645685D01*
X159520638Y-70645685D02*
X159558733Y-70683780D01*
X159558733Y-70683780D02*
X159596828Y-70759970D01*
X159596828Y-70759970D02*
X159596828Y-70874256D01*
X159596828Y-70874256D02*
X159558733Y-70950447D01*
X159558733Y-70950447D02*
X159520638Y-70988542D01*
X159520638Y-70988542D02*
X159444447Y-71026637D01*
X159444447Y-71026637D02*
X159215876Y-71026637D01*
X159215876Y-71026637D02*
X159139685Y-70988542D01*
X159139685Y-70988542D02*
X159101590Y-70950447D01*
X159101590Y-70950447D02*
X159063495Y-70874256D01*
X159063495Y-70874256D02*
X159063495Y-70759970D01*
X159596828Y-71293304D02*
X159063495Y-71445685D01*
X159063495Y-71445685D02*
X159444447Y-71598066D01*
X159444447Y-71598066D02*
X159063495Y-71750447D01*
X159063495Y-71750447D02*
X159596828Y-71902828D01*
X159139685Y-73144733D02*
X159101590Y-73106637D01*
X159101590Y-73106637D02*
X159063495Y-72992352D01*
X159063495Y-72992352D02*
X159063495Y-72916161D01*
X159063495Y-72916161D02*
X159101590Y-72801875D01*
X159101590Y-72801875D02*
X159177780Y-72725685D01*
X159177780Y-72725685D02*
X159253971Y-72687590D01*
X159253971Y-72687590D02*
X159406352Y-72649494D01*
X159406352Y-72649494D02*
X159520638Y-72649494D01*
X159520638Y-72649494D02*
X159673019Y-72687590D01*
X159673019Y-72687590D02*
X159749209Y-72725685D01*
X159749209Y-72725685D02*
X159825400Y-72801875D01*
X159825400Y-72801875D02*
X159863495Y-72916161D01*
X159863495Y-72916161D02*
X159863495Y-72992352D01*
X159863495Y-72992352D02*
X159825400Y-73106637D01*
X159825400Y-73106637D02*
X159787304Y-73144733D01*
X159063495Y-73487590D02*
X159863495Y-73487590D01*
X159063495Y-73830447D02*
X159482542Y-73830447D01*
X159482542Y-73830447D02*
X159558733Y-73792352D01*
X159558733Y-73792352D02*
X159596828Y-73716161D01*
X159596828Y-73716161D02*
X159596828Y-73601875D01*
X159596828Y-73601875D02*
X159558733Y-73525685D01*
X159558733Y-73525685D02*
X159520638Y-73487590D01*
X159063495Y-74211400D02*
X159596828Y-74211400D01*
X159863495Y-74211400D02*
X159825400Y-74173304D01*
X159825400Y-74173304D02*
X159787304Y-74211400D01*
X159787304Y-74211400D02*
X159825400Y-74249495D01*
X159825400Y-74249495D02*
X159863495Y-74211400D01*
X159863495Y-74211400D02*
X159787304Y-74211400D01*
X159596828Y-74592352D02*
X158796828Y-74592352D01*
X159558733Y-74592352D02*
X159596828Y-74668542D01*
X159596828Y-74668542D02*
X159596828Y-74820923D01*
X159596828Y-74820923D02*
X159558733Y-74897114D01*
X159558733Y-74897114D02*
X159520638Y-74935209D01*
X159520638Y-74935209D02*
X159444447Y-74973304D01*
X159444447Y-74973304D02*
X159215876Y-74973304D01*
X159215876Y-74973304D02*
X159139685Y-74935209D01*
X159139685Y-74935209D02*
X159101590Y-74897114D01*
X159101590Y-74897114D02*
X159063495Y-74820923D01*
X159063495Y-74820923D02*
X159063495Y-74668542D01*
X159063495Y-74668542D02*
X159101590Y-74592352D01*
X159863495Y-75681876D02*
X159863495Y-76139019D01*
X159063495Y-75910447D02*
X159863495Y-75910447D01*
X159063495Y-76405686D02*
X159863495Y-76405686D01*
X159063495Y-76748543D02*
X159482542Y-76748543D01*
X159482542Y-76748543D02*
X159558733Y-76710448D01*
X159558733Y-76710448D02*
X159596828Y-76634257D01*
X159596828Y-76634257D02*
X159596828Y-76519971D01*
X159596828Y-76519971D02*
X159558733Y-76443781D01*
X159558733Y-76443781D02*
X159520638Y-76405686D01*
X159063495Y-77129496D02*
X159596828Y-77129496D01*
X159863495Y-77129496D02*
X159825400Y-77091400D01*
X159825400Y-77091400D02*
X159787304Y-77129496D01*
X159787304Y-77129496D02*
X159825400Y-77167591D01*
X159825400Y-77167591D02*
X159863495Y-77129496D01*
X159863495Y-77129496D02*
X159787304Y-77129496D01*
X159101590Y-77472352D02*
X159063495Y-77548543D01*
X159063495Y-77548543D02*
X159063495Y-77700924D01*
X159063495Y-77700924D02*
X159101590Y-77777114D01*
X159101590Y-77777114D02*
X159177780Y-77815210D01*
X159177780Y-77815210D02*
X159215876Y-77815210D01*
X159215876Y-77815210D02*
X159292066Y-77777114D01*
X159292066Y-77777114D02*
X159330161Y-77700924D01*
X159330161Y-77700924D02*
X159330161Y-77586638D01*
X159330161Y-77586638D02*
X159368257Y-77510448D01*
X159368257Y-77510448D02*
X159444447Y-77472352D01*
X159444447Y-77472352D02*
X159482542Y-77472352D01*
X159482542Y-77472352D02*
X159558733Y-77510448D01*
X159558733Y-77510448D02*
X159596828Y-77586638D01*
X159596828Y-77586638D02*
X159596828Y-77700924D01*
X159596828Y-77700924D02*
X159558733Y-77777114D01*
X159101590Y-78599971D02*
X159063495Y-78714257D01*
X159063495Y-78714257D02*
X159063495Y-78904733D01*
X159063495Y-78904733D02*
X159101590Y-78980924D01*
X159101590Y-78980924D02*
X159139685Y-79019019D01*
X159139685Y-79019019D02*
X159215876Y-79057114D01*
X159215876Y-79057114D02*
X159292066Y-79057114D01*
X159292066Y-79057114D02*
X159368257Y-79019019D01*
X159368257Y-79019019D02*
X159406352Y-78980924D01*
X159406352Y-78980924D02*
X159444447Y-78904733D01*
X159444447Y-78904733D02*
X159482542Y-78752352D01*
X159482542Y-78752352D02*
X159520638Y-78676162D01*
X159520638Y-78676162D02*
X159558733Y-78638067D01*
X159558733Y-78638067D02*
X159634923Y-78599971D01*
X159634923Y-78599971D02*
X159711114Y-78599971D01*
X159711114Y-78599971D02*
X159787304Y-78638067D01*
X159787304Y-78638067D02*
X159825400Y-78676162D01*
X159825400Y-78676162D02*
X159863495Y-78752352D01*
X159863495Y-78752352D02*
X159863495Y-78942829D01*
X159863495Y-78942829D02*
X159825400Y-79057114D01*
X159063495Y-79399972D02*
X159596828Y-79399972D01*
X159863495Y-79399972D02*
X159825400Y-79361876D01*
X159825400Y-79361876D02*
X159787304Y-79399972D01*
X159787304Y-79399972D02*
X159825400Y-79438067D01*
X159825400Y-79438067D02*
X159863495Y-79399972D01*
X159863495Y-79399972D02*
X159787304Y-79399972D01*
X159063495Y-80123781D02*
X159863495Y-80123781D01*
X159101590Y-80123781D02*
X159063495Y-80047590D01*
X159063495Y-80047590D02*
X159063495Y-79895209D01*
X159063495Y-79895209D02*
X159101590Y-79819019D01*
X159101590Y-79819019D02*
X159139685Y-79780924D01*
X159139685Y-79780924D02*
X159215876Y-79742828D01*
X159215876Y-79742828D02*
X159444447Y-79742828D01*
X159444447Y-79742828D02*
X159520638Y-79780924D01*
X159520638Y-79780924D02*
X159558733Y-79819019D01*
X159558733Y-79819019D02*
X159596828Y-79895209D01*
X159596828Y-79895209D02*
X159596828Y-80047590D01*
X159596828Y-80047590D02*
X159558733Y-80123781D01*
X159101590Y-80809496D02*
X159063495Y-80733305D01*
X159063495Y-80733305D02*
X159063495Y-80580924D01*
X159063495Y-80580924D02*
X159101590Y-80504734D01*
X159101590Y-80504734D02*
X159177780Y-80466638D01*
X159177780Y-80466638D02*
X159482542Y-80466638D01*
X159482542Y-80466638D02*
X159558733Y-80504734D01*
X159558733Y-80504734D02*
X159596828Y-80580924D01*
X159596828Y-80580924D02*
X159596828Y-80733305D01*
X159596828Y-80733305D02*
X159558733Y-80809496D01*
X159558733Y-80809496D02*
X159482542Y-80847591D01*
X159482542Y-80847591D02*
X159406352Y-80847591D01*
X159406352Y-80847591D02*
X159330161Y-80466638D01*
%TO.C,C2*%
X141597237Y-117080380D02*
X141025809Y-117080380D01*
X141311523Y-117080380D02*
X141311523Y-116080380D01*
X141311523Y-116080380D02*
X141216285Y-116223238D01*
X141216285Y-116223238D02*
X141121047Y-116318476D01*
X141121047Y-116318476D02*
X141025809Y-116366095D01*
X142216285Y-116080380D02*
X142311523Y-116080380D01*
X142311523Y-116080380D02*
X142406761Y-116128000D01*
X142406761Y-116128000D02*
X142454380Y-116175619D01*
X142454380Y-116175619D02*
X142501999Y-116270857D01*
X142501999Y-116270857D02*
X142549618Y-116461333D01*
X142549618Y-116461333D02*
X142549618Y-116699428D01*
X142549618Y-116699428D02*
X142501999Y-116889904D01*
X142501999Y-116889904D02*
X142454380Y-116985142D01*
X142454380Y-116985142D02*
X142406761Y-117032761D01*
X142406761Y-117032761D02*
X142311523Y-117080380D01*
X142311523Y-117080380D02*
X142216285Y-117080380D01*
X142216285Y-117080380D02*
X142121047Y-117032761D01*
X142121047Y-117032761D02*
X142073428Y-116985142D01*
X142073428Y-116985142D02*
X142025809Y-116889904D01*
X142025809Y-116889904D02*
X141978190Y-116699428D01*
X141978190Y-116699428D02*
X141978190Y-116461333D01*
X141978190Y-116461333D02*
X142025809Y-116270857D01*
X142025809Y-116270857D02*
X142073428Y-116175619D01*
X142073428Y-116175619D02*
X142121047Y-116128000D01*
X142121047Y-116128000D02*
X142216285Y-116080380D01*
X143168666Y-116080380D02*
X143263904Y-116080380D01*
X143263904Y-116080380D02*
X143359142Y-116128000D01*
X143359142Y-116128000D02*
X143406761Y-116175619D01*
X143406761Y-116175619D02*
X143454380Y-116270857D01*
X143454380Y-116270857D02*
X143501999Y-116461333D01*
X143501999Y-116461333D02*
X143501999Y-116699428D01*
X143501999Y-116699428D02*
X143454380Y-116889904D01*
X143454380Y-116889904D02*
X143406761Y-116985142D01*
X143406761Y-116985142D02*
X143359142Y-117032761D01*
X143359142Y-117032761D02*
X143263904Y-117080380D01*
X143263904Y-117080380D02*
X143168666Y-117080380D01*
X143168666Y-117080380D02*
X143073428Y-117032761D01*
X143073428Y-117032761D02*
X143025809Y-116985142D01*
X143025809Y-116985142D02*
X142978190Y-116889904D01*
X142978190Y-116889904D02*
X142930571Y-116699428D01*
X142930571Y-116699428D02*
X142930571Y-116461333D01*
X142930571Y-116461333D02*
X142978190Y-116270857D01*
X142978190Y-116270857D02*
X143025809Y-116175619D01*
X143025809Y-116175619D02*
X143073428Y-116128000D01*
X143073428Y-116128000D02*
X143168666Y-116080380D01*
X144359142Y-116413714D02*
X144359142Y-117080380D01*
X143930571Y-116413714D02*
X143930571Y-116937523D01*
X143930571Y-116937523D02*
X143978190Y-117032761D01*
X143978190Y-117032761D02*
X144073428Y-117080380D01*
X144073428Y-117080380D02*
X144216285Y-117080380D01*
X144216285Y-117080380D02*
X144311523Y-117032761D01*
X144311523Y-117032761D02*
X144359142Y-116985142D01*
X144692476Y-116413714D02*
X145073428Y-116413714D01*
X144835333Y-117080380D02*
X144835333Y-116223238D01*
X144835333Y-116223238D02*
X144882952Y-116128000D01*
X144882952Y-116128000D02*
X144978190Y-116080380D01*
X144978190Y-116080380D02*
X145073428Y-116080380D01*
%TO.C,U4*%
X139088761Y-114832856D02*
X139136380Y-114689999D01*
X139136380Y-114689999D02*
X139136380Y-114451904D01*
X139136380Y-114451904D02*
X139088761Y-114356666D01*
X139088761Y-114356666D02*
X139041142Y-114309047D01*
X139041142Y-114309047D02*
X138945904Y-114261428D01*
X138945904Y-114261428D02*
X138850666Y-114261428D01*
X138850666Y-114261428D02*
X138755428Y-114309047D01*
X138755428Y-114309047D02*
X138707809Y-114356666D01*
X138707809Y-114356666D02*
X138660190Y-114451904D01*
X138660190Y-114451904D02*
X138612571Y-114642380D01*
X138612571Y-114642380D02*
X138564952Y-114737618D01*
X138564952Y-114737618D02*
X138517333Y-114785237D01*
X138517333Y-114785237D02*
X138422095Y-114832856D01*
X138422095Y-114832856D02*
X138326857Y-114832856D01*
X138326857Y-114832856D02*
X138231619Y-114785237D01*
X138231619Y-114785237D02*
X138184000Y-114737618D01*
X138184000Y-114737618D02*
X138136380Y-114642380D01*
X138136380Y-114642380D02*
X138136380Y-114404285D01*
X138136380Y-114404285D02*
X138184000Y-114261428D01*
X139136380Y-113832856D02*
X138136380Y-113832856D01*
X138136380Y-113832856D02*
X139136380Y-113261428D01*
X139136380Y-113261428D02*
X138136380Y-113261428D01*
X138136380Y-112880475D02*
X138136380Y-112213809D01*
X138136380Y-112213809D02*
X139136380Y-112642380D01*
X138136380Y-111404285D02*
X138136380Y-111594761D01*
X138136380Y-111594761D02*
X138184000Y-111689999D01*
X138184000Y-111689999D02*
X138231619Y-111737618D01*
X138231619Y-111737618D02*
X138374476Y-111832856D01*
X138374476Y-111832856D02*
X138564952Y-111880475D01*
X138564952Y-111880475D02*
X138945904Y-111880475D01*
X138945904Y-111880475D02*
X139041142Y-111832856D01*
X139041142Y-111832856D02*
X139088761Y-111785237D01*
X139088761Y-111785237D02*
X139136380Y-111689999D01*
X139136380Y-111689999D02*
X139136380Y-111499523D01*
X139136380Y-111499523D02*
X139088761Y-111404285D01*
X139088761Y-111404285D02*
X139041142Y-111356666D01*
X139041142Y-111356666D02*
X138945904Y-111309047D01*
X138945904Y-111309047D02*
X138707809Y-111309047D01*
X138707809Y-111309047D02*
X138612571Y-111356666D01*
X138612571Y-111356666D02*
X138564952Y-111404285D01*
X138564952Y-111404285D02*
X138517333Y-111499523D01*
X138517333Y-111499523D02*
X138517333Y-111689999D01*
X138517333Y-111689999D02*
X138564952Y-111785237D01*
X138564952Y-111785237D02*
X138612571Y-111832856D01*
X138612571Y-111832856D02*
X138707809Y-111880475D01*
X138469714Y-110451904D02*
X139136380Y-110451904D01*
X138088761Y-110689999D02*
X138803047Y-110928094D01*
X138803047Y-110928094D02*
X138803047Y-110309047D01*
X138564952Y-109785237D02*
X138517333Y-109880475D01*
X138517333Y-109880475D02*
X138469714Y-109928094D01*
X138469714Y-109928094D02*
X138374476Y-109975713D01*
X138374476Y-109975713D02*
X138326857Y-109975713D01*
X138326857Y-109975713D02*
X138231619Y-109928094D01*
X138231619Y-109928094D02*
X138184000Y-109880475D01*
X138184000Y-109880475D02*
X138136380Y-109785237D01*
X138136380Y-109785237D02*
X138136380Y-109594761D01*
X138136380Y-109594761D02*
X138184000Y-109499523D01*
X138184000Y-109499523D02*
X138231619Y-109451904D01*
X138231619Y-109451904D02*
X138326857Y-109404285D01*
X138326857Y-109404285D02*
X138374476Y-109404285D01*
X138374476Y-109404285D02*
X138469714Y-109451904D01*
X138469714Y-109451904D02*
X138517333Y-109499523D01*
X138517333Y-109499523D02*
X138564952Y-109594761D01*
X138564952Y-109594761D02*
X138564952Y-109785237D01*
X138564952Y-109785237D02*
X138612571Y-109880475D01*
X138612571Y-109880475D02*
X138660190Y-109928094D01*
X138660190Y-109928094D02*
X138755428Y-109975713D01*
X138755428Y-109975713D02*
X138945904Y-109975713D01*
X138945904Y-109975713D02*
X139041142Y-109928094D01*
X139041142Y-109928094D02*
X139088761Y-109880475D01*
X139088761Y-109880475D02*
X139136380Y-109785237D01*
X139136380Y-109785237D02*
X139136380Y-109594761D01*
X139136380Y-109594761D02*
X139088761Y-109499523D01*
X139088761Y-109499523D02*
X139041142Y-109451904D01*
X139041142Y-109451904D02*
X138945904Y-109404285D01*
X138945904Y-109404285D02*
X138755428Y-109404285D01*
X138755428Y-109404285D02*
X138660190Y-109451904D01*
X138660190Y-109451904D02*
X138612571Y-109499523D01*
X138612571Y-109499523D02*
X138564952Y-109594761D01*
X139136380Y-108928094D02*
X139136380Y-108737618D01*
X139136380Y-108737618D02*
X139088761Y-108642380D01*
X139088761Y-108642380D02*
X139041142Y-108594761D01*
X139041142Y-108594761D02*
X138898285Y-108499523D01*
X138898285Y-108499523D02*
X138707809Y-108451904D01*
X138707809Y-108451904D02*
X138326857Y-108451904D01*
X138326857Y-108451904D02*
X138231619Y-108499523D01*
X138231619Y-108499523D02*
X138184000Y-108547142D01*
X138184000Y-108547142D02*
X138136380Y-108642380D01*
X138136380Y-108642380D02*
X138136380Y-108832856D01*
X138136380Y-108832856D02*
X138184000Y-108928094D01*
X138184000Y-108928094D02*
X138231619Y-108975713D01*
X138231619Y-108975713D02*
X138326857Y-109023332D01*
X138326857Y-109023332D02*
X138564952Y-109023332D01*
X138564952Y-109023332D02*
X138660190Y-108975713D01*
X138660190Y-108975713D02*
X138707809Y-108928094D01*
X138707809Y-108928094D02*
X138755428Y-108832856D01*
X138755428Y-108832856D02*
X138755428Y-108642380D01*
X138755428Y-108642380D02*
X138707809Y-108547142D01*
X138707809Y-108547142D02*
X138660190Y-108499523D01*
X138660190Y-108499523D02*
X138564952Y-108451904D01*
X138850666Y-108070951D02*
X138850666Y-107594761D01*
X139136380Y-108166189D02*
X138136380Y-107832856D01*
X138136380Y-107832856D02*
X139136380Y-107499523D01*
X139136380Y-107166189D02*
X138136380Y-107166189D01*
X138136380Y-107166189D02*
X139136380Y-106594761D01*
X139136380Y-106594761D02*
X138136380Y-106594761D01*
%TO.C,U6*%
X134224286Y-74837380D02*
X134890952Y-74837380D01*
X134890952Y-74837380D02*
X134462381Y-75837380D01*
X135700476Y-75170714D02*
X135700476Y-75837380D01*
X135462381Y-74789761D02*
X135224286Y-75504047D01*
X135224286Y-75504047D02*
X135843333Y-75504047D01*
X136224286Y-75837380D02*
X136224286Y-74837380D01*
X136224286Y-75313571D02*
X136795714Y-75313571D01*
X136795714Y-75837380D02*
X136795714Y-74837380D01*
X137843333Y-75742142D02*
X137795714Y-75789761D01*
X137795714Y-75789761D02*
X137652857Y-75837380D01*
X137652857Y-75837380D02*
X137557619Y-75837380D01*
X137557619Y-75837380D02*
X137414762Y-75789761D01*
X137414762Y-75789761D02*
X137319524Y-75694523D01*
X137319524Y-75694523D02*
X137271905Y-75599285D01*
X137271905Y-75599285D02*
X137224286Y-75408809D01*
X137224286Y-75408809D02*
X137224286Y-75265952D01*
X137224286Y-75265952D02*
X137271905Y-75075476D01*
X137271905Y-75075476D02*
X137319524Y-74980238D01*
X137319524Y-74980238D02*
X137414762Y-74885000D01*
X137414762Y-74885000D02*
X137557619Y-74837380D01*
X137557619Y-74837380D02*
X137652857Y-74837380D01*
X137652857Y-74837380D02*
X137795714Y-74885000D01*
X137795714Y-74885000D02*
X137843333Y-74932619D01*
X138176667Y-74837380D02*
X138843333Y-74837380D01*
X138843333Y-74837380D02*
X138414762Y-75837380D01*
X139652857Y-75170714D02*
X139652857Y-75837380D01*
X139414762Y-74789761D02*
X139176667Y-75504047D01*
X139176667Y-75504047D02*
X139795714Y-75504047D01*
%TO.C,J6*%
X129726715Y-117192000D02*
X130298144Y-117192000D01*
X129612429Y-117534857D02*
X130012429Y-116334857D01*
X130012429Y-116334857D02*
X130412429Y-117534857D01*
X131326715Y-116734857D02*
X131326715Y-117534857D01*
X130812429Y-116734857D02*
X130812429Y-117363428D01*
X130812429Y-117363428D02*
X130869572Y-117477714D01*
X130869572Y-117477714D02*
X130983857Y-117534857D01*
X130983857Y-117534857D02*
X131155286Y-117534857D01*
X131155286Y-117534857D02*
X131269572Y-117477714D01*
X131269572Y-117477714D02*
X131326715Y-117420571D01*
X132412429Y-117534857D02*
X132412429Y-116334857D01*
X132412429Y-117477714D02*
X132298143Y-117534857D01*
X132298143Y-117534857D02*
X132069571Y-117534857D01*
X132069571Y-117534857D02*
X131955286Y-117477714D01*
X131955286Y-117477714D02*
X131898143Y-117420571D01*
X131898143Y-117420571D02*
X131841000Y-117306285D01*
X131841000Y-117306285D02*
X131841000Y-116963428D01*
X131841000Y-116963428D02*
X131898143Y-116849142D01*
X131898143Y-116849142D02*
X131955286Y-116792000D01*
X131955286Y-116792000D02*
X132069571Y-116734857D01*
X132069571Y-116734857D02*
X132298143Y-116734857D01*
X132298143Y-116734857D02*
X132412429Y-116792000D01*
X132983857Y-117534857D02*
X132983857Y-116734857D01*
X132983857Y-116334857D02*
X132926714Y-116392000D01*
X132926714Y-116392000D02*
X132983857Y-116449142D01*
X132983857Y-116449142D02*
X133041000Y-116392000D01*
X133041000Y-116392000D02*
X132983857Y-116334857D01*
X132983857Y-116334857D02*
X132983857Y-116449142D01*
X133726714Y-117534857D02*
X133612429Y-117477714D01*
X133612429Y-117477714D02*
X133555286Y-117420571D01*
X133555286Y-117420571D02*
X133498143Y-117306285D01*
X133498143Y-117306285D02*
X133498143Y-116963428D01*
X133498143Y-116963428D02*
X133555286Y-116849142D01*
X133555286Y-116849142D02*
X133612429Y-116792000D01*
X133612429Y-116792000D02*
X133726714Y-116734857D01*
X133726714Y-116734857D02*
X133898143Y-116734857D01*
X133898143Y-116734857D02*
X134012429Y-116792000D01*
X134012429Y-116792000D02*
X134069572Y-116849142D01*
X134069572Y-116849142D02*
X134126714Y-116963428D01*
X134126714Y-116963428D02*
X134126714Y-117306285D01*
X134126714Y-117306285D02*
X134069572Y-117420571D01*
X134069572Y-117420571D02*
X134012429Y-117477714D01*
X134012429Y-117477714D02*
X133898143Y-117534857D01*
X133898143Y-117534857D02*
X133726714Y-117534857D01*
X135589571Y-116334857D02*
X135818143Y-116334857D01*
X135818143Y-116334857D02*
X135932428Y-116392000D01*
X135932428Y-116392000D02*
X136046714Y-116506285D01*
X136046714Y-116506285D02*
X136103857Y-116734857D01*
X136103857Y-116734857D02*
X136103857Y-117134857D01*
X136103857Y-117134857D02*
X136046714Y-117363428D01*
X136046714Y-117363428D02*
X135932428Y-117477714D01*
X135932428Y-117477714D02*
X135818143Y-117534857D01*
X135818143Y-117534857D02*
X135589571Y-117534857D01*
X135589571Y-117534857D02*
X135475286Y-117477714D01*
X135475286Y-117477714D02*
X135361000Y-117363428D01*
X135361000Y-117363428D02*
X135303857Y-117134857D01*
X135303857Y-117134857D02*
X135303857Y-116734857D01*
X135303857Y-116734857D02*
X135361000Y-116506285D01*
X135361000Y-116506285D02*
X135475286Y-116392000D01*
X135475286Y-116392000D02*
X135589571Y-116334857D01*
X137132429Y-116734857D02*
X137132429Y-117534857D01*
X136618143Y-116734857D02*
X136618143Y-117363428D01*
X136618143Y-117363428D02*
X136675286Y-117477714D01*
X136675286Y-117477714D02*
X136789571Y-117534857D01*
X136789571Y-117534857D02*
X136961000Y-117534857D01*
X136961000Y-117534857D02*
X137075286Y-117477714D01*
X137075286Y-117477714D02*
X137132429Y-117420571D01*
X137532428Y-116734857D02*
X137989571Y-116734857D01*
X137703857Y-116334857D02*
X137703857Y-117363428D01*
X137703857Y-117363428D02*
X137761000Y-117477714D01*
X137761000Y-117477714D02*
X137875285Y-117534857D01*
X137875285Y-117534857D02*
X137989571Y-117534857D01*
%TO.C,J7*%
X119314238Y-81083714D02*
X119266619Y-81226571D01*
X119266619Y-81226571D02*
X119266619Y-81464666D01*
X119266619Y-81464666D02*
X119314238Y-81559904D01*
X119314238Y-81559904D02*
X119361857Y-81607523D01*
X119361857Y-81607523D02*
X119457095Y-81655142D01*
X119457095Y-81655142D02*
X119552333Y-81655142D01*
X119552333Y-81655142D02*
X119647571Y-81607523D01*
X119647571Y-81607523D02*
X119695190Y-81559904D01*
X119695190Y-81559904D02*
X119742809Y-81464666D01*
X119742809Y-81464666D02*
X119790428Y-81274190D01*
X119790428Y-81274190D02*
X119838047Y-81178952D01*
X119838047Y-81178952D02*
X119885666Y-81131333D01*
X119885666Y-81131333D02*
X119980904Y-81083714D01*
X119980904Y-81083714D02*
X120076142Y-81083714D01*
X120076142Y-81083714D02*
X120171380Y-81131333D01*
X120171380Y-81131333D02*
X120219000Y-81178952D01*
X120219000Y-81178952D02*
X120266619Y-81274190D01*
X120266619Y-81274190D02*
X120266619Y-81512285D01*
X120266619Y-81512285D02*
X120219000Y-81655142D01*
X119933285Y-81940857D02*
X119933285Y-82321809D01*
X120266619Y-82083714D02*
X119409476Y-82083714D01*
X119409476Y-82083714D02*
X119314238Y-82131333D01*
X119314238Y-82131333D02*
X119266619Y-82226571D01*
X119266619Y-82226571D02*
X119266619Y-82321809D01*
X119314238Y-83036095D02*
X119266619Y-82940857D01*
X119266619Y-82940857D02*
X119266619Y-82750381D01*
X119266619Y-82750381D02*
X119314238Y-82655143D01*
X119314238Y-82655143D02*
X119409476Y-82607524D01*
X119409476Y-82607524D02*
X119790428Y-82607524D01*
X119790428Y-82607524D02*
X119885666Y-82655143D01*
X119885666Y-82655143D02*
X119933285Y-82750381D01*
X119933285Y-82750381D02*
X119933285Y-82940857D01*
X119933285Y-82940857D02*
X119885666Y-83036095D01*
X119885666Y-83036095D02*
X119790428Y-83083714D01*
X119790428Y-83083714D02*
X119695190Y-83083714D01*
X119695190Y-83083714D02*
X119599952Y-82607524D01*
X119266619Y-83512286D02*
X119933285Y-83512286D01*
X119742809Y-83512286D02*
X119838047Y-83559905D01*
X119838047Y-83559905D02*
X119885666Y-83607524D01*
X119885666Y-83607524D02*
X119933285Y-83702762D01*
X119933285Y-83702762D02*
X119933285Y-83798000D01*
X119314238Y-84512286D02*
X119266619Y-84417048D01*
X119266619Y-84417048D02*
X119266619Y-84226572D01*
X119266619Y-84226572D02*
X119314238Y-84131334D01*
X119314238Y-84131334D02*
X119409476Y-84083715D01*
X119409476Y-84083715D02*
X119790428Y-84083715D01*
X119790428Y-84083715D02*
X119885666Y-84131334D01*
X119885666Y-84131334D02*
X119933285Y-84226572D01*
X119933285Y-84226572D02*
X119933285Y-84417048D01*
X119933285Y-84417048D02*
X119885666Y-84512286D01*
X119885666Y-84512286D02*
X119790428Y-84559905D01*
X119790428Y-84559905D02*
X119695190Y-84559905D01*
X119695190Y-84559905D02*
X119599952Y-84083715D01*
X119266619Y-85131334D02*
X119314238Y-85036096D01*
X119314238Y-85036096D02*
X119361857Y-84988477D01*
X119361857Y-84988477D02*
X119457095Y-84940858D01*
X119457095Y-84940858D02*
X119742809Y-84940858D01*
X119742809Y-84940858D02*
X119838047Y-84988477D01*
X119838047Y-84988477D02*
X119885666Y-85036096D01*
X119885666Y-85036096D02*
X119933285Y-85131334D01*
X119933285Y-85131334D02*
X119933285Y-85274191D01*
X119933285Y-85274191D02*
X119885666Y-85369429D01*
X119885666Y-85369429D02*
X119838047Y-85417048D01*
X119838047Y-85417048D02*
X119742809Y-85464667D01*
X119742809Y-85464667D02*
X119457095Y-85464667D01*
X119457095Y-85464667D02*
X119361857Y-85417048D01*
X119361857Y-85417048D02*
X119314238Y-85369429D01*
X119314238Y-85369429D02*
X119266619Y-85274191D01*
X119266619Y-85274191D02*
X119266619Y-85131334D01*
X119552333Y-86445620D02*
X119552333Y-86921810D01*
X119266619Y-86350382D02*
X120266619Y-86683715D01*
X120266619Y-86683715D02*
X119266619Y-87017048D01*
X119933285Y-87778953D02*
X119266619Y-87778953D01*
X119933285Y-87350382D02*
X119409476Y-87350382D01*
X119409476Y-87350382D02*
X119314238Y-87398001D01*
X119314238Y-87398001D02*
X119266619Y-87493239D01*
X119266619Y-87493239D02*
X119266619Y-87636096D01*
X119266619Y-87636096D02*
X119314238Y-87731334D01*
X119314238Y-87731334D02*
X119361857Y-87778953D01*
X119266619Y-88683715D02*
X120266619Y-88683715D01*
X119314238Y-88683715D02*
X119266619Y-88588477D01*
X119266619Y-88588477D02*
X119266619Y-88398001D01*
X119266619Y-88398001D02*
X119314238Y-88302763D01*
X119314238Y-88302763D02*
X119361857Y-88255144D01*
X119361857Y-88255144D02*
X119457095Y-88207525D01*
X119457095Y-88207525D02*
X119742809Y-88207525D01*
X119742809Y-88207525D02*
X119838047Y-88255144D01*
X119838047Y-88255144D02*
X119885666Y-88302763D01*
X119885666Y-88302763D02*
X119933285Y-88398001D01*
X119933285Y-88398001D02*
X119933285Y-88588477D01*
X119933285Y-88588477D02*
X119885666Y-88683715D01*
X119266619Y-89159906D02*
X119933285Y-89159906D01*
X120266619Y-89159906D02*
X120219000Y-89112287D01*
X120219000Y-89112287D02*
X120171380Y-89159906D01*
X120171380Y-89159906D02*
X120219000Y-89207525D01*
X120219000Y-89207525D02*
X120266619Y-89159906D01*
X120266619Y-89159906D02*
X120171380Y-89159906D01*
X119266619Y-89778953D02*
X119314238Y-89683715D01*
X119314238Y-89683715D02*
X119361857Y-89636096D01*
X119361857Y-89636096D02*
X119457095Y-89588477D01*
X119457095Y-89588477D02*
X119742809Y-89588477D01*
X119742809Y-89588477D02*
X119838047Y-89636096D01*
X119838047Y-89636096D02*
X119885666Y-89683715D01*
X119885666Y-89683715D02*
X119933285Y-89778953D01*
X119933285Y-89778953D02*
X119933285Y-89921810D01*
X119933285Y-89921810D02*
X119885666Y-90017048D01*
X119885666Y-90017048D02*
X119838047Y-90064667D01*
X119838047Y-90064667D02*
X119742809Y-90112286D01*
X119742809Y-90112286D02*
X119457095Y-90112286D01*
X119457095Y-90112286D02*
X119361857Y-90064667D01*
X119361857Y-90064667D02*
X119314238Y-90017048D01*
X119314238Y-90017048D02*
X119266619Y-89921810D01*
X119266619Y-89921810D02*
X119266619Y-89778953D01*
%TO.C,R3*%
X148195380Y-100322047D02*
X148195380Y-100893475D01*
X148195380Y-100607761D02*
X147195380Y-100607761D01*
X147195380Y-100607761D02*
X147338238Y-100702999D01*
X147338238Y-100702999D02*
X147433476Y-100798237D01*
X147433476Y-100798237D02*
X147481095Y-100893475D01*
X148195380Y-99893475D02*
X147195380Y-99893475D01*
X147814428Y-99798237D02*
X148195380Y-99512523D01*
X147528714Y-99512523D02*
X147909666Y-99893475D01*
%TO.C,U1*%
X146324286Y-74980380D02*
X146990952Y-74980380D01*
X146990952Y-74980380D02*
X146562381Y-75980380D01*
X147800476Y-75313714D02*
X147800476Y-75980380D01*
X147562381Y-74932761D02*
X147324286Y-75647047D01*
X147324286Y-75647047D02*
X147943333Y-75647047D01*
X148324286Y-75980380D02*
X148324286Y-74980380D01*
X148324286Y-75456571D02*
X148895714Y-75456571D01*
X148895714Y-75980380D02*
X148895714Y-74980380D01*
X149943333Y-75885142D02*
X149895714Y-75932761D01*
X149895714Y-75932761D02*
X149752857Y-75980380D01*
X149752857Y-75980380D02*
X149657619Y-75980380D01*
X149657619Y-75980380D02*
X149514762Y-75932761D01*
X149514762Y-75932761D02*
X149419524Y-75837523D01*
X149419524Y-75837523D02*
X149371905Y-75742285D01*
X149371905Y-75742285D02*
X149324286Y-75551809D01*
X149324286Y-75551809D02*
X149324286Y-75408952D01*
X149324286Y-75408952D02*
X149371905Y-75218476D01*
X149371905Y-75218476D02*
X149419524Y-75123238D01*
X149419524Y-75123238D02*
X149514762Y-75028000D01*
X149514762Y-75028000D02*
X149657619Y-74980380D01*
X149657619Y-74980380D02*
X149752857Y-74980380D01*
X149752857Y-74980380D02*
X149895714Y-75028000D01*
X149895714Y-75028000D02*
X149943333Y-75075619D01*
X150562381Y-74980380D02*
X150657619Y-74980380D01*
X150657619Y-74980380D02*
X150752857Y-75028000D01*
X150752857Y-75028000D02*
X150800476Y-75075619D01*
X150800476Y-75075619D02*
X150848095Y-75170857D01*
X150848095Y-75170857D02*
X150895714Y-75361333D01*
X150895714Y-75361333D02*
X150895714Y-75599428D01*
X150895714Y-75599428D02*
X150848095Y-75789904D01*
X150848095Y-75789904D02*
X150800476Y-75885142D01*
X150800476Y-75885142D02*
X150752857Y-75932761D01*
X150752857Y-75932761D02*
X150657619Y-75980380D01*
X150657619Y-75980380D02*
X150562381Y-75980380D01*
X150562381Y-75980380D02*
X150467143Y-75932761D01*
X150467143Y-75932761D02*
X150419524Y-75885142D01*
X150419524Y-75885142D02*
X150371905Y-75789904D01*
X150371905Y-75789904D02*
X150324286Y-75599428D01*
X150324286Y-75599428D02*
X150324286Y-75361333D01*
X150324286Y-75361333D02*
X150371905Y-75170857D01*
X150371905Y-75170857D02*
X150419524Y-75075619D01*
X150419524Y-75075619D02*
X150467143Y-75028000D01*
X150467143Y-75028000D02*
X150562381Y-74980380D01*
X151514762Y-74980380D02*
X151610000Y-74980380D01*
X151610000Y-74980380D02*
X151705238Y-75028000D01*
X151705238Y-75028000D02*
X151752857Y-75075619D01*
X151752857Y-75075619D02*
X151800476Y-75170857D01*
X151800476Y-75170857D02*
X151848095Y-75361333D01*
X151848095Y-75361333D02*
X151848095Y-75599428D01*
X151848095Y-75599428D02*
X151800476Y-75789904D01*
X151800476Y-75789904D02*
X151752857Y-75885142D01*
X151752857Y-75885142D02*
X151705238Y-75932761D01*
X151705238Y-75932761D02*
X151610000Y-75980380D01*
X151610000Y-75980380D02*
X151514762Y-75980380D01*
X151514762Y-75980380D02*
X151419524Y-75932761D01*
X151419524Y-75932761D02*
X151371905Y-75885142D01*
X151371905Y-75885142D02*
X151324286Y-75789904D01*
X151324286Y-75789904D02*
X151276667Y-75599428D01*
X151276667Y-75599428D02*
X151276667Y-75361333D01*
X151276667Y-75361333D02*
X151324286Y-75170857D01*
X151324286Y-75170857D02*
X151371905Y-75075619D01*
X151371905Y-75075619D02*
X151419524Y-75028000D01*
X151419524Y-75028000D02*
X151514762Y-74980380D01*
%TO.C,R4*%
X148195380Y-113784047D02*
X148195380Y-114355475D01*
X148195380Y-114069761D02*
X147195380Y-114069761D01*
X147195380Y-114069761D02*
X147338238Y-114164999D01*
X147338238Y-114164999D02*
X147433476Y-114260237D01*
X147433476Y-114260237D02*
X147481095Y-114355475D01*
X148195380Y-113355475D02*
X147195380Y-113355475D01*
X147814428Y-113260237D02*
X148195380Y-112974523D01*
X147528714Y-112974523D02*
X147909666Y-113355475D01*
%TO.C,R1*%
X163647523Y-52786714D02*
X163647523Y-53453380D01*
X163409428Y-52405761D02*
X163171333Y-53120047D01*
X163171333Y-53120047D02*
X163790380Y-53120047D01*
X164171333Y-53453380D02*
X164171333Y-52453380D01*
X164266571Y-53072428D02*
X164552285Y-53453380D01*
X164552285Y-52786714D02*
X164171333Y-53167666D01*
X164885619Y-52453380D02*
X165552285Y-52453380D01*
X165552285Y-52453380D02*
X165123714Y-53453380D01*
%TO.C,J5*%
X145132905Y-90057571D02*
X145466238Y-90057571D01*
X145609095Y-90581380D02*
X145132905Y-90581380D01*
X145132905Y-90581380D02*
X145132905Y-89581380D01*
X145132905Y-89581380D02*
X145609095Y-89581380D01*
X145942429Y-89581380D02*
X146609095Y-90581380D01*
X146609095Y-89581380D02*
X145942429Y-90581380D01*
X146847191Y-89581380D02*
X147418619Y-89581380D01*
X147132905Y-90581380D02*
X147132905Y-89581380D01*
X148923381Y-90486142D02*
X148875762Y-90533761D01*
X148875762Y-90533761D02*
X148732905Y-90581380D01*
X148732905Y-90581380D02*
X148637667Y-90581380D01*
X148637667Y-90581380D02*
X148494810Y-90533761D01*
X148494810Y-90533761D02*
X148399572Y-90438523D01*
X148399572Y-90438523D02*
X148351953Y-90343285D01*
X148351953Y-90343285D02*
X148304334Y-90152809D01*
X148304334Y-90152809D02*
X148304334Y-90009952D01*
X148304334Y-90009952D02*
X148351953Y-89819476D01*
X148351953Y-89819476D02*
X148399572Y-89724238D01*
X148399572Y-89724238D02*
X148494810Y-89629000D01*
X148494810Y-89629000D02*
X148637667Y-89581380D01*
X148637667Y-89581380D02*
X148732905Y-89581380D01*
X148732905Y-89581380D02*
X148875762Y-89629000D01*
X148875762Y-89629000D02*
X148923381Y-89676619D01*
X149828143Y-90581380D02*
X149351953Y-90581380D01*
X149351953Y-90581380D02*
X149351953Y-89581380D01*
X150161477Y-90581380D02*
X150161477Y-89581380D01*
X150732905Y-90581380D02*
X150304334Y-90009952D01*
X150732905Y-89581380D02*
X150161477Y-90152809D01*
X151761477Y-90581380D02*
X151761477Y-89581380D01*
X152237667Y-90581380D02*
X152237667Y-89581380D01*
X152237667Y-89581380D02*
X152809095Y-90581380D01*
X152809095Y-90581380D02*
X152809095Y-89581380D01*
%TO.C,J4*%
X143909142Y-88302620D02*
X143956761Y-88350239D01*
X143956761Y-88350239D02*
X144004380Y-88493096D01*
X144004380Y-88493096D02*
X144004380Y-88588334D01*
X144004380Y-88588334D02*
X143956761Y-88731191D01*
X143956761Y-88731191D02*
X143861523Y-88826429D01*
X143861523Y-88826429D02*
X143766285Y-88874048D01*
X143766285Y-88874048D02*
X143575809Y-88921667D01*
X143575809Y-88921667D02*
X143432952Y-88921667D01*
X143432952Y-88921667D02*
X143242476Y-88874048D01*
X143242476Y-88874048D02*
X143147238Y-88826429D01*
X143147238Y-88826429D02*
X143052000Y-88731191D01*
X143052000Y-88731191D02*
X143004380Y-88588334D01*
X143004380Y-88588334D02*
X143004380Y-88493096D01*
X143004380Y-88493096D02*
X143052000Y-88350239D01*
X143052000Y-88350239D02*
X143099619Y-88302620D01*
X144004380Y-87731191D02*
X143956761Y-87826429D01*
X143956761Y-87826429D02*
X143861523Y-87874048D01*
X143861523Y-87874048D02*
X143004380Y-87874048D01*
X144004380Y-87207381D02*
X143956761Y-87302619D01*
X143956761Y-87302619D02*
X143909142Y-87350238D01*
X143909142Y-87350238D02*
X143813904Y-87397857D01*
X143813904Y-87397857D02*
X143528190Y-87397857D01*
X143528190Y-87397857D02*
X143432952Y-87350238D01*
X143432952Y-87350238D02*
X143385333Y-87302619D01*
X143385333Y-87302619D02*
X143337714Y-87207381D01*
X143337714Y-87207381D02*
X143337714Y-87064524D01*
X143337714Y-87064524D02*
X143385333Y-86969286D01*
X143385333Y-86969286D02*
X143432952Y-86921667D01*
X143432952Y-86921667D02*
X143528190Y-86874048D01*
X143528190Y-86874048D02*
X143813904Y-86874048D01*
X143813904Y-86874048D02*
X143909142Y-86921667D01*
X143909142Y-86921667D02*
X143956761Y-86969286D01*
X143956761Y-86969286D02*
X144004380Y-87064524D01*
X144004380Y-87064524D02*
X144004380Y-87207381D01*
X143956761Y-86016905D02*
X144004380Y-86112143D01*
X144004380Y-86112143D02*
X144004380Y-86302619D01*
X144004380Y-86302619D02*
X143956761Y-86397857D01*
X143956761Y-86397857D02*
X143909142Y-86445476D01*
X143909142Y-86445476D02*
X143813904Y-86493095D01*
X143813904Y-86493095D02*
X143528190Y-86493095D01*
X143528190Y-86493095D02*
X143432952Y-86445476D01*
X143432952Y-86445476D02*
X143385333Y-86397857D01*
X143385333Y-86397857D02*
X143337714Y-86302619D01*
X143337714Y-86302619D02*
X143337714Y-86112143D01*
X143337714Y-86112143D02*
X143385333Y-86016905D01*
X144004380Y-85588333D02*
X143004380Y-85588333D01*
X143623428Y-85493095D02*
X144004380Y-85207381D01*
X143337714Y-85207381D02*
X143718666Y-85588333D01*
X143956761Y-84226428D02*
X144004380Y-84083571D01*
X144004380Y-84083571D02*
X144004380Y-83845476D01*
X144004380Y-83845476D02*
X143956761Y-83750238D01*
X143956761Y-83750238D02*
X143909142Y-83702619D01*
X143909142Y-83702619D02*
X143813904Y-83655000D01*
X143813904Y-83655000D02*
X143718666Y-83655000D01*
X143718666Y-83655000D02*
X143623428Y-83702619D01*
X143623428Y-83702619D02*
X143575809Y-83750238D01*
X143575809Y-83750238D02*
X143528190Y-83845476D01*
X143528190Y-83845476D02*
X143480571Y-84035952D01*
X143480571Y-84035952D02*
X143432952Y-84131190D01*
X143432952Y-84131190D02*
X143385333Y-84178809D01*
X143385333Y-84178809D02*
X143290095Y-84226428D01*
X143290095Y-84226428D02*
X143194857Y-84226428D01*
X143194857Y-84226428D02*
X143099619Y-84178809D01*
X143099619Y-84178809D02*
X143052000Y-84131190D01*
X143052000Y-84131190D02*
X143004380Y-84035952D01*
X143004380Y-84035952D02*
X143004380Y-83797857D01*
X143004380Y-83797857D02*
X143052000Y-83655000D01*
X143956761Y-82845476D02*
X144004380Y-82940714D01*
X144004380Y-82940714D02*
X144004380Y-83131190D01*
X144004380Y-83131190D02*
X143956761Y-83226428D01*
X143956761Y-83226428D02*
X143861523Y-83274047D01*
X143861523Y-83274047D02*
X143480571Y-83274047D01*
X143480571Y-83274047D02*
X143385333Y-83226428D01*
X143385333Y-83226428D02*
X143337714Y-83131190D01*
X143337714Y-83131190D02*
X143337714Y-82940714D01*
X143337714Y-82940714D02*
X143385333Y-82845476D01*
X143385333Y-82845476D02*
X143480571Y-82797857D01*
X143480571Y-82797857D02*
X143575809Y-82797857D01*
X143575809Y-82797857D02*
X143671047Y-83274047D01*
X144004380Y-82226428D02*
X143956761Y-82321666D01*
X143956761Y-82321666D02*
X143861523Y-82369285D01*
X143861523Y-82369285D02*
X143004380Y-82369285D01*
X143956761Y-81464523D02*
X144004380Y-81559761D01*
X144004380Y-81559761D02*
X144004380Y-81750237D01*
X144004380Y-81750237D02*
X143956761Y-81845475D01*
X143956761Y-81845475D02*
X143861523Y-81893094D01*
X143861523Y-81893094D02*
X143480571Y-81893094D01*
X143480571Y-81893094D02*
X143385333Y-81845475D01*
X143385333Y-81845475D02*
X143337714Y-81750237D01*
X143337714Y-81750237D02*
X143337714Y-81559761D01*
X143337714Y-81559761D02*
X143385333Y-81464523D01*
X143385333Y-81464523D02*
X143480571Y-81416904D01*
X143480571Y-81416904D02*
X143575809Y-81416904D01*
X143575809Y-81416904D02*
X143671047Y-81893094D01*
X143956761Y-80559761D02*
X144004380Y-80654999D01*
X144004380Y-80654999D02*
X144004380Y-80845475D01*
X144004380Y-80845475D02*
X143956761Y-80940713D01*
X143956761Y-80940713D02*
X143909142Y-80988332D01*
X143909142Y-80988332D02*
X143813904Y-81035951D01*
X143813904Y-81035951D02*
X143528190Y-81035951D01*
X143528190Y-81035951D02*
X143432952Y-80988332D01*
X143432952Y-80988332D02*
X143385333Y-80940713D01*
X143385333Y-80940713D02*
X143337714Y-80845475D01*
X143337714Y-80845475D02*
X143337714Y-80654999D01*
X143337714Y-80654999D02*
X143385333Y-80559761D01*
X143337714Y-80274046D02*
X143337714Y-79893094D01*
X143004380Y-80131189D02*
X143861523Y-80131189D01*
X143861523Y-80131189D02*
X143956761Y-80083570D01*
X143956761Y-80083570D02*
X144004380Y-79988332D01*
X144004380Y-79988332D02*
X144004380Y-79893094D01*
%TO.C,R2*%
X149169523Y-52786714D02*
X149169523Y-53453380D01*
X148931428Y-52405761D02*
X148693333Y-53120047D01*
X148693333Y-53120047D02*
X149312380Y-53120047D01*
X149693333Y-53453380D02*
X149693333Y-52453380D01*
X149788571Y-53072428D02*
X150074285Y-53453380D01*
X150074285Y-52786714D02*
X149693333Y-53167666D01*
X150407619Y-52453380D02*
X151074285Y-52453380D01*
X151074285Y-52453380D02*
X150645714Y-53453380D01*
%TO.C,C7*%
X127931528Y-85838380D02*
X127360100Y-85838380D01*
X127645814Y-85838380D02*
X127645814Y-84838380D01*
X127645814Y-84838380D02*
X127550576Y-84981238D01*
X127550576Y-84981238D02*
X127455338Y-85076476D01*
X127455338Y-85076476D02*
X127360100Y-85124095D01*
X128550576Y-84838380D02*
X128645814Y-84838380D01*
X128645814Y-84838380D02*
X128741052Y-84886000D01*
X128741052Y-84886000D02*
X128788671Y-84933619D01*
X128788671Y-84933619D02*
X128836290Y-85028857D01*
X128836290Y-85028857D02*
X128883909Y-85219333D01*
X128883909Y-85219333D02*
X128883909Y-85457428D01*
X128883909Y-85457428D02*
X128836290Y-85647904D01*
X128836290Y-85647904D02*
X128788671Y-85743142D01*
X128788671Y-85743142D02*
X128741052Y-85790761D01*
X128741052Y-85790761D02*
X128645814Y-85838380D01*
X128645814Y-85838380D02*
X128550576Y-85838380D01*
X128550576Y-85838380D02*
X128455338Y-85790761D01*
X128455338Y-85790761D02*
X128407719Y-85743142D01*
X128407719Y-85743142D02*
X128360100Y-85647904D01*
X128360100Y-85647904D02*
X128312481Y-85457428D01*
X128312481Y-85457428D02*
X128312481Y-85219333D01*
X128312481Y-85219333D02*
X128360100Y-85028857D01*
X128360100Y-85028857D02*
X128407719Y-84933619D01*
X128407719Y-84933619D02*
X128455338Y-84886000D01*
X128455338Y-84886000D02*
X128550576Y-84838380D01*
X129741052Y-85171714D02*
X129741052Y-85838380D01*
X129312481Y-85171714D02*
X129312481Y-85695523D01*
X129312481Y-85695523D02*
X129360100Y-85790761D01*
X129360100Y-85790761D02*
X129455338Y-85838380D01*
X129455338Y-85838380D02*
X129598195Y-85838380D01*
X129598195Y-85838380D02*
X129693433Y-85790761D01*
X129693433Y-85790761D02*
X129741052Y-85743142D01*
X130074386Y-85171714D02*
X130455338Y-85171714D01*
X130217243Y-85838380D02*
X130217243Y-84981238D01*
X130217243Y-84981238D02*
X130264862Y-84886000D01*
X130264862Y-84886000D02*
X130360100Y-84838380D01*
X130360100Y-84838380D02*
X130455338Y-84838380D01*
%TO.C,C3*%
X151497380Y-101068047D02*
X151497380Y-101639475D01*
X151497380Y-101353761D02*
X150497380Y-101353761D01*
X150497380Y-101353761D02*
X150640238Y-101448999D01*
X150640238Y-101448999D02*
X150735476Y-101544237D01*
X150735476Y-101544237D02*
X150783095Y-101639475D01*
X150497380Y-100448999D02*
X150497380Y-100353761D01*
X150497380Y-100353761D02*
X150545000Y-100258523D01*
X150545000Y-100258523D02*
X150592619Y-100210904D01*
X150592619Y-100210904D02*
X150687857Y-100163285D01*
X150687857Y-100163285D02*
X150878333Y-100115666D01*
X150878333Y-100115666D02*
X151116428Y-100115666D01*
X151116428Y-100115666D02*
X151306904Y-100163285D01*
X151306904Y-100163285D02*
X151402142Y-100210904D01*
X151402142Y-100210904D02*
X151449761Y-100258523D01*
X151449761Y-100258523D02*
X151497380Y-100353761D01*
X151497380Y-100353761D02*
X151497380Y-100448999D01*
X151497380Y-100448999D02*
X151449761Y-100544237D01*
X151449761Y-100544237D02*
X151402142Y-100591856D01*
X151402142Y-100591856D02*
X151306904Y-100639475D01*
X151306904Y-100639475D02*
X151116428Y-100687094D01*
X151116428Y-100687094D02*
X150878333Y-100687094D01*
X150878333Y-100687094D02*
X150687857Y-100639475D01*
X150687857Y-100639475D02*
X150592619Y-100591856D01*
X150592619Y-100591856D02*
X150545000Y-100544237D01*
X150545000Y-100544237D02*
X150497380Y-100448999D01*
X150497380Y-99496618D02*
X150497380Y-99401380D01*
X150497380Y-99401380D02*
X150545000Y-99306142D01*
X150545000Y-99306142D02*
X150592619Y-99258523D01*
X150592619Y-99258523D02*
X150687857Y-99210904D01*
X150687857Y-99210904D02*
X150878333Y-99163285D01*
X150878333Y-99163285D02*
X151116428Y-99163285D01*
X151116428Y-99163285D02*
X151306904Y-99210904D01*
X151306904Y-99210904D02*
X151402142Y-99258523D01*
X151402142Y-99258523D02*
X151449761Y-99306142D01*
X151449761Y-99306142D02*
X151497380Y-99401380D01*
X151497380Y-99401380D02*
X151497380Y-99496618D01*
X151497380Y-99496618D02*
X151449761Y-99591856D01*
X151449761Y-99591856D02*
X151402142Y-99639475D01*
X151402142Y-99639475D02*
X151306904Y-99687094D01*
X151306904Y-99687094D02*
X151116428Y-99734713D01*
X151116428Y-99734713D02*
X150878333Y-99734713D01*
X150878333Y-99734713D02*
X150687857Y-99687094D01*
X150687857Y-99687094D02*
X150592619Y-99639475D01*
X150592619Y-99639475D02*
X150545000Y-99591856D01*
X150545000Y-99591856D02*
X150497380Y-99496618D01*
X150830714Y-98734713D02*
X151497380Y-98734713D01*
X150925952Y-98734713D02*
X150878333Y-98687094D01*
X150878333Y-98687094D02*
X150830714Y-98591856D01*
X150830714Y-98591856D02*
X150830714Y-98448999D01*
X150830714Y-98448999D02*
X150878333Y-98353761D01*
X150878333Y-98353761D02*
X150973571Y-98306142D01*
X150973571Y-98306142D02*
X151497380Y-98306142D01*
D13*
%TO.C,C5*%
X142083100Y-105506000D02*
X142083100Y-104164000D01*
X141723100Y-105324000D02*
X141723100Y-104164000D01*
X142604100Y-105660000D02*
X142604100Y-104164000D01*
X141643100Y-105273000D02*
X141643100Y-104164000D01*
X141283100Y-102084000D02*
X141283100Y-101260000D01*
X142684100Y-105674000D02*
X142684100Y-104164000D01*
X142283100Y-105579000D02*
X142283100Y-104164000D01*
X142444100Y-105625000D02*
X142444100Y-104164000D01*
X142724100Y-105680000D02*
X142724100Y-104164000D01*
X141883100Y-102084000D02*
X141883100Y-100834000D01*
X140963100Y-104624000D02*
X140963100Y-101624000D01*
X140523100Y-103642000D02*
X140523100Y-102606000D01*
X141443100Y-102084000D02*
X141443100Y-101120000D01*
X142003100Y-105472000D02*
X142003100Y-104164000D01*
X142363100Y-105604000D02*
X142363100Y-104164000D01*
X140843100Y-104443000D02*
X140843100Y-101805000D01*
X142564100Y-105652000D02*
X142564100Y-104164000D01*
X143004100Y-105703000D02*
X143004100Y-104164000D01*
X140483100Y-103408000D02*
X140483100Y-102840000D01*
X141323100Y-102084000D02*
X141323100Y-101223000D01*
X141483100Y-105159000D02*
X141483100Y-104164000D01*
X142083100Y-102084000D02*
X142083100Y-100742000D01*
X142524100Y-102084000D02*
X142524100Y-100604000D01*
X140683100Y-104135000D02*
X140683100Y-102113000D01*
X142964100Y-105702000D02*
X142964100Y-104164000D01*
X141483100Y-102084000D02*
X141483100Y-101089000D01*
X145888875Y-104599000D02*
X145388875Y-104599000D01*
X141003100Y-104678000D02*
X141003100Y-101570000D01*
X140803100Y-104375000D02*
X140803100Y-101873000D01*
X142764100Y-102084000D02*
X142764100Y-100563000D01*
X140723100Y-104222000D02*
X140723100Y-102026000D01*
X142564100Y-102084000D02*
X142564100Y-100596000D01*
X141763100Y-105348000D02*
X141763100Y-104164000D01*
X140643100Y-104039000D02*
X140643100Y-102209000D01*
X142363100Y-102084000D02*
X142363100Y-100644000D01*
X141683100Y-105299000D02*
X141683100Y-104164000D01*
X142003100Y-102084000D02*
X142003100Y-100776000D01*
X141843100Y-102084000D02*
X141843100Y-100856000D01*
X142123100Y-105522000D02*
X142123100Y-104164000D01*
X142924100Y-102084000D02*
X142924100Y-100548000D01*
X141963100Y-105453000D02*
X141963100Y-104164000D01*
X141403100Y-102084000D02*
X141403100Y-101153000D01*
X142404100Y-105615000D02*
X142404100Y-104164000D01*
X143084100Y-105704000D02*
X143084100Y-104164000D01*
X141203100Y-102084000D02*
X141203100Y-101339000D01*
X141123100Y-102084000D02*
X141123100Y-101425000D01*
X142764100Y-105685000D02*
X142764100Y-104164000D01*
X142484100Y-102084000D02*
X142484100Y-100613000D01*
X141883100Y-105414000D02*
X141883100Y-104164000D01*
X142323100Y-102084000D02*
X142323100Y-100656000D01*
X142163100Y-105538000D02*
X142163100Y-104164000D01*
X141803100Y-102084000D02*
X141803100Y-100877000D01*
X142884100Y-105697000D02*
X142884100Y-104164000D01*
X141083100Y-102084000D02*
X141083100Y-101471000D01*
X141763100Y-102084000D02*
X141763100Y-100900000D01*
X142684100Y-102084000D02*
X142684100Y-100574000D01*
X142924100Y-105700000D02*
X142924100Y-104164000D01*
X142724100Y-102084000D02*
X142724100Y-100568000D01*
X142043100Y-105489000D02*
X142043100Y-104164000D01*
X140603100Y-103929000D02*
X140603100Y-102319000D01*
X140563100Y-103801000D02*
X140563100Y-102447000D01*
X141683100Y-102084000D02*
X141683100Y-100949000D01*
X145638875Y-104849000D02*
X145638875Y-104349000D01*
X141363100Y-105061000D02*
X141363100Y-104164000D01*
X141403100Y-105095000D02*
X141403100Y-104164000D01*
X141603100Y-105246000D02*
X141603100Y-104164000D01*
X143044100Y-102084000D02*
X143044100Y-100544000D01*
X142283100Y-102084000D02*
X142283100Y-100669000D01*
X142884100Y-102084000D02*
X142884100Y-100551000D01*
X141443100Y-105128000D02*
X141443100Y-104164000D01*
X142444100Y-102084000D02*
X142444100Y-100623000D01*
X142243100Y-102084000D02*
X142243100Y-100682000D01*
X141163100Y-104867000D02*
X141163100Y-104164000D01*
X141243100Y-104950000D02*
X141243100Y-104164000D01*
X142964100Y-102084000D02*
X142964100Y-100546000D01*
X141123100Y-104823000D02*
X141123100Y-104164000D01*
X142484100Y-105635000D02*
X142484100Y-104164000D01*
X141723100Y-102084000D02*
X141723100Y-100924000D01*
X141643100Y-102084000D02*
X141643100Y-100975000D01*
X142804100Y-102084000D02*
X142804100Y-100559000D01*
X142804100Y-105689000D02*
X142804100Y-104164000D01*
X141363100Y-102084000D02*
X141363100Y-101187000D01*
X142043100Y-102084000D02*
X142043100Y-100759000D01*
X142203100Y-105552000D02*
X142203100Y-104164000D01*
X141523100Y-102084000D02*
X141523100Y-101059000D01*
X141563100Y-105219000D02*
X141563100Y-104164000D01*
X142844100Y-102084000D02*
X142844100Y-100555000D01*
X141203100Y-104909000D02*
X141203100Y-104164000D01*
X141603100Y-102084000D02*
X141603100Y-101002000D01*
X140883100Y-104507000D02*
X140883100Y-101741000D01*
X141923100Y-102084000D02*
X141923100Y-100814000D01*
X142604100Y-102084000D02*
X142604100Y-100588000D01*
X141803100Y-105371000D02*
X141803100Y-104164000D01*
X142203100Y-102084000D02*
X142203100Y-100696000D01*
X141083100Y-104777000D02*
X141083100Y-104164000D01*
X140923100Y-104567000D02*
X140923100Y-101681000D01*
X141243100Y-102084000D02*
X141243100Y-101298000D01*
X141283100Y-104988000D02*
X141283100Y-104164000D01*
X141523100Y-105189000D02*
X141523100Y-104164000D01*
X142844100Y-105693000D02*
X142844100Y-104164000D01*
X141323100Y-105025000D02*
X141323100Y-104164000D01*
X143004100Y-102084000D02*
X143004100Y-100545000D01*
X142123100Y-102084000D02*
X142123100Y-100726000D01*
X140763100Y-104302000D02*
X140763100Y-101946000D01*
X142163100Y-102084000D02*
X142163100Y-100710000D01*
X143084100Y-102084000D02*
X143084100Y-100544000D01*
X142524100Y-105644000D02*
X142524100Y-104164000D01*
X142644100Y-105667000D02*
X142644100Y-104164000D01*
X142644100Y-102084000D02*
X142644100Y-100581000D01*
X142404100Y-102084000D02*
X142404100Y-100633000D01*
X141923100Y-105434000D02*
X141923100Y-104164000D01*
X141563100Y-102084000D02*
X141563100Y-101029000D01*
X141843100Y-105392000D02*
X141843100Y-104164000D01*
X142323100Y-105592000D02*
X142323100Y-104164000D01*
X141163100Y-102084000D02*
X141163100Y-101381000D01*
X141963100Y-102084000D02*
X141963100Y-100795000D01*
X142243100Y-105566000D02*
X142243100Y-104164000D01*
X143044100Y-105704000D02*
X143044100Y-104164000D01*
X141043100Y-104729000D02*
X141043100Y-101519000D01*
X145704100Y-103124000D02*
G75*
G03*
X145704100Y-103124000I-2620000J0D01*
G01*
%TO.C,C6*%
X127179100Y-83759000D02*
X127179100Y-82828000D01*
X128059100Y-80748000D02*
X128059100Y-79333000D01*
X126299100Y-82306000D02*
X126299100Y-81270000D01*
X127419100Y-83937000D02*
X127419100Y-82828000D01*
X126739100Y-83288000D02*
X126739100Y-80288000D01*
X126859100Y-83441000D02*
X126859100Y-82828000D01*
X126979100Y-80748000D02*
X126979100Y-80003000D01*
X128139100Y-84268000D02*
X128139100Y-82828000D01*
X127779100Y-84136000D02*
X127779100Y-82828000D01*
X128340100Y-80748000D02*
X128340100Y-79260000D01*
X127019100Y-80748000D02*
X127019100Y-79962000D01*
X127939100Y-80748000D02*
X127939100Y-79374000D01*
X128019100Y-84230000D02*
X128019100Y-82828000D01*
X128019100Y-80748000D02*
X128019100Y-79346000D01*
X127059100Y-80748000D02*
X127059100Y-79924000D01*
X128420100Y-84331000D02*
X128420100Y-82828000D01*
X127699100Y-80748000D02*
X127699100Y-79478000D01*
X127219100Y-83792000D02*
X127219100Y-82828000D01*
X128340100Y-84316000D02*
X128340100Y-82828000D01*
X127219100Y-80748000D02*
X127219100Y-79784000D01*
X127539100Y-80748000D02*
X127539100Y-79564000D01*
X127899100Y-80748000D02*
X127899100Y-79390000D01*
X128540100Y-84349000D02*
X128540100Y-82828000D01*
X127819100Y-80748000D02*
X127819100Y-79423000D01*
X126539100Y-82966000D02*
X126539100Y-80610000D01*
X128540100Y-80748000D02*
X128540100Y-79227000D01*
X128099100Y-80748000D02*
X128099100Y-79320000D01*
X127619100Y-80748000D02*
X127619100Y-79520000D01*
X128820100Y-80748000D02*
X128820100Y-79208000D01*
X128500100Y-84344000D02*
X128500100Y-82828000D01*
X128300100Y-84308000D02*
X128300100Y-82828000D01*
X127139100Y-80748000D02*
X127139100Y-79851000D01*
X128460100Y-84338000D02*
X128460100Y-82828000D01*
X128740100Y-80748000D02*
X128740100Y-79210000D01*
X128460100Y-80748000D02*
X128460100Y-79238000D01*
X126899100Y-80748000D02*
X126899100Y-80089000D01*
X127299100Y-80748000D02*
X127299100Y-79723000D01*
X127579100Y-84035000D02*
X127579100Y-82828000D01*
X126579100Y-83039000D02*
X126579100Y-80537000D01*
X126939100Y-80748000D02*
X126939100Y-80045000D01*
X127179100Y-80748000D02*
X127179100Y-79817000D01*
X126499100Y-82886000D02*
X126499100Y-80690000D01*
X127819100Y-84153000D02*
X127819100Y-82828000D01*
X127059100Y-83652000D02*
X127059100Y-82828000D01*
X127859100Y-80748000D02*
X127859100Y-79406000D01*
X127899100Y-84186000D02*
X127899100Y-82828000D01*
X127499100Y-80748000D02*
X127499100Y-79588000D01*
X128780100Y-84367000D02*
X128780100Y-82828000D01*
X128180100Y-84279000D02*
X128180100Y-82828000D01*
X127979100Y-80748000D02*
X127979100Y-79360000D01*
X127459100Y-83963000D02*
X127459100Y-82828000D01*
X126899100Y-83487000D02*
X126899100Y-82828000D01*
X128620100Y-84357000D02*
X128620100Y-82828000D01*
X127539100Y-84012000D02*
X127539100Y-82828000D01*
X131414875Y-83513000D02*
X131414875Y-83013000D01*
X128660100Y-80748000D02*
X128660100Y-79215000D01*
X127779100Y-80748000D02*
X127779100Y-79440000D01*
X127099100Y-83689000D02*
X127099100Y-82828000D01*
X127339100Y-80748000D02*
X127339100Y-79693000D01*
X126419100Y-82703000D02*
X126419100Y-80873000D01*
X127459100Y-80748000D02*
X127459100Y-79613000D01*
X128700100Y-84364000D02*
X128700100Y-82828000D01*
X131664875Y-83263000D02*
X131164875Y-83263000D01*
X128620100Y-80748000D02*
X128620100Y-79219000D01*
X128380100Y-80748000D02*
X128380100Y-79252000D01*
X126699100Y-83231000D02*
X126699100Y-80345000D01*
X127139100Y-83725000D02*
X127139100Y-82828000D01*
X128740100Y-84366000D02*
X128740100Y-82828000D01*
X127259100Y-80748000D02*
X127259100Y-79753000D01*
X126859100Y-80748000D02*
X126859100Y-80135000D01*
X128139100Y-80748000D02*
X128139100Y-79308000D01*
X126779100Y-83342000D02*
X126779100Y-80234000D01*
X128580100Y-80748000D02*
X128580100Y-79223000D01*
X127099100Y-80748000D02*
X127099100Y-79887000D01*
X126979100Y-83573000D02*
X126979100Y-82828000D01*
X127499100Y-83988000D02*
X127499100Y-82828000D01*
X128500100Y-80748000D02*
X128500100Y-79232000D01*
X128780100Y-80748000D02*
X128780100Y-79209000D01*
X127659100Y-84078000D02*
X127659100Y-82828000D01*
X126939100Y-83531000D02*
X126939100Y-82828000D01*
X127019100Y-83614000D02*
X127019100Y-82828000D01*
X128260100Y-84299000D02*
X128260100Y-82828000D01*
X128580100Y-84353000D02*
X128580100Y-82828000D01*
X127939100Y-84202000D02*
X127939100Y-82828000D01*
X128099100Y-84256000D02*
X128099100Y-82828000D01*
X128300100Y-80748000D02*
X128300100Y-79268000D01*
X127379100Y-80748000D02*
X127379100Y-79666000D01*
X128860100Y-84368000D02*
X128860100Y-82828000D01*
X128220100Y-80748000D02*
X128220100Y-79287000D01*
X126259100Y-82072000D02*
X126259100Y-81504000D01*
X128660100Y-84361000D02*
X128660100Y-82828000D01*
X126339100Y-82465000D02*
X126339100Y-81111000D01*
X127259100Y-83823000D02*
X127259100Y-82828000D01*
X127299100Y-83853000D02*
X127299100Y-82828000D01*
X128860100Y-80748000D02*
X128860100Y-79208000D01*
X128059100Y-84243000D02*
X128059100Y-82828000D01*
X128420100Y-80748000D02*
X128420100Y-79245000D01*
X127619100Y-84056000D02*
X127619100Y-82828000D01*
X126619100Y-83107000D02*
X126619100Y-80469000D01*
X127699100Y-84098000D02*
X127699100Y-82828000D01*
X127579100Y-80748000D02*
X127579100Y-79541000D01*
X128820100Y-84368000D02*
X128820100Y-82828000D01*
X126819100Y-83393000D02*
X126819100Y-80183000D01*
X127419100Y-80748000D02*
X127419100Y-79639000D01*
X127739100Y-84117000D02*
X127739100Y-82828000D01*
X126379100Y-82593000D02*
X126379100Y-80983000D01*
X128260100Y-80748000D02*
X128260100Y-79277000D01*
X127659100Y-80748000D02*
X127659100Y-79498000D01*
X128180100Y-80748000D02*
X128180100Y-79297000D01*
X126659100Y-83171000D02*
X126659100Y-80405000D01*
X127379100Y-83910000D02*
X127379100Y-82828000D01*
X127339100Y-83883000D02*
X127339100Y-82828000D01*
X127859100Y-84170000D02*
X127859100Y-82828000D01*
X128380100Y-84324000D02*
X128380100Y-82828000D01*
X128700100Y-80748000D02*
X128700100Y-79212000D01*
X127979100Y-84216000D02*
X127979100Y-82828000D01*
X127739100Y-80748000D02*
X127739100Y-79459000D01*
X126459100Y-82799000D02*
X126459100Y-80777000D01*
X128220100Y-84289000D02*
X128220100Y-82828000D01*
X131480100Y-81788000D02*
G75*
G03*
X131480100Y-81788000I-2620000J0D01*
G01*
%TO.C,U5*%
X117329000Y-99542600D02*
X117329000Y-101192600D01*
X117329000Y-95892600D02*
X117329000Y-97542600D01*
X137829000Y-93402600D02*
X117269000Y-93402600D01*
X117269000Y-103682600D02*
X137829000Y-103682600D01*
X137769000Y-101192600D02*
X137769000Y-95892600D01*
X137829000Y-103682600D02*
X137829000Y-93402600D01*
X117329000Y-101192600D02*
X137769000Y-101192600D01*
X117269000Y-93402600D02*
X117269000Y-103682600D01*
X137769000Y-95892600D02*
X117329000Y-95892600D01*
X117329000Y-99542600D02*
G75*
G03*
X117329000Y-97542600I0J1000000D01*
G01*
%TO.C,U2*%
X153570000Y-100990000D02*
X153570000Y-102640000D01*
X153510000Y-94850000D02*
X153510000Y-105130000D01*
X174010000Y-102640000D02*
X174010000Y-97340000D01*
X153570000Y-97340000D02*
X153570000Y-98990000D01*
X153570000Y-102640000D02*
X174010000Y-102640000D01*
X174070000Y-94850000D02*
X153510000Y-94850000D01*
X153510000Y-105130000D02*
X174070000Y-105130000D01*
X174070000Y-105130000D02*
X174070000Y-94850000D01*
X174010000Y-97340000D02*
X153570000Y-97340000D01*
X153570000Y-100990000D02*
G75*
G03*
X153570000Y-98990000I0J1000000D01*
G01*
%TO.C,C4*%
X145410000Y-78840000D02*
X152650000Y-78840000D01*
X145410000Y-76600000D02*
X152650000Y-76600000D01*
X145410000Y-76600000D02*
X145410000Y-78840000D01*
X152650000Y-76600000D02*
X152650000Y-78840000D01*
%TO.C,J2*%
X156190000Y-115010000D02*
X156190000Y-112410000D01*
X153590000Y-112410000D02*
X153590000Y-109810000D01*
X153590000Y-115010000D02*
X153590000Y-113680000D01*
X156190000Y-112410000D02*
X153590000Y-112410000D01*
X174030000Y-115010000D02*
X174030000Y-109810000D01*
X174030000Y-109810000D02*
X174030000Y-107330000D01*
X156190000Y-115010000D02*
X174030000Y-115010000D01*
X153590000Y-107330000D02*
X174030000Y-107330000D01*
X153590000Y-109810000D02*
X153590000Y-107330000D01*
X154920000Y-115010000D02*
X153590000Y-115010000D01*
%TO.C,C1*%
X142484100Y-97634000D02*
X142484100Y-96163000D01*
X140883100Y-96506000D02*
X140883100Y-93740000D01*
X141323100Y-94083000D02*
X141323100Y-93222000D01*
X141363100Y-94083000D02*
X141363100Y-93186000D01*
X141883100Y-94083000D02*
X141883100Y-92833000D01*
X142283100Y-97578000D02*
X142283100Y-96163000D01*
X142404100Y-97614000D02*
X142404100Y-96163000D01*
X142043100Y-97488000D02*
X142043100Y-96163000D01*
X142003100Y-97471000D02*
X142003100Y-96163000D01*
X140563100Y-95800000D02*
X140563100Y-94446000D01*
X142123100Y-94083000D02*
X142123100Y-92725000D01*
X141203100Y-94083000D02*
X141203100Y-93338000D01*
X141123100Y-94083000D02*
X141123100Y-93424000D01*
X141843100Y-94083000D02*
X141843100Y-92855000D01*
X142644100Y-97666000D02*
X142644100Y-96163000D01*
X141203100Y-96908000D02*
X141203100Y-96163000D01*
X141123100Y-96822000D02*
X141123100Y-96163000D01*
X142964100Y-94083000D02*
X142964100Y-92545000D01*
X140923100Y-96566000D02*
X140923100Y-93680000D01*
X141603100Y-94083000D02*
X141603100Y-93001000D01*
X142003100Y-94083000D02*
X142003100Y-92775000D01*
X140843100Y-96442000D02*
X140843100Y-93804000D01*
X141563100Y-97218000D02*
X141563100Y-96163000D01*
X142484100Y-94083000D02*
X142484100Y-92612000D01*
X141403100Y-94083000D02*
X141403100Y-93152000D01*
X142964100Y-97701000D02*
X142964100Y-96163000D01*
X142724100Y-94083000D02*
X142724100Y-92567000D01*
X141483100Y-97158000D02*
X141483100Y-96163000D01*
X141243100Y-96949000D02*
X141243100Y-96163000D01*
X141163100Y-94083000D02*
X141163100Y-93380000D01*
X140603100Y-95928000D02*
X140603100Y-94318000D01*
X141283100Y-94083000D02*
X141283100Y-93259000D01*
X141923100Y-97433000D02*
X141923100Y-96163000D01*
X142804100Y-97688000D02*
X142804100Y-96163000D01*
X140803100Y-96374000D02*
X140803100Y-93872000D01*
X141523100Y-97188000D02*
X141523100Y-96163000D01*
X142724100Y-97679000D02*
X142724100Y-96163000D01*
X142604100Y-97659000D02*
X142604100Y-96163000D01*
X140683100Y-96134000D02*
X140683100Y-94112000D01*
X141003100Y-96677000D02*
X141003100Y-93569000D01*
X142203100Y-94083000D02*
X142203100Y-92695000D01*
X143004100Y-97702000D02*
X143004100Y-96163000D01*
X143044100Y-94083000D02*
X143044100Y-92543000D01*
X141083100Y-96776000D02*
X141083100Y-96163000D01*
X141803100Y-97370000D02*
X141803100Y-96163000D01*
X145638875Y-96848000D02*
X145638875Y-96348000D01*
X142083100Y-94083000D02*
X142083100Y-92741000D01*
X142884100Y-97696000D02*
X142884100Y-96163000D01*
X142123100Y-97521000D02*
X142123100Y-96163000D01*
X141283100Y-96987000D02*
X141283100Y-96163000D01*
X142363100Y-94083000D02*
X142363100Y-92643000D01*
X142323100Y-94083000D02*
X142323100Y-92655000D01*
X143084100Y-94083000D02*
X143084100Y-92543000D01*
X142363100Y-97603000D02*
X142363100Y-96163000D01*
X142564100Y-94083000D02*
X142564100Y-92595000D01*
X141523100Y-94083000D02*
X141523100Y-93058000D01*
X141643100Y-97272000D02*
X141643100Y-96163000D01*
X141643100Y-94083000D02*
X141643100Y-92974000D01*
X142684100Y-94083000D02*
X142684100Y-92573000D01*
X142404100Y-94083000D02*
X142404100Y-92632000D01*
X141323100Y-97024000D02*
X141323100Y-96163000D01*
X141563100Y-94083000D02*
X141563100Y-93028000D01*
X141723100Y-94083000D02*
X141723100Y-92923000D01*
X141723100Y-97323000D02*
X141723100Y-96163000D01*
X142844100Y-94083000D02*
X142844100Y-92554000D01*
X142043100Y-94083000D02*
X142043100Y-92758000D01*
X145888875Y-96598000D02*
X145388875Y-96598000D01*
X142644100Y-94083000D02*
X142644100Y-92580000D01*
X142884100Y-94083000D02*
X142884100Y-92550000D01*
X140483100Y-95407000D02*
X140483100Y-94839000D01*
X141603100Y-97245000D02*
X141603100Y-96163000D01*
X142243100Y-97565000D02*
X142243100Y-96163000D01*
X142524100Y-94083000D02*
X142524100Y-92603000D01*
X141923100Y-94083000D02*
X141923100Y-92813000D01*
X141843100Y-97391000D02*
X141843100Y-96163000D01*
X142163100Y-94083000D02*
X142163100Y-92709000D01*
X142804100Y-94083000D02*
X142804100Y-92558000D01*
X140763100Y-96301000D02*
X140763100Y-93945000D01*
X141043100Y-96728000D02*
X141043100Y-93518000D01*
X143044100Y-97703000D02*
X143044100Y-96163000D01*
X141083100Y-94083000D02*
X141083100Y-93470000D01*
X141963100Y-94083000D02*
X141963100Y-92794000D01*
X141243100Y-94083000D02*
X141243100Y-93297000D01*
X141763100Y-97347000D02*
X141763100Y-96163000D01*
X142764100Y-97684000D02*
X142764100Y-96163000D01*
X141443100Y-94083000D02*
X141443100Y-93119000D01*
X142764100Y-94083000D02*
X142764100Y-92562000D01*
X142924100Y-97699000D02*
X142924100Y-96163000D01*
X142444100Y-97624000D02*
X142444100Y-96163000D01*
X141683100Y-97298000D02*
X141683100Y-96163000D01*
X142844100Y-97692000D02*
X142844100Y-96163000D01*
X142083100Y-97505000D02*
X142083100Y-96163000D01*
X140723100Y-96221000D02*
X140723100Y-94025000D01*
X141443100Y-97127000D02*
X141443100Y-96163000D01*
X141363100Y-97060000D02*
X141363100Y-96163000D01*
X141803100Y-94083000D02*
X141803100Y-92876000D01*
X141483100Y-94083000D02*
X141483100Y-93088000D01*
X140643100Y-96038000D02*
X140643100Y-94208000D01*
X141163100Y-96866000D02*
X141163100Y-96163000D01*
X141963100Y-97452000D02*
X141963100Y-96163000D01*
X142163100Y-97537000D02*
X142163100Y-96163000D01*
X142564100Y-97651000D02*
X142564100Y-96163000D01*
X142684100Y-97673000D02*
X142684100Y-96163000D01*
X140963100Y-96623000D02*
X140963100Y-93623000D01*
X141683100Y-94083000D02*
X141683100Y-92948000D01*
X140523100Y-95641000D02*
X140523100Y-94605000D01*
X143004100Y-94083000D02*
X143004100Y-92544000D01*
X142924100Y-94083000D02*
X142924100Y-92547000D01*
X142203100Y-97551000D02*
X142203100Y-96163000D01*
X141883100Y-97413000D02*
X141883100Y-96163000D01*
X142243100Y-94083000D02*
X142243100Y-92681000D01*
X142283100Y-94083000D02*
X142283100Y-92668000D01*
X143084100Y-97703000D02*
X143084100Y-96163000D01*
X141763100Y-94083000D02*
X141763100Y-92899000D01*
X141403100Y-97094000D02*
X141403100Y-96163000D01*
X142323100Y-97591000D02*
X142323100Y-96163000D01*
X142604100Y-94083000D02*
X142604100Y-92587000D01*
X142524100Y-97643000D02*
X142524100Y-96163000D01*
X142444100Y-94083000D02*
X142444100Y-92622000D01*
X145704100Y-95123000D02*
G75*
G03*
X145704100Y-95123000I-2620000J0D01*
G01*
%TO.C,J3*%
X146371000Y-81661000D02*
X146371000Y-80331000D01*
X146371000Y-80331000D02*
X147701000Y-80331000D01*
X148971000Y-80331000D02*
X151571000Y-80331000D01*
X146371000Y-82931000D02*
X146371000Y-82991000D01*
X146371000Y-82991000D02*
X151571000Y-82991000D01*
X151571000Y-80331000D02*
X151571000Y-82991000D01*
X148971000Y-82931000D02*
X148971000Y-80331000D01*
X146371000Y-82931000D02*
X148971000Y-82931000D01*
%TO.C,X1*%
X129510000Y-56470000D02*
X117360000Y-56470000D01*
X117360000Y-56470000D02*
X117360000Y-76620000D01*
X118110000Y-77370000D02*
X129510000Y-77370000D01*
X130260000Y-76620000D02*
X130260000Y-57220000D01*
X130260000Y-57220000D02*
G75*
G03*
X129510000Y-56470000I-750000J0D01*
G01*
X117360000Y-76620000D02*
G75*
G03*
X118110000Y-77370000I750000J0D01*
G01*
X129510000Y-77370000D02*
G75*
G03*
X130260000Y-76620000I0J750000D01*
G01*
%TO.C,J1*%
X175235400Y-62552800D02*
X176235400Y-62052800D01*
X177935400Y-114222800D02*
X177935400Y-88232800D01*
X176625400Y-56842800D02*
X185745400Y-56842800D01*
X185745400Y-115522800D02*
X176625400Y-115522800D01*
X176235400Y-62052800D02*
X175235400Y-61552800D01*
X177935400Y-84132800D02*
X177935400Y-58142800D01*
X185745400Y-56842800D02*
X185745400Y-115522800D01*
X175235400Y-61552800D02*
X175235400Y-62552800D01*
X184435400Y-58142800D02*
X184435400Y-114222800D01*
X177935400Y-58142800D02*
X184435400Y-58142800D01*
X177935400Y-88232800D02*
X177935400Y-88232800D01*
X176625400Y-115522800D02*
X176625400Y-56842800D01*
X177935400Y-88232800D02*
X176625400Y-88232800D01*
X184435400Y-114222800D02*
X177935400Y-114222800D01*
X176625400Y-84132800D02*
X177935400Y-84132800D01*
%TO.C,U3*%
X158460000Y-56823800D02*
X158460000Y-92129800D01*
X171376200Y-56646000D02*
X165916200Y-56646000D01*
X158460000Y-92129800D02*
X163760000Y-92129800D01*
X163916200Y-56646000D02*
X155979200Y-56646000D01*
X163760000Y-92129800D02*
X163760000Y-56823800D01*
X166250000Y-56602200D02*
X155970000Y-56602200D01*
X173866200Y-56586000D02*
X155966200Y-56586000D01*
X160110000Y-56823800D02*
X158460000Y-56823800D01*
X166250000Y-92358400D02*
X166250000Y-56602200D01*
X156004600Y-92307600D02*
X171346200Y-92307600D01*
X171376200Y-92326000D02*
X171376200Y-56646000D01*
X155966200Y-92386000D02*
X173866200Y-92386000D01*
X163760000Y-56823800D02*
X162110000Y-56823800D01*
X173866200Y-92386000D02*
X173866200Y-56586000D01*
X155966200Y-56586000D02*
X155966200Y-92386000D01*
X163916200Y-56646000D02*
G75*
G03*
X165916200Y-56646000I1000000J0D01*
G01*
X160110000Y-56839800D02*
G75*
G03*
X162110000Y-56839800I1000000J0D01*
G01*
%TO.C,C2*%
X141550600Y-114574600D02*
X141550600Y-113492600D01*
X142591600Y-114995600D02*
X142591600Y-113492600D01*
X142351600Y-111412600D02*
X142351600Y-109961600D01*
X141990600Y-111412600D02*
X141990600Y-110087600D01*
X141270600Y-111412600D02*
X141270600Y-110551600D01*
X142511600Y-111412600D02*
X142511600Y-109924600D01*
X142631600Y-115002600D02*
X142631600Y-113492600D01*
X141150600Y-114237600D02*
X141150600Y-113492600D01*
X141430600Y-114487600D02*
X141430600Y-113492600D01*
X141510600Y-111412600D02*
X141510600Y-110357600D01*
X141750600Y-114699600D02*
X141750600Y-113492600D01*
X142471600Y-114972600D02*
X142471600Y-113492600D01*
X141870600Y-111412600D02*
X141870600Y-110142600D01*
X141350600Y-111412600D02*
X141350600Y-110481600D01*
X142150600Y-114880600D02*
X142150600Y-113492600D01*
X142270600Y-114920600D02*
X142270600Y-113492600D01*
X142270600Y-111412600D02*
X142270600Y-109984600D01*
X142791600Y-111412600D02*
X142791600Y-109883600D01*
X142831600Y-111412600D02*
X142831600Y-109879600D01*
X141070600Y-114151600D02*
X141070600Y-113492600D01*
X140510600Y-113129600D02*
X140510600Y-111775600D01*
X141630600Y-111412600D02*
X141630600Y-110277600D01*
X142791600Y-115021600D02*
X142791600Y-113492600D01*
X141630600Y-114627600D02*
X141630600Y-113492600D01*
X141590600Y-111412600D02*
X141590600Y-110303600D01*
X140550600Y-113257600D02*
X140550600Y-111647600D01*
X140790600Y-113771600D02*
X140790600Y-111133600D01*
X141470600Y-114517600D02*
X141470600Y-113492600D01*
X142951600Y-115031600D02*
X142951600Y-113492600D01*
X141350600Y-114423600D02*
X141350600Y-113492600D01*
X145836375Y-113927600D02*
X145336375Y-113927600D01*
X141830600Y-114742600D02*
X141830600Y-113492600D01*
X142751600Y-115017600D02*
X142751600Y-113492600D01*
X141670600Y-111412600D02*
X141670600Y-110252600D01*
X142391600Y-111412600D02*
X142391600Y-109951600D01*
X141830600Y-111412600D02*
X141830600Y-110162600D01*
X141070600Y-111412600D02*
X141070600Y-110753600D01*
X140750600Y-113703600D02*
X140750600Y-111201600D01*
X141030600Y-111412600D02*
X141030600Y-110799600D01*
X142671600Y-115008600D02*
X142671600Y-113492600D01*
X140990600Y-114057600D02*
X140990600Y-110847600D01*
X141710600Y-114676600D02*
X141710600Y-113492600D01*
X142511600Y-114980600D02*
X142511600Y-113492600D01*
X141950600Y-111412600D02*
X141950600Y-110104600D01*
X142070600Y-114850600D02*
X142070600Y-113492600D01*
X142030600Y-114834600D02*
X142030600Y-113492600D01*
X142110600Y-111412600D02*
X142110600Y-110038600D01*
X140710600Y-113630600D02*
X140710600Y-111274600D01*
X142751600Y-111412600D02*
X142751600Y-109887600D01*
X143031600Y-111412600D02*
X143031600Y-109872600D01*
X142991600Y-111412600D02*
X142991600Y-109872600D01*
X142310600Y-114932600D02*
X142310600Y-113492600D01*
X141750600Y-111412600D02*
X141750600Y-110205600D01*
X142030600Y-111412600D02*
X142030600Y-110070600D01*
X142871600Y-111412600D02*
X142871600Y-109876600D01*
X142671600Y-111412600D02*
X142671600Y-109896600D01*
X141910600Y-114781600D02*
X141910600Y-113492600D01*
X141150600Y-111412600D02*
X141150600Y-110667600D01*
X141790600Y-114720600D02*
X141790600Y-113492600D01*
X142911600Y-111412600D02*
X142911600Y-109874600D01*
X140470600Y-112970600D02*
X140470600Y-111934600D01*
X142351600Y-114943600D02*
X142351600Y-113492600D01*
X141590600Y-114601600D02*
X141590600Y-113492600D01*
X141230600Y-111412600D02*
X141230600Y-110588600D01*
X140630600Y-113463600D02*
X140630600Y-111441600D01*
X142230600Y-114907600D02*
X142230600Y-113492600D01*
X142431600Y-111412600D02*
X142431600Y-109941600D01*
X141310600Y-114389600D02*
X141310600Y-113492600D01*
X142951600Y-111412600D02*
X142951600Y-109873600D01*
X141190600Y-114278600D02*
X141190600Y-113492600D01*
X142991600Y-115032600D02*
X142991600Y-113492600D01*
X141030600Y-114105600D02*
X141030600Y-113492600D01*
X141870600Y-114762600D02*
X141870600Y-113492600D01*
X141270600Y-114353600D02*
X141270600Y-113492600D01*
X142190600Y-114894600D02*
X142190600Y-113492600D01*
X141990600Y-114817600D02*
X141990600Y-113492600D01*
X142711600Y-115013600D02*
X142711600Y-113492600D01*
X142230600Y-111412600D02*
X142230600Y-109997600D01*
X142551600Y-111412600D02*
X142551600Y-109916600D01*
X141190600Y-111412600D02*
X141190600Y-110626600D01*
X142150600Y-111412600D02*
X142150600Y-110024600D01*
X142190600Y-111412600D02*
X142190600Y-110010600D01*
X141510600Y-114547600D02*
X141510600Y-113492600D01*
X140590600Y-113367600D02*
X140590600Y-111537600D01*
X142431600Y-114963600D02*
X142431600Y-113492600D01*
X141550600Y-111412600D02*
X141550600Y-110330600D01*
X142911600Y-115030600D02*
X142911600Y-113492600D01*
X141430600Y-111412600D02*
X141430600Y-110417600D01*
X143031600Y-115032600D02*
X143031600Y-113492600D01*
X142591600Y-111412600D02*
X142591600Y-109909600D01*
X141710600Y-111412600D02*
X141710600Y-110228600D01*
X141670600Y-114652600D02*
X141670600Y-113492600D01*
X141310600Y-111412600D02*
X141310600Y-110515600D01*
X141230600Y-114316600D02*
X141230600Y-113492600D01*
X142310600Y-111412600D02*
X142310600Y-109972600D01*
X141390600Y-114456600D02*
X141390600Y-113492600D01*
X142711600Y-111412600D02*
X142711600Y-109891600D01*
X142551600Y-114988600D02*
X142551600Y-113492600D01*
X145586375Y-114177600D02*
X145586375Y-113677600D01*
X142831600Y-115025600D02*
X142831600Y-113492600D01*
X140870600Y-113895600D02*
X140870600Y-111009600D01*
X141950600Y-114800600D02*
X141950600Y-113492600D01*
X141470600Y-111412600D02*
X141470600Y-110387600D01*
X141390600Y-111412600D02*
X141390600Y-110448600D01*
X142631600Y-111412600D02*
X142631600Y-109902600D01*
X141790600Y-111412600D02*
X141790600Y-110184600D01*
X142471600Y-111412600D02*
X142471600Y-109932600D01*
X140670600Y-113550600D02*
X140670600Y-111354600D01*
X141110600Y-114195600D02*
X141110600Y-113492600D01*
X140430600Y-112736600D02*
X140430600Y-112168600D01*
X142110600Y-114866600D02*
X142110600Y-113492600D01*
X140950600Y-114006600D02*
X140950600Y-110898600D01*
X140830600Y-113835600D02*
X140830600Y-111069600D01*
X141910600Y-111412600D02*
X141910600Y-110123600D01*
X142391600Y-114953600D02*
X142391600Y-113492600D01*
X142070600Y-111412600D02*
X142070600Y-110054600D01*
X142871600Y-115028600D02*
X142871600Y-113492600D01*
X141110600Y-111412600D02*
X141110600Y-110709600D01*
X140910600Y-113952600D02*
X140910600Y-110952600D01*
X145651600Y-112452600D02*
G75*
G03*
X145651600Y-112452600I-2620000J0D01*
G01*
%TO.C,U4*%
X137829000Y-115830000D02*
X137829000Y-105550000D01*
X117269000Y-105550000D02*
X117269000Y-115830000D01*
X117329000Y-108040000D02*
X117329000Y-109690000D01*
X137769000Y-108040000D02*
X117329000Y-108040000D01*
X137829000Y-105550000D02*
X117269000Y-105550000D01*
X137769000Y-113340000D02*
X137769000Y-108040000D01*
X117329000Y-113340000D02*
X137769000Y-113340000D01*
X117329000Y-111690000D02*
X117329000Y-113340000D01*
X117269000Y-115830000D02*
X137829000Y-115830000D01*
X117329000Y-111690000D02*
G75*
G03*
X117329000Y-109690000I0J1000000D01*
G01*
%TO.C,U6*%
X131870000Y-56510000D02*
X131870000Y-74530000D01*
X136010000Y-56570000D02*
X134360000Y-56570000D01*
X142150000Y-74530000D02*
X142150000Y-56510000D01*
X131870000Y-74530000D02*
X142150000Y-74530000D01*
X134360000Y-74470000D02*
X139660000Y-74470000D01*
X139660000Y-56570000D02*
X138010000Y-56570000D01*
X142150000Y-56510000D02*
X131870000Y-56510000D01*
X134360000Y-56570000D02*
X134360000Y-74470000D01*
X139660000Y-74470000D02*
X139660000Y-56570000D01*
X136010000Y-56570000D02*
G75*
G03*
X138010000Y-56570000I1000000J0D01*
G01*
%TO.C,J6*%
X132281000Y-121472000D02*
X137481000Y-121472000D01*
X129901000Y-120142000D02*
X129901000Y-118812000D01*
X129901000Y-121412000D02*
X132501000Y-121412000D01*
X129901000Y-121472000D02*
X135101000Y-121472000D01*
X132501000Y-118812000D02*
X135101000Y-118812000D01*
X129901000Y-121412000D02*
X129901000Y-121472000D01*
X129901000Y-118812000D02*
X131231000Y-118812000D01*
X137481000Y-118812000D02*
X137481000Y-121472000D01*
X134881000Y-118812000D02*
X137481000Y-118812000D01*
X132501000Y-121412000D02*
X132501000Y-118812000D01*
%TO.C,J7*%
X114110000Y-87471000D02*
X114110000Y-83471000D01*
X125110000Y-79471000D02*
X125110000Y-91471000D01*
X112910000Y-89971000D02*
X112910000Y-88471000D01*
X114110000Y-89971000D02*
X112910000Y-89971000D01*
X114110000Y-79471000D02*
X125110000Y-79471000D01*
X112910000Y-88471000D02*
X111110000Y-88471000D01*
X114110000Y-83471000D02*
X111110000Y-83471000D01*
X114110000Y-80971000D02*
X114110000Y-79471000D01*
X114110000Y-91471000D02*
X114110000Y-89971000D01*
X111110000Y-88471000D02*
X111110000Y-82471000D01*
X112910000Y-82471000D02*
X112910000Y-80971000D01*
X111110000Y-87471000D02*
X114110000Y-87471000D01*
X125110000Y-91471000D02*
X114110000Y-91471000D01*
X111110000Y-82471000D02*
X112910000Y-82471000D01*
X112910000Y-80971000D02*
X114110000Y-80971000D01*
%TO.C,R3*%
X147828000Y-104243000D02*
X147828000Y-103473000D01*
X146458000Y-96933000D02*
X146458000Y-103473000D01*
X146458000Y-103473000D02*
X149198000Y-103473000D01*
X147828000Y-96163000D02*
X147828000Y-96933000D01*
X149198000Y-103473000D02*
X149198000Y-96933000D01*
X149198000Y-96933000D02*
X146458000Y-96933000D01*
%TO.C,U1*%
X148110000Y-56713000D02*
X146460000Y-56713000D01*
X146460000Y-74613000D02*
X151760000Y-74613000D01*
X151760000Y-56713000D02*
X150110000Y-56713000D01*
X143970000Y-56653000D02*
X143970000Y-74673000D01*
X151760000Y-74613000D02*
X151760000Y-56713000D01*
X154250000Y-74673000D02*
X154250000Y-56653000D01*
X154250000Y-56653000D02*
X143970000Y-56653000D01*
X143970000Y-74673000D02*
X154250000Y-74673000D01*
X146460000Y-56713000D02*
X146460000Y-74613000D01*
X148110000Y-56713000D02*
G75*
G03*
X150110000Y-56713000I1000000J0D01*
G01*
%TO.C,R4*%
X147828000Y-109625000D02*
X147828000Y-110395000D01*
X149198000Y-116935000D02*
X149198000Y-110395000D01*
X147828000Y-117705000D02*
X147828000Y-116935000D01*
X146458000Y-110395000D02*
X146458000Y-116935000D01*
X149198000Y-110395000D02*
X146458000Y-110395000D01*
X146458000Y-116935000D02*
X149198000Y-116935000D01*
%TO.C,R1*%
X161068000Y-54456000D02*
X167608000Y-54456000D01*
X167608000Y-51716000D02*
X161068000Y-51716000D01*
X160298000Y-53086000D02*
X161068000Y-53086000D01*
X168378000Y-53086000D02*
X167608000Y-53086000D01*
X167608000Y-54456000D02*
X167608000Y-51716000D01*
X161068000Y-51716000D02*
X161068000Y-54456000D01*
%TO.C,J5*%
X146371000Y-89214000D02*
X151571000Y-89214000D01*
X151571000Y-86554000D02*
X151571000Y-89214000D01*
X148971000Y-86554000D02*
X151571000Y-86554000D01*
X146371000Y-89154000D02*
X148971000Y-89154000D01*
X148971000Y-89154000D02*
X148971000Y-86554000D01*
X146371000Y-86554000D02*
X147701000Y-86554000D01*
X146371000Y-89154000D02*
X146371000Y-89214000D01*
X146371000Y-87884000D02*
X146371000Y-86554000D01*
%TO.C,J4*%
X137204000Y-80010000D02*
X137204000Y-90230000D01*
X137204000Y-80010000D02*
X139804000Y-80010000D01*
X137204000Y-78740000D02*
X137204000Y-77410000D01*
X137204000Y-77410000D02*
X138534000Y-77410000D01*
X142404000Y-77410000D02*
X142404000Y-90230000D01*
X139804000Y-80010000D02*
X139804000Y-77410000D01*
X137204000Y-90230000D02*
X142404000Y-90230000D01*
X139804000Y-77410000D02*
X142404000Y-77410000D01*
%TO.C,R2*%
X145820000Y-53086000D02*
X146590000Y-53086000D01*
X153900000Y-53086000D02*
X153130000Y-53086000D01*
X146590000Y-51716000D02*
X146590000Y-54456000D01*
X153130000Y-51716000D02*
X146590000Y-51716000D01*
X146590000Y-54456000D02*
X153130000Y-54456000D01*
X153130000Y-54456000D02*
X153130000Y-51716000D01*
%TO.C,C7*%
X126859100Y-87987000D02*
X126859100Y-87374000D01*
X128700100Y-91603000D02*
X128700100Y-90067000D01*
X128380100Y-87987000D02*
X128380100Y-86491000D01*
X128139100Y-91507000D02*
X128139100Y-90067000D01*
X128180100Y-91518000D02*
X128180100Y-90067000D01*
X127139100Y-90964000D02*
X127139100Y-90067000D01*
X126619100Y-90346000D02*
X126619100Y-87708000D01*
X127379100Y-91149000D02*
X127379100Y-90067000D01*
X127699100Y-91337000D02*
X127699100Y-90067000D01*
X127819100Y-87987000D02*
X127819100Y-86662000D01*
X126379100Y-89832000D02*
X126379100Y-88222000D01*
X127139100Y-87987000D02*
X127139100Y-87090000D01*
X127539100Y-91251000D02*
X127539100Y-90067000D01*
X128139100Y-87987000D02*
X128139100Y-86547000D01*
X128059100Y-91482000D02*
X128059100Y-90067000D01*
X127659100Y-91317000D02*
X127659100Y-90067000D01*
X128500100Y-91583000D02*
X128500100Y-90067000D01*
X126939100Y-90770000D02*
X126939100Y-90067000D01*
X127419100Y-87987000D02*
X127419100Y-86878000D01*
X127539100Y-87987000D02*
X127539100Y-86803000D01*
X128420100Y-87987000D02*
X128420100Y-86484000D01*
X127979100Y-91455000D02*
X127979100Y-90067000D01*
X127019100Y-87987000D02*
X127019100Y-87201000D01*
X128820100Y-87987000D02*
X128820100Y-86447000D01*
X126699100Y-90470000D02*
X126699100Y-87584000D01*
X127899100Y-87987000D02*
X127899100Y-86629000D01*
X127499100Y-87987000D02*
X127499100Y-86827000D01*
X128180100Y-87987000D02*
X128180100Y-86536000D01*
X127859100Y-87987000D02*
X127859100Y-86645000D01*
X127099100Y-87987000D02*
X127099100Y-87126000D01*
X126779100Y-90581000D02*
X126779100Y-87473000D01*
X127459100Y-87987000D02*
X127459100Y-86852000D01*
X127619100Y-87987000D02*
X127619100Y-86759000D01*
X126979100Y-90812000D02*
X126979100Y-90067000D01*
X127299100Y-91092000D02*
X127299100Y-90067000D01*
X128580100Y-87987000D02*
X128580100Y-86462000D01*
X128540100Y-87987000D02*
X128540100Y-86466000D01*
X131664875Y-90502000D02*
X131164875Y-90502000D01*
X126739100Y-90527000D02*
X126739100Y-87527000D01*
X127579100Y-87987000D02*
X127579100Y-86780000D01*
X128099100Y-91495000D02*
X128099100Y-90067000D01*
X127779100Y-91375000D02*
X127779100Y-90067000D01*
X128340100Y-87987000D02*
X128340100Y-86499000D01*
X127179100Y-90998000D02*
X127179100Y-90067000D01*
X127779100Y-87987000D02*
X127779100Y-86679000D01*
X127699100Y-87987000D02*
X127699100Y-86717000D01*
X128340100Y-91555000D02*
X128340100Y-90067000D01*
X127219100Y-87987000D02*
X127219100Y-87023000D01*
X126539100Y-90205000D02*
X126539100Y-87849000D01*
X126419100Y-89942000D02*
X126419100Y-88112000D01*
X127739100Y-91356000D02*
X127739100Y-90067000D01*
X127379100Y-87987000D02*
X127379100Y-86905000D01*
X127219100Y-91031000D02*
X127219100Y-90067000D01*
X128780100Y-91606000D02*
X128780100Y-90067000D01*
X126579100Y-90278000D02*
X126579100Y-87776000D01*
X126939100Y-87987000D02*
X126939100Y-87284000D01*
X127619100Y-91295000D02*
X127619100Y-90067000D01*
X128420100Y-91570000D02*
X128420100Y-90067000D01*
X128460100Y-91577000D02*
X128460100Y-90067000D01*
X128540100Y-91588000D02*
X128540100Y-90067000D01*
X128580100Y-91592000D02*
X128580100Y-90067000D01*
X127939100Y-87987000D02*
X127939100Y-86613000D01*
X127099100Y-90928000D02*
X127099100Y-90067000D01*
X128300100Y-91547000D02*
X128300100Y-90067000D01*
X128220100Y-91528000D02*
X128220100Y-90067000D01*
X128460100Y-87987000D02*
X128460100Y-86477000D01*
X128260100Y-87987000D02*
X128260100Y-86516000D01*
X127179100Y-87987000D02*
X127179100Y-87056000D01*
X128660100Y-87987000D02*
X128660100Y-86454000D01*
X128300100Y-87987000D02*
X128300100Y-86507000D01*
X128700100Y-87987000D02*
X128700100Y-86451000D01*
X128740100Y-87987000D02*
X128740100Y-86449000D01*
X128820100Y-91607000D02*
X128820100Y-90067000D01*
X127259100Y-91062000D02*
X127259100Y-90067000D01*
X127979100Y-87987000D02*
X127979100Y-86599000D01*
X128860100Y-87987000D02*
X128860100Y-86447000D01*
X127059100Y-87987000D02*
X127059100Y-87163000D01*
X127899100Y-91425000D02*
X127899100Y-90067000D01*
X128099100Y-87987000D02*
X128099100Y-86559000D01*
X126859100Y-90680000D02*
X126859100Y-90067000D01*
X128019100Y-91469000D02*
X128019100Y-90067000D01*
X126339100Y-89704000D02*
X126339100Y-88350000D01*
X128620100Y-87987000D02*
X128620100Y-86458000D01*
X127059100Y-90891000D02*
X127059100Y-90067000D01*
X126259100Y-89311000D02*
X126259100Y-88743000D01*
X126459100Y-90038000D02*
X126459100Y-88016000D01*
X127819100Y-91392000D02*
X127819100Y-90067000D01*
X126299100Y-89545000D02*
X126299100Y-88509000D01*
X126899100Y-87987000D02*
X126899100Y-87328000D01*
X128620100Y-91596000D02*
X128620100Y-90067000D01*
X126819100Y-90632000D02*
X126819100Y-87422000D01*
X127019100Y-90853000D02*
X127019100Y-90067000D01*
X128220100Y-87987000D02*
X128220100Y-86526000D01*
X127859100Y-91409000D02*
X127859100Y-90067000D01*
X128019100Y-87987000D02*
X128019100Y-86585000D01*
X127939100Y-91441000D02*
X127939100Y-90067000D01*
X127739100Y-87987000D02*
X127739100Y-86698000D01*
X128740100Y-91605000D02*
X128740100Y-90067000D01*
X126499100Y-90125000D02*
X126499100Y-87929000D01*
X128500100Y-87987000D02*
X128500100Y-86471000D01*
X127419100Y-91176000D02*
X127419100Y-90067000D01*
X127659100Y-87987000D02*
X127659100Y-86737000D01*
X128059100Y-87987000D02*
X128059100Y-86572000D01*
X127339100Y-91122000D02*
X127339100Y-90067000D01*
X127259100Y-87987000D02*
X127259100Y-86992000D01*
X126979100Y-87987000D02*
X126979100Y-87242000D01*
X128860100Y-91607000D02*
X128860100Y-90067000D01*
X128780100Y-87987000D02*
X128780100Y-86448000D01*
X126899100Y-90726000D02*
X126899100Y-90067000D01*
X128660100Y-91600000D02*
X128660100Y-90067000D01*
X131414875Y-90752000D02*
X131414875Y-90252000D01*
X127339100Y-87987000D02*
X127339100Y-86932000D01*
X127499100Y-91227000D02*
X127499100Y-90067000D01*
X128260100Y-91538000D02*
X128260100Y-90067000D01*
X127579100Y-91274000D02*
X127579100Y-90067000D01*
X128380100Y-91563000D02*
X128380100Y-90067000D01*
X127299100Y-87987000D02*
X127299100Y-86962000D01*
X126659100Y-90410000D02*
X126659100Y-87644000D01*
X127459100Y-91202000D02*
X127459100Y-90067000D01*
X131480100Y-89027000D02*
G75*
G03*
X131480100Y-89027000I-2620000J0D01*
G01*
%TO.C,C3*%
X150010000Y-103620000D02*
X150010000Y-96380000D01*
X152250000Y-103620000D02*
X152250000Y-96380000D01*
X150010000Y-103620000D02*
X152250000Y-103620000D01*
X150010000Y-96380000D02*
X152250000Y-96380000D01*
%TD*%
M02*
