M48
; DRILL file {KiCad (7.0.0)} date Sun Mar  5 15:20:05 2023
; FORMAT={-:-/ absolute / inch / decimal}
; #@! TF.CreationDate,2023-03-05T15:20:05+10:30
; #@! TF.GenerationSoftware,Kicad,Pcbnew,(7.0.0)
; #@! TF.FileFunction,Plated,1,2,PTH
FMAT,2
INCH
; #@! TA.AperFunction,Plated,PTH,ViaDrill
T1C0.0157
; #@! TA.AperFunction,Plated,PTH,ComponentDrill
T2C0.0157
; #@! TA.AperFunction,Plated,PTH,ComponentDrill
T3C0.0315
; #@! TA.AperFunction,Plated,PTH,ComponentDrill
T4C0.0394
; #@! TA.AperFunction,Plated,PTH,ComponentDrill
T5C0.0866
%
G90
G05
T1
X5.9124Y-3.9274
X6.1067Y-3.9784
X6.1521Y-3.3407
X6.6099Y-3.3104
X6.7166Y-3.7164
X6.8858Y-3.5786
X6.8945Y-2.7771
X6.9473Y-3.5803
T3
X4.6716Y-3.7296
X4.6716Y-4.0296
X4.6716Y-4.2079
X4.6716Y-4.5079
X4.7244Y-2.3346
X4.7244Y-2.9346
X4.7716Y-3.7296
X4.7716Y-4.0296
X4.7716Y-4.2079
X4.7716Y-4.5079
X4.8716Y-3.7296
X4.8716Y-4.0296
X4.8716Y-4.2079
X4.8716Y-4.5079
X4.9716Y-3.7296
X4.9716Y-4.0296
X4.9716Y-4.2079
X4.9716Y-4.5079
X5.0244Y-2.3346
X5.0244Y-2.9346
X5.0339Y-3.22
X5.0339Y-3.505
X5.0716Y-3.7296
X5.0716Y-4.0296
X5.0716Y-4.2079
X5.0716Y-4.5079
X5.1126Y-3.22
X5.1126Y-3.505
X5.1716Y-3.7296
X5.1716Y-4.0296
X5.1716Y-4.2079
X5.1716Y-4.5079
X5.2441Y-2.2795
X5.2441Y-2.3795
X5.2441Y-2.4795
X5.2441Y-2.5795
X5.2441Y-2.6795
X5.2441Y-2.7795
X5.2441Y-2.8795
X5.2716Y-3.7296
X5.2716Y-4.0296
X5.2716Y-4.2079
X5.2716Y-4.5079
X5.3716Y-3.7296
X5.3716Y-4.0296
X5.3716Y-4.2079
X5.3716Y-4.5079
X5.5441Y-2.2795
X5.5441Y-2.3795
X5.5441Y-2.4795
X5.5441Y-2.5795
X5.5441Y-2.6795
X5.5441Y-2.7795
X5.5441Y-2.8795
X5.5918Y-4.4273
X5.5939Y-3.745
X5.5939Y-4.06
X5.6705Y-4.4273
X5.6726Y-3.745
X5.6726Y-4.06
X5.7Y-2.09
X5.7205Y-2.2852
X5.7205Y-2.3852
X5.7205Y-2.4852
X5.7205Y-2.5852
X5.7205Y-2.6852
X5.7205Y-2.7852
X5.7205Y-2.8852
X5.7689Y-3.0598
X5.82Y-3.745
X5.82Y-4.145
X5.82Y-4.275
X5.82Y-4.675
X5.95Y-3.8386
X5.95Y-4.0354
X5.9657Y-3.0598
X6.0205Y-2.2852
X6.0205Y-2.3852
X6.0205Y-2.4852
X6.0205Y-2.5852
X6.0205Y-2.6852
X6.0205Y-2.7852
X6.0205Y-2.8852
X6.0984Y-3.7866
X6.0984Y-4.0866
X6.1Y-2.09
X6.1929Y-2.2832
X6.1929Y-2.3832
X6.1929Y-2.4832
X6.1929Y-2.5832
X6.1929Y-2.6832
X6.1929Y-2.7832
X6.1929Y-2.8832
X6.1929Y-2.9832
X6.1929Y-3.0832
X6.1929Y-3.1832
X6.1929Y-3.2832
X6.1929Y-3.3832
X6.1929Y-3.4832
X6.1929Y-3.5832
X6.1984Y-3.7866
X6.1984Y-4.0866
X6.27Y-2.09
X6.2984Y-3.7866
X6.2984Y-4.0866
X6.3984Y-3.7866
X6.3984Y-4.0866
X6.4929Y-2.2832
X6.4929Y-2.3832
X6.4929Y-2.4832
X6.4929Y-2.5832
X6.4929Y-2.6832
X6.4929Y-2.7832
X6.4929Y-2.8832
X6.4929Y-2.9832
X6.4929Y-3.0832
X6.4929Y-3.1832
X6.4929Y-3.2832
X6.4929Y-3.3832
X6.4929Y-3.4832
X6.4929Y-3.5832
X6.4984Y-3.7866
X6.4984Y-4.0866
X6.5984Y-3.7866
X6.5984Y-4.0866
X6.67Y-2.09
X6.6984Y-3.7866
X6.6984Y-4.0866
X6.7928Y-2.2825
X6.7928Y-2.3825
X6.7928Y-2.4825
X6.7928Y-2.5825
X6.7928Y-2.6825
X6.7928Y-2.7825
X6.7928Y-2.8825
X6.7928Y-2.9825
X6.7928Y-3.0825
X6.7928Y-3.1825
X6.7928Y-3.2825
X6.7928Y-3.3825
X6.7928Y-3.4825
X6.7928Y-3.5825
X6.7984Y-3.7866
X6.7984Y-4.0866
T4
X5.1666Y-4.73
X5.2666Y-4.73
X5.3634Y-4.73
X5.4541Y-3.1
X5.4541Y-3.2
X5.4541Y-3.3
X5.4541Y-3.4
X5.4541Y-3.5
X5.5541Y-3.1
X5.5541Y-3.2
X5.5541Y-3.3
X5.5541Y-3.4
X5.5541Y-3.5
X5.815Y-3.215
X5.815Y-3.46
X5.915Y-3.215
X5.915Y-3.46
X6.0992Y-4.2756
X6.0992Y-4.3756
X6.0992Y-4.4756
X6.1992Y-4.2756
X6.1992Y-4.3756
X6.1992Y-4.4756
X6.2992Y-4.2756
X6.2992Y-4.3756
X6.2992Y-4.4756
X6.3992Y-4.2756
X6.3992Y-4.3756
X6.3992Y-4.4756
X6.4992Y-4.2756
X6.4992Y-4.3756
X6.4992Y-4.4756
X6.5992Y-4.2756
X6.5992Y-4.3756
X6.5992Y-4.4756
X6.6992Y-4.2756
X6.6992Y-4.3756
X6.6992Y-4.4756
X6.7992Y-4.2756
X6.7992Y-4.3756
X6.7992Y-4.4756
X7.0833Y-2.443
X7.0833Y-2.543
X7.0833Y-2.643
X7.0833Y-2.743
X7.0833Y-2.843
X7.0833Y-2.943
X7.0833Y-3.043
X7.0833Y-3.143
X7.0833Y-3.243
X7.0833Y-3.343
X7.0833Y-3.443
X7.0833Y-3.543
X7.0833Y-3.643
X7.0833Y-3.743
X7.0833Y-3.843
X7.0833Y-3.943
X7.0833Y-4.043
X7.0833Y-4.143
X7.0833Y-4.243
X7.0833Y-4.343
X7.1833Y-2.443
X7.1833Y-2.543
X7.1833Y-2.643
X7.1833Y-2.743
X7.1833Y-2.843
X7.1833Y-2.943
X7.1833Y-3.043
X7.1833Y-3.143
X7.1833Y-3.243
X7.1833Y-3.343
X7.1833Y-3.443
X7.1833Y-3.543
X7.1833Y-3.643
X7.1833Y-3.743
X7.1833Y-3.843
X7.1833Y-3.943
X7.1833Y-4.043
X7.1833Y-4.143
X7.1833Y-4.243
X7.1833Y-4.343
T5
X4.595Y-4.705
X4.605Y-2.1
X7.24Y-2.105
X7.245Y-4.705
T2
G00X4.6224Y-3.3453
M15
G01X4.6224Y-3.3847
M16
G05
G00X4.839Y-3.1681
M15
G01X4.7996Y-3.1681
M16
G05
G00X4.839Y-3.2666
M15
G01X4.7996Y-3.2666
M16
G05
G00X4.7996Y-3.4634
M15
G01X4.839Y-3.4634
M16
G05
G00X4.7996Y-3.5619
M15
G01X4.839Y-3.5619
M16
G05
T0
M30
